<?xml version="1.0" standalone="no"?>
<!DOCTYPE svg PUBLIC "-//W3C//DTD SVG 1.1//EN" "http://www.w3.org/Graphics/SVG/1.1/DTD/svg11.dtd" >
<svg xmlns="http://www.w3.org/2000/svg" xmlns:xlink="http://www.w3.org/1999/xlink" version="1.1">
<metadata>
Created by FontForge 20230101 at Tue Feb 19 20:20:15 2013
 By Unknown
Copyright (c) 2009 by Roger S. Nelsson. All rights reserved.
</metadata>
<defs>
<font id="GeometrySoftPro-BoldA" horiz-adv-x="560" >
  <font-face 
    font-family="GeometrySoftPro-BoldA"
    font-weight="400"
    font-stretch="normal"
    units-per-em="1000"
    panose-1="2 0 5 3 0 0 0 2 0 4"
    ascent="786"
    descent="-214"
    x-height="512"
    cap-height="640"
    bbox="-88 -192 984 832"
    underline-thickness="50"
    underline-position="-100"
    unicode-range="U+0020-2212"
  />
<missing-glyph 
d="M104 0q-26 0 -45 19t-19 45v512q0 26 19 45t45 19h352q26 0 45 -19t19 -45v-512q0 -26 -19 -45t-45 -19h-352zM168 512v-384h224v384h-224z" />
    <glyph glyph-name=".notdef" 
d="M104 0q-26 0 -45 19t-19 45v512q0 26 19 45t45 19h352q26 0 45 -19t19 -45v-512q0 -26 -19 -45t-45 -19h-352zM168 512v-384h224v384h-224z" />
    <glyph glyph-name=".null" horiz-adv-x="0" 
 />
    <glyph glyph-name="nonmarkingreturn" horiz-adv-x="272" 
 />
    <glyph glyph-name="space" unicode=" " horiz-adv-x="272" 
 />
    <glyph glyph-name="exclam" unicode="!" horiz-adv-x="208" 
d="M168 256q0 -26 -19 -45t-45 -19t-45 19t-19 45v384q0 26 19 45t45 19t45 -19t19 -45v-384zM32 72q0 30 21 51t51 21t51 -21t21 -51t-21 -51t-51 -21t-51 21t-21 51z" />
    <glyph glyph-name="quotedbl" unicode="&#x22;" horiz-adv-x="336" 
d="M24 640q0 26 19 45t45 19t45 -19t19 -45v-128q0 -26 -19 -45t-45 -19t-45 19t-19 45v128zM184 640q0 26 19 45t45 19t45 -19t19 -45v-128q0 -26 -19 -45t-45 -19t-45 19t-19 45v128z" />
    <glyph glyph-name="numbersign" unicode="#" horiz-adv-x="624" 
d="M88 128q-26 0 -45 19t-19 45t19 45t45 19h32v128h-32q-26 0 -45 19t-19 45t19 45t45 19h32v64q0 26 19 45t45 19t45 -19t19 -45v-64h128v64q0 26 19 45t45 19t45 -19t19 -45v-64h32q26 0 45 -19t19 -45t-19 -45t-45 -19h-32v-128h32q26 0 45 -19t19 -45t-19 -45t-45 -19
h-32v-64q0 -26 -19 -45t-45 -19t-45 19t-19 45v64h-128v-64q0 -26 -19 -45t-45 -19t-45 19t-19 45v64h-32zM248 256h128v128h-128v-128z" />
    <glyph glyph-name="dollar" unicode="$" 
d="M232 576v48q0 20 14 34t34 14t34 -14t14 -34v-48h112q26 0 45 -19t19 -45t-19 -45t-45 -19h-112v-64h48q33 0 62 -12.5t51 -34.5t34.5 -51t12.5 -62t-12.5 -62t-34.5 -51t-51 -34.5t-62 -12.5h-48v-48q0 -20 -14 -34t-34 -14t-34 14t-14 34v48h-144q-26 0 -45 19t-19 45
t19 45t45 19h144v64h-48q-33 0 -62 12.5t-51 34.5t-34.5 51t-12.5 62t12.5 62t34.5 51t51 34.5t62 12.5h48zM376 192q14 0 23 9t9 23t-9 23t-23 9h-48v-64h48zM232 384v64h-48q-14 0 -23 -9t-9 -23t9 -23t23 -9h48z" />
    <glyph glyph-name="percent" unicode="%" horiz-adv-x="688" 
d="M106 14q-14 -14 -34 -14t-34 14t-14 34t14 34l544 544q14 14 34 14t34 -14t14 -34t-14 -34zM24 496q0 30 11.5 56t31 45.5t45.5 31t56 11.5t56 -11.5t45.5 -31t31 -45.5t11.5 -56t-11.5 -56t-31 -45.5t-45.5 -31t-56 -11.5t-56 11.5t-45.5 31t-31 45.5t-11.5 56zM376 144
q0 30 11.5 56t31 45.5t45.5 31t56 11.5t56 -11.5t45.5 -31t31 -45.5t11.5 -56t-11.5 -56t-31 -45.5t-45.5 -31t-56 -11.5t-56 11.5t-45.5 31t-31 45.5t-11.5 56zM472 144q0 -20 14 -34t34 -14t34 14t14 34t-14 34t-34 14t-34 -14t-14 -34zM120 496q0 -20 14 -34t34 -14
t34 14t14 34t-14 34t-34 14t-34 -14t-14 -34z" />
    <glyph glyph-name="ampersand" unicode="&#x26;" horiz-adv-x="664" 
d="M470 95q-35 -44 -86.5 -69.5t-111.5 -25.5q-53 0 -99.5 20t-81.5 55t-55 81.5t-20 99.5q0 60 25.5 112t69.5 87l-76 76q-19 18 -19 45q0 26 19 45t45 19h384q26 0 45 -19t19 -45t-19 -45t-45 -19h-230l403 -403q19 -21 19 -45q0 -26 -19 -45t-45 -19t-45 19zM272 128
q34 0 62.5 16t45.5 42l-178 177q-26 -17 -42 -45t-16 -62q0 -27 10 -50t27.5 -40.5t40.5 -27.5t50 -10z" />
    <glyph glyph-name="quotesingle" unicode="'" horiz-adv-x="176" 
d="M24 640q0 26 19 45t45 19t45 -19t19 -45v-128q0 -26 -19 -45t-45 -19t-45 19t-19 45v128z" />
    <glyph glyph-name="parenleft" unicode="(" horiz-adv-x="480" 
d="M408 -64q-80 0 -149.5 30t-122 82.5t-82.5 122t-30 149.5q0 79 30 149t82.5 122.5t122 82.5t149.5 30q26 0 45 -19t19 -45t-19 -45t-45 -19q-53 0 -99.5 -20t-81.5 -55t-55 -81.5t-20 -99.5t20 -99.5t55 -81.5t81.5 -55t99.5 -20q26 0 45 -19t19 -45t-19 -45t-45 -19z
" />
    <glyph glyph-name="parenright" unicode=")" horiz-adv-x="480" 
d="M72 -64q-26 0 -45 19t-19 45t19 45t45 19q53 0 99.5 20t81.5 55t55 81.5t20 99.5t-20 99.5t-55 81.5t-81.5 55t-99.5 20q-26 0 -45 19t-19 45t19 45t45 19q79 0 149 -30t122.5 -82.5t82.5 -122.5t30 -149q0 -80 -30 -149.5t-82.5 -122t-122.5 -82.5t-149 -30z" />
    <glyph glyph-name="asterisk" unicode="*" horiz-adv-x="432" 
d="M232 464v90l67 67q19 19 45 19t45 -19t19 -45t-19 -45l-67 -67h-90zM322 432l67 -67q19 -19 19 -45t-19 -45t-45 -19t-45 19l-67 67v90h90zM110 464l-67 67q-19 19 -19 45t19 45t45 19t45 -19l67 -67v-90h-90zM200 432v-90l-67 -67q-19 -19 -45 -19t-45 19t-19 45t19 45
l67 67h90z" />
    <glyph glyph-name="plus" unicode="+" 
d="M344 384h128q26 0 45 -19t19 -45t-19 -45t-45 -19h-128v-128q0 -26 -19 -45t-45 -19t-45 19t-19 45v128h-128q-26 0 -45 19t-19 45t19 45t45 19h128v128q0 26 19 45t45 19t45 -19t19 -45v-128z" />
    <glyph glyph-name="comma" unicode="," horiz-adv-x="176" 
d="M24 64q0 26 19 45t45 19t45 -19t19 -45v-128q0 -26 -19 -45t-45 -19t-45 19t-19 45v128z" />
    <glyph glyph-name="hyphen" unicode="-" horiz-adv-x="368" 
d="M88 256q-26 0 -45 19t-19 45t19 45t45 19h192q26 0 45 -19t19 -45t-19 -45t-45 -19h-192z" />
    <glyph glyph-name="period" unicode="." horiz-adv-x="176" 
d="M16 72q0 30 21 51t51 21t51 -21t21 -51t-21 -51t-51 -21t-51 21t-21 51z" />
    <glyph glyph-name="slash" unicode="/" horiz-adv-x="624" 
d="M101 19q-9 -10 -21 -14.5t-24 -4.5q-26 0 -45 19t-19 45q0 12 4.5 24t14.5 21l512 512q19 19 45 19t45 -19t19 -45t-19 -45z" />
    <glyph glyph-name="zero" unicode="0" 
d="M24 384q0 53 20 99.5t55 81.5t81.5 55t99.5 20t99.5 -20t81.5 -55t55 -81.5t20 -99.5v-128q0 -53 -20 -99.5t-55 -81.5t-81.5 -55t-99.5 -20t-99.5 20t-81.5 55t-55 81.5t-20 99.5v128zM152 256q0 -27 10 -50t27.5 -40.5t40.5 -27.5t50 -10t50 10t40.5 27.5t27.5 40.5
t10 50v128q0 27 -10 50t-27.5 40.5t-40.5 27.5t-50 10t-50 -10t-40.5 -27.5t-27.5 -40.5t-10 -50v-128z" />
    <glyph glyph-name="one" unicode="1" horiz-adv-x="304" 
d="M136 512h-64q-26 0 -45 19t-19 45t19 45t45 19h128q26 0 45 -19t19 -45v-512q0 -26 -19 -45t-45 -19t-45 19t-19 45v448z" />
    <glyph glyph-name="two" unicode="2" horiz-adv-x="544" 
d="M296 640q46 0 87 -17.5t71.5 -48t48 -71.5t17.5 -87q0 -47 -17.5 -87.5t-48 -71t-71.5 -48t-87 -17.5h-24q-36 0 -65 -17.5t-46 -46.5h295q26 0 45 -19t19 -45t-19 -45t-45 -19h-376q-26 0 -45 19t-19 45q0 53 20 99.5t55 81.5t81.5 55t99.5 20h24q40 0 68 28t28 68
t-28 68t-68 28h-48q-40 0 -68 -28t-28 -68q0 -26 -19 -45t-45 -19t-45 19t-19 45q0 46 17.5 87t48 71.5t71 48t87.5 17.5h48z" />
    <glyph glyph-name="three" unicode="3" horiz-adv-x="544" 
d="M296 128q40 0 68 28t28 68t-28 68t-68 28h-32q-26 0 -45 19t-19 45q0 12 4.5 24t14.5 21l83 83h-214q-26 0 -45 19t-19 45t19 45t45 19h368q26 0 45 -19t19 -45q0 -12 -4.5 -24t-14.5 -21l-106 -106q56 -28 90.5 -81.5t34.5 -119.5q0 -47 -17.5 -87.5t-48 -71t-71.5 -48
t-87 -17.5h-48q-47 0 -87.5 17.5t-71 48t-48 71t-17.5 87.5q0 26 19 45t45 19t45 -19t19 -45q0 -40 28 -68t68 -28h48z" />
    <glyph glyph-name="four" unicode="4" 
d="M72 128q-26 0 -45 19t-19 45q0 12 4.5 24t14.5 21l384 384q19 19 45 19t45 -19t19 -45v-512q0 -26 -19 -45t-45 -19t-45 19t-19 45v64h-320zM392 422l-166 -166h166v166z" />
    <glyph glyph-name="five" unicode="5" horiz-adv-x="544" 
d="M24 224q0 26 19 45t45 19t45 -19t19 -45q0 -40 28 -68t68 -28h48q40 0 68 28t28 68t-28 68t-68 28h-192q-26 0 -45 19t-19 45v192q0 26 19 45t45 19h320q26 0 45 -19t19 -45t-19 -45t-45 -19h-256v-64h128q46 0 87 -17.5t71.5 -48t48 -71.5t17.5 -87q0 -47 -17.5 -87.5
t-48 -71t-71.5 -48t-87 -17.5h-48q-47 0 -87.5 17.5t-71 48t-48 71t-17.5 87.5z" />
    <glyph glyph-name="six" unicode="6" 
d="M345 503q41 -11 76 -34.5t60.5 -56t40 -72.5t14.5 -84q0 -53 -20 -99.5t-55 -81.5t-81.5 -55t-99.5 -20t-99.5 20t-81.5 55t-55 81.5t-20 99.5q0 49 18.5 96t56.5 85l184 184q19 19 45 19t45 -19t19 -45t-19 -45zM152 256q0 -27 10 -50t27.5 -40.5t40.5 -27.5t50 -10
t50 10t40.5 27.5t27.5 40.5t10 50t-10 50t-27.5 40.5t-40.5 27.5t-50 10t-50 -10t-40.5 -27.5t-27.5 -40.5t-10 -50z" />
    <glyph glyph-name="seven" unicode="7" horiz-adv-x="528" 
d="M328 64q0 -26 -19 -45t-45 -19t-45 19t-19 45v256q0 26 19 45t45 19q27 0 50 10t40.5 27.5t27.5 40.5t10 50h-320q-26 0 -45 19t-19 45t19 45t45 19h384q26 0 45 -19t19 -45v-64q0 -45 -14.5 -85t-40 -73t-61 -56.5t-76.5 -33.5v-200z" />
    <glyph glyph-name="eight" unicode="8" horiz-adv-x="544" 
d="M112 480q0 33 12.5 62t34.5 51t51 34.5t62 12.5t62 -12.5t51 -34.5t34.5 -51t12.5 -62q0 -32 -13 -64q49 -29 79 -79.5t30 -112.5q0 -47 -17.5 -87.5t-48 -71t-71.5 -48t-87 -17.5h-64q-47 0 -87.5 17.5t-71 48t-48 71t-17.5 87.5q0 62 29.5 112.5t79.5 79.5
q-13 29 -13 64zM304 128q40 0 68 28t28 68t-28 68t-68 28h-64q-40 0 -68 -28t-28 -68t28 -68t68 -28h64zM240 480q0 -14 9 -23t23 -9t23 9t9 23t-9 23t-23 9t-23 -9t-9 -23z" />
    <glyph glyph-name="nine" unicode="9" 
d="M214 136q-41 11 -75.5 34.5t-60 56t-40 72.5t-14.5 85q0 53 20 99.5t55 81.5t81.5 55t99.5 20t99.5 -20t81.5 -55t55 -81.5t20 -99.5q0 -49 -18.5 -96t-56.5 -85l-184 -184q-19 -19 -45 -19t-45 19t-19 45t19 45zM408 384q0 27 -10 50t-27.5 40.5t-40.5 27.5t-50 10
t-50 -10t-40.5 -27.5t-27.5 -40.5t-10 -50t10 -50t27.5 -40.5t40.5 -27.5t50 -10t50 10t40.5 27.5t27.5 40.5t10 50z" />
    <glyph glyph-name="colon" unicode=":" horiz-adv-x="176" 
d="M16 408q0 30 21 51t51 21t51 -21t21 -51t-21 -51t-51 -21t-51 21t-21 51zM16 168q0 30 21 51t51 21t51 -21t21 -51t-21 -51t-51 -21t-51 21t-21 51z" />
    <glyph glyph-name="semicolon" unicode=";" horiz-adv-x="176" 
d="M24 160q0 26 19 45t45 19t45 -19t19 -45v-128q0 -26 -19 -45t-45 -19t-45 19t-19 45v128zM16 408q0 30 21 51t51 21t51 -21t21 -51t-21 -51t-51 -21t-51 21t-21 51z" />
    <glyph glyph-name="less" unicode="&#x3c;" horiz-adv-x="432" 
d="M299 621q19 19 45 19t45 -19t19 -45q0 -12 -5 -24.5t-13 -20.5l-211 -211l211 -211q8 -9 12.5 -21t5.5 -24q0 -26 -19 -45t-45 -19t-45 19l-257 256q-9 8 -13.5 20t-4.5 25q0 12 5 24.5t13 20.5z" />
    <glyph glyph-name="equal" unicode="=" 
d="M88 384q-26 0 -45 19t-19 45t19 45t45 19h384q26 0 45 -19t19 -45t-19 -45t-45 -19h-384zM88 128q-26 0 -45 19t-19 45t19 45t45 19h384q26 0 45 -19t19 -45t-19 -45t-45 -19h-384z" />
    <glyph glyph-name="greater" unicode="&#x3e;" horiz-adv-x="432" 
d="M390 365q9 -8 13 -20.5t5 -24.5q0 -12 -5 -24.5t-13 -20.5l-257 -256q-19 -19 -45 -19t-45 19t-19 45q0 12 5 24.5t13 20.5l211 211l-211 211q-9 8 -13.5 20t-4.5 25q0 26 19 45t45 19t45 -19z" />
    <glyph glyph-name="question" unicode="?" horiz-adv-x="544" 
d="M8 448q0 53 20 99.5t55 81.5t81.5 55t99.5 20t99.5 -20t81.5 -55t55 -81.5t20 -99.5t-20 -99.5t-55 -81.5t-81.5 -55t-99.5 -20q-26 0 -45 19t-19 45t19 45t45 19q27 0 50 10t40.5 27.5t27.5 40.5t10 50t-10 50t-27.5 40.5t-40.5 27.5t-50 10t-50 -10t-40.5 -27.5
t-27.5 -40.5t-10 -50q0 -26 -19 -45t-45 -19t-45 19t-19 45zM192 72q0 30 21 51t51 21t51 -21t21 -51t-21 -51t-51 -21t-51 21t-21 51z" />
    <glyph glyph-name="at" unicode="@" horiz-adv-x="800" 
d="M592 256q0 -14 9 -23t23 -9t23 9t9 23q0 53 -20 99.5t-55 81.5t-81.5 55t-99.5 20t-99.5 -20t-81.5 -55t-55 -81.5t-20 -99.5t20 -99.5t55 -81.5t81.5 -55t99.5 -20h128q26 0 45 -19t19 -45t-19 -45t-45 -19h-128q-80 0 -149.5 30t-122 82.5t-82.5 122t-30 149.5
q0 79 30 149t82.5 122.5t122 82.5t149.5 30q79 0 149 -30t122.5 -82.5t82.5 -122.5t30 -149q0 -33 -12.5 -62t-34.5 -51t-51 -34.5t-62 -12.5t-62 12.5t-51 34.5t-34.5 51t-12.5 62q0 26 -19 45t-45 19t-45 -19t-19 -45t19 -45t45 -19t45 -19t19 -45t-19 -45t-45 -19
q-40 0 -75 15t-61 41t-41 61t-15 75t15 75t41 61t61 41t75 15t75 -15t61 -41t41 -61t15 -75z" />
    <glyph glyph-name="A" unicode="A" horiz-adv-x="656" 
d="M616 64q0 -26 -19 -45t-45 -19t-45 19t-19 45v128h-320v-128q0 -26 -19 -45t-45 -19t-45 19t-19 45v288q0 60 22.5 112.5t61.5 91.5t91.5 61.5t112.5 22.5t112.5 -22.5t91.5 -61.5t61.5 -91.5t22.5 -112.5v-288zM168 320h320v32q0 33 -12.5 62t-34.5 51t-51 34.5
t-62 12.5t-62 -12.5t-51 -34.5t-34.5 -51t-12.5 -62v-32z" />
    <glyph glyph-name="B" unicode="B" horiz-adv-x="632" 
d="M104 0q-26 0 -45 19t-19 45v512q0 26 19 45t45 19h288q40 0 75 -15t61 -41t41 -61t15 -75q0 -31 -9 -59t-26 -51q31 -26 49 -64t18 -82q0 -40 -15 -75t-41 -61t-61 -41t-75 -15h-320zM168 256v-128h256q26 0 45 19t19 45t-19 45t-45 19h-256zM168 512v-128h224
q26 0 45 19t19 45t-19 45t-45 19h-224z" />
    <glyph glyph-name="C" unicode="C" horiz-adv-x="584" 
d="M562 94q-48 -48 -106 -71t-120 -23q-66 0 -124.5 25t-102 68.5t-68.5 102t-25 124.5t25 124.5t68.5 102t102 68.5t124.5 25q62 0 120 -23.5t106 -70.5q19 -19 19 -45t-19 -45t-45 -19q-27 0 -45 19q-29 28 -64 42t-72 14q-40 0 -75 -15t-61 -41t-41 -61t-15 -75t15 -75
t41 -61t61 -41t75 -15q37 0 72 13.5t64 42.5q19 19 45 19t45 -19t19 -45t-19 -45z" />
    <glyph glyph-name="D" unicode="D" horiz-adv-x="632" 
d="M104 0q-26 0 -45 19t-19 45v512q0 26 19 45t45 19h192q66 0 124.5 -25t102 -68.5t68.5 -102t25 -124.5t-25 -124.5t-68.5 -102t-102 -68.5t-124.5 -25h-192zM168 512v-384h128q40 0 75 15t61 41t41 61t15 75t-15 75t-41 61t-61 41t-75 15h-128z" />
    <glyph glyph-name="E" unicode="E" horiz-adv-x="568" 
d="M168 128h320q26 0 45 -19t19 -45t-19 -45t-45 -19h-384q-26 0 -45 19t-19 45v512q0 26 19 45t45 19h384q26 0 45 -19t19 -45t-19 -45t-45 -19h-320v-128h288q26 0 45 -19t19 -45t-19 -45t-45 -19h-288v-128z" />
    <glyph glyph-name="F" unicode="F" horiz-adv-x="568" 
d="M168 64q0 -26 -19 -45t-45 -19t-45 19t-19 45v512q0 26 19 45t45 19h384q26 0 45 -19t19 -45t-19 -45t-45 -19h-320v-128h288q26 0 45 -19t19 -45t-19 -45t-45 -19h-288v-192z" />
    <glyph glyph-name="G" unicode="G" horiz-adv-x="632" 
d="M464 256h-64q-26 0 -45 19t-19 45t19 45t45 19h128q26 0 45 -19t19 -45v-256q0 -26 -19 -45t-45 -19h-192q-66 0 -124.5 25t-102 68.5t-68.5 102t-25 124.5t25 124.5t68.5 102t102 68.5t124.5 25q62 0 120 -23.5t106 -70.5q19 -19 19 -45t-19 -45t-45 -19t-45 19
q-28 28 -64 42t-72 14q-40 0 -75 -15t-61 -41t-41 -61t-15 -75t15 -75t41 -61t61 -41t75 -15h128v128z" />
    <glyph glyph-name="H" unicode="H" horiz-adv-x="656" 
d="M168 64q0 -26 -19 -45t-45 -19t-45 19t-19 45v512q0 26 19 45t45 19t45 -19t19 -45v-192h320v192q0 26 19 45t45 19t45 -19t19 -45v-512q0 -26 -19 -45t-45 -19t-45 19t-19 45v192h-320v-192z" />
    <glyph glyph-name="I" unicode="I" horiz-adv-x="400" 
d="M136 512h-64q-26 0 -45 19t-19 45t19 45t45 19h256q26 0 45 -19t19 -45t-19 -45t-45 -19h-64v-384h64q26 0 45 -19t19 -45t-19 -45t-45 -19h-256q-26 0 -45 19t-19 45t19 45t45 19h64v384z" />
    <glyph glyph-name="J" unicode="J" horiz-adv-x="544" 
d="M8 256q0 26 19 45t45 19t45 -19t19 -45q0 -27 10 -50t27.5 -40.5t40.5 -27.5t50 -10t50 10t40.5 27.5t27.5 40.5t10 50v320q0 26 19 45t45 19t45 -19t19 -45v-320q0 -53 -20 -99.5t-55 -81.5t-81.5 -55t-99.5 -20t-99.5 20t-81.5 55t-55 81.5t-20 99.5z" />
    <glyph glyph-name="K" unicode="K" horiz-adv-x="640" 
d="M424 367q42 -15 77 -41.5t60.5 -62t40 -78t14.5 -89.5v-32q0 -26 -19 -45t-45 -19t-45 19t-19 45v32q0 33 -12.5 62t-34.5 51t-51 34.5t-62 12.5h-160v-192q0 -26 -19 -45t-45 -19t-45 19t-19 45v512q0 26 19 45t45 19t45 -19t19 -45v-192h128q0 53 20 99.5t55 81.5
t81.5 55t99.5 20q26 0 45 -19t19 -45t-19 -45t-45 -19q-27 0 -50 -10t-40.5 -27.5t-27.5 -40.5t-10 -50v-17z" />
    <glyph glyph-name="L" unicode="L" 
d="M40 576q0 26 19 45t45 19t45 -19t19 -45v-448h320q26 0 45 -19t19 -45t-19 -45t-45 -19h-384q-26 0 -45 19t-19 45v512z" />
    <glyph glyph-name="M" unicode="M" horiz-adv-x="976" 
d="M936 64q0 -26 -19 -45t-45 -19t-45 19t-19 45v320q0 27 -10 50t-27.5 40.5t-40.5 27.5t-50 10t-50 -10t-40.5 -27.5t-27.5 -40.5t-10 -50v-320q0 -26 -19 -45t-45 -19t-45 19t-19 45v320q0 27 -10 50t-27.5 40.5t-40.5 27.5t-50 10t-50 -10t-40.5 -27.5t-27.5 -40.5
t-10 -50v-320q0 -26 -19 -45t-45 -19t-45 19t-19 45v320q0 53 20 99.5t55 81.5t81.5 55t99.5 20q57 0 106.5 -23.5t84.5 -64.5q35 41 85 64.5t108 23.5q53 0 99.5 -20t81.5 -55t55 -81.5t20 -99.5v-320z" />
    <glyph glyph-name="N" unicode="N" horiz-adv-x="656" 
d="M616 64q0 -26 -19 -45t-45 -19t-45 19t-19 45v288q0 33 -12.5 62t-34.5 51t-51 34.5t-62 12.5t-62 -12.5t-51 -34.5t-34.5 -51t-12.5 -62v-288q0 -26 -19 -45t-45 -19t-45 19t-19 45v288q0 60 22.5 112.5t61.5 91.5t91.5 61.5t112.5 22.5t112.5 -22.5t91.5 -61.5
t61.5 -91.5t22.5 -112.5v-288z" />
    <glyph glyph-name="O" unicode="O" horiz-adv-x="672" 
d="M16 320q0 66 25 124.5t68.5 102t102 68.5t124.5 25t124.5 -25t102 -68.5t68.5 -102t25 -124.5t-25 -124.5t-68.5 -102t-102 -68.5t-124.5 -25t-124.5 25t-102 68.5t-68.5 102t-25 124.5zM144 320q0 -40 15 -75t41 -61t61 -41t75 -15t75 15t61 41t41 61t15 75t-15 75
t-41 61t-61 41t-75 15t-75 -15t-61 -41t-41 -61t-15 -75z" />
    <glyph glyph-name="P" unicode="P" horiz-adv-x="632" 
d="M168 192v-128q0 -26 -19 -45t-45 -19t-45 19t-19 45v512q0 26 19 45t45 19h288q46 0 87 -17.5t71.5 -48t48 -71.5t17.5 -87q0 -47 -17.5 -87.5t-48 -71t-71.5 -48t-87 -17.5h-224zM168 512v-192h224q40 0 68 28t28 68t-28 68t-68 28h-224z" />
    <glyph glyph-name="Q" unicode="Q" horiz-adv-x="680" 
d="M16 320q0 66 25 124.5t68.5 102t102 68.5t124.5 25t124.5 -25t102 -68.5t68.5 -102t25 -124.5q0 -58 -19.5 -110t-54 -93.5t-81 -70.5t-101.5 -40v-70q0 -26 -19 -45t-45 -19t-45 19t-19 45v70q-55 11 -101.5 40t-81 70.5t-54 93.5t-19.5 110zM144 320q0 -32 9.5 -60.5
t26.5 -52t40.5 -41t51.5 -27.5v85q0 26 19 45t45 19t45 -19t19 -45v-85q28 10 51.5 27.5t40.5 41t26.5 52t9.5 60.5q0 40 -15 75t-41 61t-61 41t-75 15t-75 -15t-61 -41t-41 -61t-15 -75z" />
    <glyph glyph-name="R" unicode="R" horiz-adv-x="632" 
d="M168 64q0 -26 -19 -45t-45 -19t-45 19t-19 45v512q0 26 19 45t45 19h320q40 0 75 -15t61 -41t41 -61t15 -75t-15 -75t-41 -61t-61 -41t-75 -15q0 -27 10 -50t27.5 -40.5t40.5 -27.5t50 -10q26 0 45 -19t19 -45t-19 -45t-45 -19q-53 0 -99.5 20t-81.5 55t-55 81.5
t-20 99.5h-128v-192zM168 512v-128h256q26 0 45 19t19 45t-19 45t-45 19h-256z" />
    <glyph glyph-name="S" unicode="S" horiz-adv-x="608" 
d="M408 128q26 0 45 19t19 45t-19 45t-45 19h-192q-40 0 -75 15t-61 41t-41 61t-15 75t15 75t41 61t61 41t75 15h288q26 0 45 -19t19 -45t-19 -45t-45 -19h-288q-26 0 -45 -19t-19 -45t19 -45t45 -19h192q40 0 75 -15t61 -41t41 -61t15 -75t-15 -75t-41 -61t-61 -41t-75 -15
h-320q-26 0 -45 19t-19 45t19 45t45 19h320z" />
    <glyph glyph-name="T" unicode="T" horiz-adv-x="592" 
d="M232 512h-160q-26 0 -45 19t-19 45t19 45t45 19h448q26 0 45 -19t19 -45t-19 -45t-45 -19h-160v-448q0 -26 -19 -45t-45 -19t-45 19t-19 45v448z" />
    <glyph glyph-name="U" unicode="U" horiz-adv-x="624" 
d="M600 288q0 -60 -22.5 -112.5t-61.5 -91.5t-91.5 -61.5t-112.5 -22.5t-112.5 22.5t-91.5 61.5t-61.5 91.5t-22.5 112.5v288q0 26 19 45t45 19t45 -19t19 -45v-288q0 -33 12.5 -62t34.5 -51t51 -34.5t62 -12.5t62 12.5t51 34.5t34.5 51t12.5 62v288q0 26 19 45t45 19
t45 -19t19 -45v-288z" />
    <glyph glyph-name="V" unicode="V" horiz-adv-x="624" 
d="M472 384q0 27 -10 50t-27.5 40.5t-40.5 27.5t-50 10q-26 0 -45 19t-19 45t19 45t45 19q53 0 99.5 -20t81.5 -55t55 -81.5t20 -99.5v-96q0 -60 -22.5 -112.5t-61.5 -91.5t-91.5 -61.5t-112.5 -22.5t-112.5 22.5t-91.5 61.5t-61.5 91.5t-22.5 112.5v288q0 26 19 45t45 19
t45 -19t19 -45v-288q0 -33 12.5 -62t34.5 -51t51 -34.5t62 -12.5t62 12.5t51 34.5t34.5 51t12.5 62v96z" />
    <glyph glyph-name="W" unicode="W" horiz-adv-x="944" 
d="M920 256q0 -53 -20 -99.5t-55 -81.5t-81.5 -55t-99.5 -20q-58 0 -108 23.5t-85 64.5q-35 -41 -84.5 -64.5t-106.5 -23.5q-53 0 -99.5 20t-81.5 55t-55 81.5t-20 99.5v320q0 26 19 45t45 19t45 -19t19 -45v-320q0 -27 10 -50t27.5 -40.5t40.5 -27.5t50 -10t50 10
t40.5 27.5t27.5 40.5t10 50v320q0 26 19 45t45 19t45 -19t19 -45v-320q0 -27 10 -50t27.5 -40.5t40.5 -27.5t50 -10t50 10t40.5 27.5t27.5 40.5t10 50v320q0 26 19 45t45 19t45 -19t19 -45v-320z" />
    <glyph glyph-name="X" unicode="X" horiz-adv-x="624" 
d="M600 544q0 -69 -29 -127t-79 -97q50 -40 79 -98t29 -126v-32q0 -26 -19 -45t-45 -19t-45 19t-19 45v32q0 33 -12.5 62t-34.5 51t-51 34.5t-62 12.5t-62 -12.5t-51 -34.5t-34.5 -51t-12.5 -62v-32q0 -26 -19 -45t-45 -19t-45 19t-19 45v32q0 68 29 126t78 98
q-49 39 -78 97t-29 127v32q0 26 19 45t45 19t45 -19t19 -45v-32q0 -33 12.5 -62t34.5 -51t51 -34.5t62 -12.5t62 12.5t51 34.5t34.5 51t12.5 62v32q0 26 19 45t45 19t45 -19t19 -45v-32z" />
    <glyph glyph-name="Y" unicode="Y" horiz-adv-x="624" 
d="M600 464q0 -51 -17 -97.5t-47 -83.5t-71 -63t-89 -37v-119q0 -26 -19 -45t-45 -19t-45 19t-19 45v119q-48 11 -89 37t-71 63t-47 83.5t-17 97.5v112q0 26 19 45t45 19t45 -19t19 -45v-112q0 -33 12.5 -62t34.5 -51t51 -34.5t62 -12.5t62 12.5t51 34.5t34.5 51t12.5 62
v112q0 26 19 45t45 19t45 -19t19 -45v-112z" />
    <glyph glyph-name="Z" unicode="Z" horiz-adv-x="608" 
d="M336 384q27 0 50 10t40.5 27.5t27.5 40.5t10 50h-352q-26 0 -45 19t-19 45t19 45t45 19h416q26 0 45 -19t19 -45v-64q0 -53 -20 -99.5t-55 -81.5t-81.5 -55t-99.5 -20h-64q-27 0 -50 -10t-40.5 -27.5t-27.5 -40.5t-10 -50h384q26 0 45 -19t19 -45t-19 -45t-45 -19h-448
q-26 0 -45 19t-19 45v64q0 53 20 99.5t55 81.5t81.5 55t99.5 20h64z" />
    <glyph glyph-name="bracketleft" unicode="[" horiz-adv-x="304" 
d="M40 640q0 26 19 45t45 19h128q26 0 45 -19t19 -45t-19 -45t-45 -19h-64v-512h64q26 0 45 -19t19 -45t-19 -45t-45 -19h-128q-26 0 -45 19t-19 45v640z" />
    <glyph glyph-name="backslash" unicode="\" horiz-adv-x="624" 
d="M11 531q-19 19 -19 45t19 45t45 19t45 -19l512 -512q19 -21 19 -45q0 -26 -19 -45t-45 -19t-45 19z" />
    <glyph glyph-name="bracketright" unicode="]" horiz-adv-x="304" 
d="M264 0q0 -26 -19 -45t-45 -19h-128q-26 0 -45 19t-19 45t19 45t45 19h64v512h-64q-26 0 -45 19t-19 45t19 45t45 19h128q26 0 45 -19t19 -45v-640z" />
    <glyph glyph-name="asciicircum" unicode="^" horiz-adv-x="496" 
d="M453 461q19 -19 19 -45t-19 -45t-45 -19q-12 0 -24.5 5t-20.5 13l-115 115l-115 -115q-9 -9 -21 -13.5t-24 -4.5q-26 0 -45 19t-19 45t19 45l160 161q8 8 20 12.5t25 5.5q12 0 24.5 -5t20.5 -13z" />
    <glyph glyph-name="underscore" unicode="_" 
d="M88 -192q-26 0 -45 19t-19 45t19 45t45 19h384q26 0 45 -19t19 -45t-19 -45t-45 -19h-384z" />
    <glyph glyph-name="grave" unicode="`" horiz-adv-x="208" 
d="M38 622q-14 14 -14 34t14 34t34 14t34 -14l64 -64q14 -14 14 -34t-14 -34t-34 -14t-34 14z" />
    <glyph glyph-name="a" unicode="a" horiz-adv-x="552" 
d="M16 256q0 53 20 99.5t55 81.5t81.5 55t99.5 20t99.5 -20t81.5 -55t55 -81.5t20 -99.5v-192q0 -26 -19 -45t-45 -19q-20 0 -35.5 10.5t-23.5 27.5q-29 -18 -62.5 -28t-70.5 -10q-53 0 -99.5 20t-81.5 55t-55 81.5t-20 99.5zM144 256q0 -27 10 -50t27.5 -40.5t40.5 -27.5
t50 -10t50 10t40.5 27.5t27.5 40.5t10 50t-10 50t-27.5 40.5t-40.5 27.5t-50 10t-50 -10t-40.5 -27.5t-27.5 -40.5t-10 -50z" />
    <glyph glyph-name="b" unicode="b" horiz-adv-x="552" 
d="M24 640q0 26 19 45t45 19t45 -19t19 -45v-163q28 17 60.5 26t67.5 9q53 0 99.5 -20t81.5 -55t55 -81.5t20 -99.5t-20 -99.5t-55 -81.5t-81.5 -55t-99.5 -20t-99.5 20t-81.5 55t-55 81.5t-20 99.5v384zM152 256q0 -27 10 -50t27.5 -40.5t40.5 -27.5t50 -10t50 10
t40.5 27.5t27.5 40.5t10 50t-10 50t-27.5 40.5t-40.5 27.5t-50 10t-50 -10t-40.5 -27.5t-27.5 -40.5t-10 -50z" />
    <glyph glyph-name="c" unicode="c" horiz-adv-x="488" 
d="M453 75q-38 -38 -85 -56.5t-96 -18.5q-53 0 -99.5 20t-81.5 55t-55 81.5t-20 99.5t20 99.5t55 81.5t81.5 55t99.5 20q49 0 96 -18.5t85 -56.5q19 -19 19 -45t-19 -45t-45 -19q-27 0 -45 19q-20 19 -43 28t-48 9q-27 0 -50 -10t-40.5 -27.5t-27.5 -40.5t-10 -50t10 -50
t27.5 -40.5t40.5 -27.5t50 -10q25 0 48 9t43 28q19 19 45 19t45 -19t19 -45t-19 -45z" />
    <glyph glyph-name="d" unicode="d" horiz-adv-x="552" 
d="M528 256q0 -53 -20 -99.5t-55 -81.5t-81.5 -55t-99.5 -20t-99.5 20t-81.5 55t-55 81.5t-20 99.5t20 99.5t55 81.5t81.5 55t99.5 20q35 0 67 -9t61 -26v163q0 26 19 45t45 19t45 -19t19 -45v-384zM400 256q0 27 -10 50t-27.5 40.5t-40.5 27.5t-50 10t-50 -10t-40.5 -27.5
t-27.5 -40.5t-10 -50t10 -50t27.5 -40.5t40.5 -27.5t50 -10t50 10t40.5 27.5t27.5 40.5t10 50z" />
    <glyph glyph-name="e" unicode="e" horiz-adv-x="544" 
d="M272 0q-53 0 -99.5 20t-81.5 55t-55 81.5t-20 99.5t20 99.5t55 81.5t81.5 55t99.5 20t99.5 -20t81.5 -55t55 -81.5t20 -99.5q0 -26 -19 -45t-45 -19h-303q17 -29 46 -46.5t65 -17.5h32q26 0 45 -19t19 -45t-19 -45t-45 -19h-32zM272 384q-36 0 -65 -17.5t-46 -46.5h222
q-17 29 -46.5 46.5t-64.5 17.5z" />
    <glyph glyph-name="f" unicode="f" horiz-adv-x="368" 
d="M232 576q-26 0 -45 -19t-19 -45h128q26 0 45 -19t19 -45t-19 -45t-45 -19h-128v-320q0 -26 -19 -45t-45 -19t-45 19t-19 45v448q0 40 15 75t41 61t61 41t75 15h64q26 0 45 -19t19 -45t-19 -45t-45 -19h-64z" />
    <glyph glyph-name="g" unicode="g" horiz-adv-x="552" 
d="M272 -64q45 0 79 27t45 69q-28 -15 -59 -23.5t-65 -8.5q-53 0 -99.5 20t-81.5 55t-55 81.5t-20 99.5t20 99.5t55 81.5t81.5 55t99.5 20t99.5 -20t81.5 -55t55 -81.5t20 -99.5v-192q0 -53 -20 -99.5t-55 -81.5t-81.5 -55t-99.5 -20q-49 0 -96 18.5t-85 56.5q-19 19 -19 45
t19 45t45 19t45 -19q20 -19 43 -28t48 -9zM144 256q0 -27 10 -50t27.5 -40.5t40.5 -27.5t50 -10t50 10t40.5 27.5t27.5 40.5t10 50t-10 50t-27.5 40.5t-40.5 27.5t-50 10t-50 -10t-40.5 -27.5t-27.5 -40.5t-10 -50z" />
    <glyph glyph-name="h" unicode="h" horiz-adv-x="576" 
d="M552 64q0 -26 -19 -45t-45 -19t-45 19t-19 45v192q0 27 -10 50t-27.5 40.5t-40.5 27.5t-50 10t-50 -10t-40.5 -27.5t-27.5 -40.5t-10 -50v-192q0 -26 -19 -45t-45 -19t-45 19t-19 45v576q0 26 19 45t45 19t45 -19t19 -45v-163q28 17 60.5 26t67.5 9q53 0 99.5 -20
t81.5 -55t55 -81.5t20 -99.5v-192z" />
    <glyph glyph-name="i" unicode="i" horiz-adv-x="208" 
d="M168 64q0 -26 -19 -45t-45 -19t-45 19t-19 45v384q0 26 19 45t45 19t45 -19t19 -45v-384zM32 616q0 30 21 51t51 21t51 -21t21 -51t-21 -51t-51 -21t-51 21t-21 51z" />
    <glyph glyph-name="j" unicode="j" horiz-adv-x="208" 
d="M-24 -64q26 0 45 19t19 45v448q0 26 19 45t45 19t45 -19t19 -45v-448q0 -40 -15 -75t-41 -61t-61 -41t-75 -15q-26 0 -45 19t-19 45t19 45t45 19zM32 616q0 30 21 51t51 21t51 -21t21 -51t-21 -51t-51 -21t-51 21t-21 51z" />
    <glyph glyph-name="k" unicode="k" horiz-adv-x="576" 
d="M168 320h72q10 41 33.5 76.5t56.5 61t73 40t85 14.5q26 0 45 -19t19 -45t-19 -45t-45 -19q-40 0 -71 -21t-46 -55q39 -12 72 -35.5t57.5 -55.5t38 -71t13.5 -82q0 -26 -19 -45t-45 -19t-45 19t-19 45q0 27 -10 50t-27.5 40.5t-40.5 27.5t-50 10h-128v-128q0 -26 -19 -45
t-45 -19t-45 19t-19 45v576q0 26 19 45t45 19t45 -19t19 -45v-320z" />
    <glyph glyph-name="l" unicode="l" horiz-adv-x="208" 
d="M168 64q0 -26 -19 -45t-45 -19t-45 19t-19 45v576q0 26 19 45t45 19t45 -19t19 -45v-576z" />
    <glyph glyph-name="m" unicode="m" horiz-adv-x="816" 
d="M344 288q0 40 -28 68t-68 28t-68 -28t-28 -68v-224q0 -26 -19 -45t-45 -19t-45 19t-19 45v224q0 46 17.5 87t48 71.5t71 48t87.5 17.5q48 0 88.5 -18t71.5 -49q30 31 71 49t89 18q46 0 87 -17.5t71.5 -48t48 -71.5t17.5 -87v-224q0 -26 -19 -45t-45 -19t-45 19t-19 45
v224q0 40 -28 68t-68 28t-68 -28t-28 -68v-224q0 -26 -19 -45t-45 -19t-45 19t-19 45v224z" />
    <glyph glyph-name="n" unicode="n" 
d="M536 64q0 -26 -19 -45t-45 -19t-45 19t-19 45v192q0 27 -10 50t-27.5 40.5t-40.5 27.5t-50 10t-50 -10t-40.5 -27.5t-27.5 -40.5t-10 -50v-192q0 -26 -19 -45t-45 -19t-45 19t-19 45v192q0 53 20 99.5t55 81.5t81.5 55t99.5 20t99.5 -20t81.5 -55t55 -81.5t20 -99.5v-192
z" />
    <glyph glyph-name="o" unicode="o" horiz-adv-x="544" 
d="M16 256q0 53 20 99.5t55 81.5t81.5 55t99.5 20t99.5 -20t81.5 -55t55 -81.5t20 -99.5t-20 -99.5t-55 -81.5t-81.5 -55t-99.5 -20t-99.5 20t-81.5 55t-55 81.5t-20 99.5zM144 256q0 -27 10 -50t27.5 -40.5t40.5 -27.5t50 -10t50 10t40.5 27.5t27.5 40.5t10 50t-10 50
t-27.5 40.5t-40.5 27.5t-50 10t-50 -10t-40.5 -27.5t-27.5 -40.5t-10 -50z" />
    <glyph glyph-name="p" unicode="p" horiz-adv-x="552" 
d="M152 256q0 -27 10 -50t27.5 -40.5t40.5 -27.5t50 -10t50 10t40.5 27.5t27.5 40.5t10 50t-10 50t-27.5 40.5t-40.5 27.5t-50 10t-50 -10t-40.5 -27.5t-27.5 -40.5t-10 -50zM24 256q0 53 20 99.5t55 81.5t81.5 55t99.5 20t99.5 -20t81.5 -55t55 -81.5t20 -99.5t-20 -99.5
t-55 -81.5t-81.5 -55t-99.5 -20q-71 0 -128 34v-162q0 -26 -19 -45t-45 -19t-45 19t-19 45v384z" />
    <glyph glyph-name="q" unicode="q" horiz-adv-x="552" 
d="M528 -128q0 -26 -19 -45t-45 -19t-45 19t-19 45v162q-59 -34 -128 -34q-53 0 -99.5 20t-81.5 55t-55 81.5t-20 99.5t20 99.5t55 81.5t81.5 55t99.5 20t99.5 -20t81.5 -55t55 -81.5t20 -99.5v-384zM400 256q0 27 -10 50t-27.5 40.5t-40.5 27.5t-50 10t-50 -10t-40.5 -27.5
t-27.5 -40.5t-10 -50t10 -50t27.5 -40.5t40.5 -27.5t50 -10t50 10t40.5 27.5t27.5 40.5t10 50z" />
    <glyph glyph-name="r" unicode="r" horiz-adv-x="352" 
d="M280 512q26 0 45 -19t19 -45t-19 -45t-45 -19q-27 0 -50 -10t-40.5 -27.5t-27.5 -40.5t-10 -50v-192q0 -26 -19 -45t-45 -19t-45 19t-19 45v192q0 53 20 99.5t55 81.5t81.5 55t99.5 20z" />
    <glyph glyph-name="s" unicode="s" horiz-adv-x="480" 
d="M312 128q14 0 23 9t9 23t-9 23t-23 9h-128q-33 0 -62 12.5t-51 34.5t-34.5 51t-12.5 62t12.5 62t34.5 51t51 34.5t62 12.5h192q26 0 45 -19t19 -45t-19 -45t-45 -19h-192q-14 0 -23 -9t-9 -23t9 -23t23 -9h128q33 0 62 -12.5t51 -34.5t34.5 -51t12.5 -62t-12.5 -62
t-34.5 -51t-51 -34.5t-62 -12.5h-224q-26 0 -45 19t-19 45t19 45t45 19h224z" />
    <glyph glyph-name="t" unicode="t" horiz-adv-x="336" 
d="M248 128q26 0 45 -19t19 -45t-19 -45t-45 -19h-32q-40 0 -75 15t-61 41t-41 61t-15 75v384q0 26 19 45t45 19t45 -19t19 -45v-64h96q26 0 45 -19t19 -45t-19 -45t-45 -19h-96v-192q0 -26 19 -45t45 -19h32z" />
    <glyph glyph-name="u" unicode="u" 
d="M536 256q0 -53 -20 -99.5t-55 -81.5t-81.5 -55t-99.5 -20t-99.5 20t-81.5 55t-55 81.5t-20 99.5v192q0 26 19 45t45 19t45 -19t19 -45v-192q0 -27 10 -50t27.5 -40.5t40.5 -27.5t50 -10t50 10t40.5 27.5t27.5 40.5t10 50v192q0 26 19 45t45 19t45 -19t19 -45v-192z" />
    <glyph glyph-name="v" unicode="v" horiz-adv-x="552" 
d="M280 384q-26 0 -45 19t-19 45t19 45t45 19q53 0 99.5 -20t81.5 -55t55 -81.5t20 -99.5t-20 -99.5t-55 -81.5t-81.5 -55t-99.5 -20t-99.5 20t-81.5 55t-55 81.5t-20 99.5v192q0 26 19 45t45 19t45 -19t19 -45v-192q0 -27 10 -50t27.5 -40.5t40.5 -27.5t50 -10t50 10
t40.5 27.5t27.5 40.5t10 50t-10 50t-27.5 40.5t-40.5 27.5t-50 10z" />
    <glyph glyph-name="w" unicode="w" horiz-adv-x="816" 
d="M248 128q40 0 68 28t28 68v160q0 26 19 45t45 19t45 -19t19 -45v-160q0 -40 28 -68t68 -28t68 28t28 68v224q0 26 19 45t45 19t45 -19t19 -45v-224q0 -47 -17.5 -87.5t-48 -71t-71.5 -48t-87 -17.5q-48 0 -89 17.5t-71 49.5q-31 -32 -71.5 -49.5t-88.5 -17.5
q-47 0 -87.5 17.5t-71 48t-48 71t-17.5 87.5v224q0 26 19 45t45 19t45 -19t19 -45v-224q0 -40 28 -68t68 -28z" />
    <glyph glyph-name="x" unicode="x" 
d="M408 64q0 27 -10 50t-27.5 40.5t-40.5 27.5t-50 10t-50 -10t-40.5 -27.5t-27.5 -40.5t-10 -50q0 -26 -19 -45t-45 -19t-45 19t-19 45q0 57 23.5 106.5t63.5 84.5q-40 35 -63.5 85t-23.5 108q0 26 19 45t45 19t45 -19t19 -45q0 -27 10 -50t27.5 -40.5t40.5 -27.5t50 -10
t50 10t40.5 27.5t27.5 40.5t10 50q0 26 19 45t45 19t45 -19t19 -45q0 -58 -23.5 -108t-64.5 -85q41 -35 64.5 -84.5t23.5 -106.5q0 -26 -19 -45t-45 -19t-45 19t-19 45z" />
    <glyph glyph-name="y" unicode="y" horiz-adv-x="576" 
d="M280 -64q45 0 79 27t45 69q-28 -15 -59 -23.5t-65 -8.5q-53 0 -99.5 20t-81.5 55t-55 81.5t-20 99.5v192q0 26 19 45t45 19t45 -19t19 -45v-192q0 -27 10 -50t27.5 -40.5t40.5 -27.5t50 -10t50 10t40.5 27.5t27.5 40.5t10 50v192q0 26 19 45t45 19t45 -19t19 -45v-384
q0 -53 -20 -99.5t-55 -81.5t-81.5 -55t-99.5 -20q-49 0 -96 18.5t-85 56.5q-19 19 -19 45t19 45t45 19t45 -19q20 -19 43 -28t48 -9z" />
    <glyph glyph-name="z" unicode="z" 
d="M280 320q35 0 64.5 17.5t46.5 46.5h-303q-26 0 -45 19t-19 45t19 45t45 19h384q26 0 45 -19t19 -45q0 -53 -20 -99.5t-55 -81.5t-81.5 -55t-99.5 -20q-36 0 -65 -17.5t-46 -46.5h303q26 0 45 -19t19 -45t-19 -45t-45 -19h-384q-26 0 -45 19t-19 45q0 53 20 99.5t55 81.5
t81.5 55t99.5 20z" />
    <glyph glyph-name="braceleft" unicode="{" horiz-adv-x="368" 
d="M72 256q-26 0 -45 19t-19 45t19 45t45 19h32v128q0 40 15 75t41 61t61 41t75 15q26 0 45 -19t19 -45t-19 -45t-45 -19t-45 -19t-19 -45v-384q0 -26 19 -45t45 -19t45 -19t19 -45t-19 -45t-45 -19q-40 0 -75 15t-61 41t-41 61t-15 75v128h-32v0z" />
    <glyph glyph-name="bar" unicode="|" horiz-adv-x="208" 
d="M168 -64q0 -26 -19 -45t-45 -19t-45 19t-19 45v704q0 26 19 45t45 19t45 -19t19 -45v-704z" />
    <glyph glyph-name="braceright" unicode="}" horiz-adv-x="368" 
d="M264 256v-128q0 -40 -15 -75t-41 -61t-61 -41t-75 -15q-26 0 -45 19t-19 45t19 45t45 19t45 19t19 45v384q0 26 -19 45t-45 19t-45 19t-19 45t19 45t45 19q40 0 75 -15t61 -41t41 -61t15 -75v-128h32q26 0 45 -19t19 -45t-19 -45t-45 -19h-32z" />
    <glyph glyph-name="asciitilde" unicode="~" 
d="M24 320q0 33 12.5 62t34.5 51t51 34.5t62 12.5t62 -12.5t51 -34.5t34.5 -51t12.5 -62q0 -14 9 -23t23 -9t23 9t9 23v64q0 26 19 45t45 19t45 -19t19 -45v-64q0 -33 -12.5 -62t-34.5 -51t-51 -34.5t-62 -12.5t-62 12.5t-51 34.5t-34.5 51t-12.5 62q0 14 -9 23t-23 9
t-23 -9t-9 -23v-64q0 -26 -19 -45t-45 -19t-45 19t-19 45v64z" />
    <glyph glyph-name="uni00A0" unicode="&#xa0;" horiz-adv-x="272" 
 />
    <glyph glyph-name="exclamdown" unicode="&#xa1;" horiz-adv-x="208" 
d="M168 0q0 -26 -19 -45t-45 -19t-45 19t-19 45v384q0 26 19 45t45 19t45 -19t19 -45v-384zM32 568q0 30 21 51t51 21t51 -21t21 -51t-21 -51t-51 -21t-51 21t-21 51z" />
    <glyph glyph-name="cent" unicode="&#xa2;" horiz-adv-x="488" 
d="M453 139q-29 -29 -63 -46t-70 -25v-52q0 -20 -14 -34t-34 -14t-34 14t-14 34v52q-44 9 -82 31.5t-66 56t-44 75.5t-16 89q0 46 16 88t44 75.5t66 56.5t82 31v53q0 20 14 34t34 14t34 -14t14 -34v-53q36 -7 70 -24.5t63 -45.5q19 -19 19 -45t-19 -45t-45 -19q-27 0 -45 19
q-21 19 -43 28v-238q25 10 43 28q19 19 45 19t45 -19t19 -45t-19 -45zM144 320q0 -41 22.5 -73t57.5 -46v238q-35 -14 -57.5 -46t-22.5 -73z" />
    <glyph glyph-name="sterling" unicode="&#xa3;" 
d="M344 640q49 0 96 -18.5t85 -56.5q19 -19 19 -45t-19 -45t-45 -19q-27 0 -45 19q-20 19 -43 28t-48 9q-27 0 -50 -10t-40.5 -27.5t-27.5 -40.5t-10 -50h128q26 0 45 -19t19 -45t-19 -45t-45 -19h-128v-128h256q26 0 45 -19t19 -45t-19 -45t-45 -19h-384q-26 0 -45 19
t-19 45t19 45t45 19v256q0 53 20 99.5t55 81.5t81.5 55t99.5 20z" />
    <glyph glyph-name="currency" unicode="&#xa4;" 
d="M280 512q43 0 83 -19l64 64q19 19 45 19t45 -19t19 -45t-19 -45l-64 -64q19 -40 19 -83t-19 -83l64 -64q10 -9 14.5 -21t4.5 -24q0 -26 -19 -45t-45 -19q-12 0 -24 4.5t-21 14.5l-64 64q-40 -19 -83 -19t-83 19l-64 -64q-9 -10 -21 -14.5t-24 -4.5q-26 0 -45 19t-19 45
q0 12 4.5 24t14.5 21l64 64q-19 40 -19 83t19 83l-64 64q-19 19 -19 45t19 45t45 19t45 -19l64 -64q40 19 83 19zM280 384q-26 0 -45 -19t-19 -45t19 -45t45 -19t45 19t19 45t-19 45t-45 19z" />
    <glyph glyph-name="yen" unicode="&#xa5;" 
d="M344 112v-48q0 -26 -19 -45t-45 -19t-45 19t-19 45v48h-112q-20 0 -34 14t-14 34t14 34t34 14h112v56q-41 10 -76.5 33.5t-61 56.5t-40 73t-14.5 85v64q0 26 19 45t45 19t45 -19t19 -45v-64q0 -27 10 -50t27.5 -40.5t40.5 -27.5t50 -10t50 10t40.5 27.5t27.5 40.5t10 50
v64q0 26 19 45t45 19t45 -19t19 -45v-64q0 -45 -14.5 -85t-40 -73t-61 -56.5t-76.5 -33.5v-56h112q20 0 34 -14t14 -34t-14 -34t-34 -14h-112z" />
    <glyph glyph-name="brokenbar" unicode="&#xa6;" horiz-adv-x="208" 
d="M168 384q0 -26 -19 -45t-45 -19t-45 19t-19 45v256q0 26 19 45t45 19t45 -19t19 -45v-256zM168 -64q0 -26 -19 -45t-45 -19t-45 19t-19 45v256q0 26 19 45t45 19t45 -19t19 -45v-256z" />
    <glyph glyph-name="section" unicode="&#xa7;" horiz-adv-x="480" 
d="M176 512q0 -14 9 -23t23 -9h96q33 0 62 -12.5t51 -34.5t34.5 -51t12.5 -62q0 -35 -14 -65t-37 -52q19 -36 19 -75q0 -33 -12.5 -62t-34.5 -51t-51 -34.5t-62 -12.5h-128q-26 0 -45 19t-19 45t19 45t45 19h128q14 0 23 9t9 23t-9 23t-23 9h-96q-33 0 -62 12.5t-51 34.5
t-34.5 51t-12.5 62q0 35 13.5 64.5t37.5 52.5q-19 35 -19 75q0 33 12.5 62t34.5 51t51 34.5t62 12.5h128q26 0 45 -19t19 -45t-19 -45t-45 -19h-128q-14 0 -23 -9t-9 -23zM304 288q14 0 23 9t9 23t-9 23t-23 9h-128q-14 0 -23 -9t-9 -23t9 -23t23 -9h128z" />
    <glyph glyph-name="dieresis" unicode="&#xa8;" horiz-adv-x="304" 
d="M8 608q0 26 19 45t45 19t45 -19t19 -45t-19 -45t-45 -19t-45 19t-19 45zM168 608q0 26 19 45t45 19t45 -19t19 -45t-19 -45t-45 -19t-45 19t-19 45z" />
    <glyph glyph-name="copyright" unicode="&#xa9;" horiz-adv-x="672" 
d="M16 320q0 66 25 124.5t68.5 102t102 68.5t124.5 25t124.5 -25t102 -68.5t68.5 -102t25 -124.5t-25 -124.5t-68.5 -102t-102 -68.5t-124.5 -25t-124.5 25t-102 68.5t-68.5 102t-25 124.5zM112 320q0 -47 17.5 -87.5t48 -71t71 -48t87.5 -17.5q46 0 87 17.5t71.5 48t48 71
t17.5 87.5q0 46 -17.5 87t-48 71.5t-71.5 48t-87 17.5q-47 0 -87.5 -17.5t-71 -48t-48 -71.5t-17.5 -87zM336 384q-26 0 -45 -19t-19 -45t19 -45t45 -19q13 0 24.5 5.5t20.5 13.5q14 14 34 14t34 -14t14 -34t-14 -34q-45 -47 -113 -47q-33 0 -62 12.5t-51 34.5t-34.5 51
t-12.5 62t12.5 62t34.5 51t51 34.5t62 12.5q68 0 113 -47q14 -14 14 -34t-14 -34t-34 -14t-34 14q-9 8 -20.5 13.5t-24.5 5.5z" />
    <glyph glyph-name="ordfeminine" unicode="&#xaa;" horiz-adv-x="432" 
d="M408 304q0 -20 -14 -34t-34 -14q-14 0 -26 8t-18 20q-45 -28 -100 -28q-40 0 -75 15t-61 41t-41 61t-15 75t15 75t41 61t61 41t75 15t75 -15t61 -41t41 -61t15 -75v-144zM312 448q0 40 -28 68t-68 28t-68 -28t-28 -68t28 -68t68 -28t68 28t28 68z" />
    <glyph glyph-name="guillemotleft" unicode="&#xab;" horiz-adv-x="592" 
d="M203 461q19 19 45 19t45 -19t19 -45q0 -12 -5 -24.5t-13 -20.5l-115 -115l115 -115q8 -9 12.5 -21t5.5 -24q0 -26 -19 -45t-45 -19t-45 19l-161 160q-9 8 -13.5 20t-4.5 25q0 12 5 24.5t13 20.5zM459 461q19 19 45 19t45 -19t19 -45q0 -12 -5 -24.5t-13 -20.5l-115 -115
l115 -115q8 -9 12.5 -21t5.5 -24q0 -26 -19 -45t-45 -19t-45 19l-161 160q-9 8 -13.5 20t-4.5 25q0 12 5 24.5t13 20.5z" />
    <glyph glyph-name="logicalnot" unicode="&#xac;" 
d="M88 256q-26 0 -45 19t-19 45t19 45t45 19h384q26 0 45 -19t19 -45v-128q0 -26 -19 -45t-45 -19t-45 19t-19 45v64h-320z" />
    <glyph glyph-name="uni00AD" unicode="&#xad;" horiz-adv-x="368" 
d="M88 256q-26 0 -45 19t-19 45t19 45t45 19h192q26 0 45 -19t19 -45t-19 -45t-45 -19h-192z" />
    <glyph glyph-name="registered" unicode="&#xae;" 
d="M24 384q0 53 20 99.5t55 81.5t81.5 55t99.5 20t99.5 -20t81.5 -55t55 -81.5t20 -99.5t-20 -99.5t-55 -81.5t-81.5 -55t-99.5 -20t-99.5 20t-81.5 55t-55 81.5t-20 99.5zM120 384q0 -33 12.5 -62t34.5 -51t51 -34.5t62 -12.5t62 12.5t51 34.5t34.5 51t12.5 62t-12.5 62
t-34.5 51t-51 34.5t-62 12.5t-62 -12.5t-51 -34.5t-34.5 -51t-12.5 -62zM296 384v-64q0 -20 -14 -34t-34 -14t-34 14t-14 34v64q0 40 28 68t68 28h48q20 0 34 -14t14 -34t-14 -34t-34 -14h-48z" />
    <glyph glyph-name="macron" unicode="&#xaf;" horiz-adv-x="368" 
d="M296 656q20 0 34 -14t14 -34t-14 -34t-34 -14h-224q-20 0 -34 14t-14 34t14 34t34 14h224z" />
    <glyph glyph-name="degree" unicode="&#xb0;" horiz-adv-x="336" 
d="M24 496q0 30 11.5 56t31 45.5t45.5 31t56 11.5t56 -11.5t45.5 -31t31 -45.5t11.5 -56t-11.5 -56t-31 -45.5t-45.5 -31t-56 -11.5t-56 11.5t-45.5 31t-31 45.5t-11.5 56zM120 496q0 -20 14 -34t34 -14t34 14t14 34t-14 34t-34 14t-34 -14t-14 -34z" />
    <glyph glyph-name="plusminus" unicode="&#xb1;" 
d="M344 464h128q26 0 45 -19t19 -45t-19 -45t-45 -19h-128v-112q0 -26 -19 -45t-45 -19t-45 19t-19 45v112h-128q-26 0 -45 19t-19 45t19 45t45 19h128v112q0 26 19 45t45 19t45 -19t19 -45v-112zM88 0q-26 0 -45 19t-19 45t19 45t45 19h384q26 0 45 -19t19 -45t-19 -45
t-45 -19h-384z" />
    <glyph glyph-name="twosuperior" unicode="&#xb2;" horiz-adv-x="400" 
d="M152 544q-14 0 -23 -9t-9 -23q0 -20 -14 -34t-34 -14t-34 14t-14 34q0 27 10 50t27.5 40.5t40.5 27.5t50 10h96q27 0 50 -10t40.5 -27.5t27.5 -40.5t10 -50t-10 -50t-27.5 -40.5t-40.5 -27.5t-50 -10h-48q-20 0 -36.5 -9t-27.5 -23h192q20 0 34 -14t14 -34t-14 -34
t-34 -14h-256q-20 0 -34 14t-14 34q0 36 14 68t38 56t56 38t68 14h48q14 0 23 9t9 23t-9 23t-23 9h-96z" />
    <glyph glyph-name="threesuperior" unicode="&#xb3;" horiz-adv-x="400" 
d="M152 256q-27 0 -50 10t-40.5 27.5t-27.5 40.5t-10 50q0 20 14 34t34 14t34 -14t14 -34q0 -14 9 -23t23 -9h96q14 0 23 9t9 23t-9 23t-23 9h-48q-20 0 -34 14t-14 34t14 34l46 46h-140q-20 0 -34 14t-14 34t14 34t34 14h256q20 0 34 -14t14 -34t-14 -34l-59 -59
q32 -15 52.5 -46t20.5 -69q0 -27 -10 -50t-27.5 -40.5t-40.5 -27.5t-50 -10h-96z" />
    <glyph glyph-name="acute" unicode="&#xb4;" horiz-adv-x="208" 
d="M106 558q-14 -14 -34 -14t-34 14t-14 34t14 34l64 64q14 14 34 14t34 -14t14 -34t-14 -34z" />
    <glyph glyph-name="mu" unicode="&#xb5;" horiz-adv-x="592" 
d="M552 64q0 -26 -19 -45t-45 -19q-20 0 -35.5 10.5t-23.5 27.5q-29 -18 -62.5 -28t-70.5 -10q-71 0 -128 34v-162q0 -26 -19 -45t-45 -19t-45 19t-19 45v576q0 26 19 45t45 19t45 -19t19 -45v-192q0 -27 10 -50t27.5 -40.5t40.5 -27.5t50 -10t50 10t40.5 27.5t27.5 40.5
t10 50v192q0 26 19 45t45 19t45 -19t19 -45v-384z" />
    <glyph glyph-name="paragraph" unicode="&#xb6;" horiz-adv-x="624" 
d="M600 64q0 -26 -19 -45t-45 -19t-45 19t-19 45v448h-64v-448q0 -26 -19 -45t-45 -19t-45 19t-19 45v128h-32q-47 0 -87.5 17.5t-71 48t-48 71t-17.5 87.5q0 46 17.5 87t48 71.5t71 48t87.5 17.5h288q26 0 45 -19t19 -45v-512zM248 512q-40 0 -68 -28t-28 -68t28 -68
t68 -28h32v192h-32z" />
    <glyph glyph-name="periodcentered" unicode="&#xb7;" horiz-adv-x="176" 
d="M16 320q0 30 21 51t51 21t51 -21t21 -51t-21 -51t-51 -21t-51 21t-21 51z" />
    <glyph glyph-name="cedilla" unicode="&#xb8;" horiz-adv-x="304" 
d="M102 -82q14 -14 34 -14t34 14t14 34t-14 34t-34 14t-34 14t-14 34t14 34t34 14q30 0 56 -11.5t45.5 -31t31 -45.5t11.5 -56t-11.5 -56t-31 -45.5t-45.5 -31t-56 -11.5t-56 11t-46 31q-14 14 -14 34t14 34t34 14t34 -14z" />
    <glyph glyph-name="onesuperior" unicode="&#xb9;" horiz-adv-x="240" 
d="M120 544h-48q-20 0 -34 14t-14 34t14 34t34 14h96q20 0 34 -14t14 -34v-288q0 -20 -14 -34t-34 -14t-34 14t-14 34v240z" />
    <glyph glyph-name="ordmasculine" unicode="&#xba;" horiz-adv-x="432" 
d="M216 640q40 0 75 -15t61 -41t41 -61t15 -75t-15 -75t-41 -61t-61 -41t-75 -15t-75 15t-61 41t-41 61t-15 75t15 75t41 61t61 41t75 15zM120 448q0 -40 28 -68t68 -28t68 28t28 68t-28 68t-68 28t-68 -28t-28 -68z" />
    <glyph glyph-name="guillemotright" unicode="&#xbb;" horiz-adv-x="592" 
d="M550 301q18 -17 18 -45q0 -12 -5 -24.5t-13 -20.5l-161 -160q-19 -19 -45 -19t-45 19t-19 45q0 12 5 24.5t13 20.5l115 115l-115 115q-9 8 -13.5 20t-4.5 25q0 26 19 45t45 19t45 -19zM294 301q9 -8 13 -20.5t5 -24.5q0 -12 -5 -24.5t-13 -20.5l-161 -160
q-19 -19 -45 -19t-45 19t-19 45q0 12 5 24.5t13 20.5l115 115l-115 115q-9 8 -13.5 20t-4.5 25q0 26 19 45t45 19t45 -19z" />
    <glyph glyph-name="onequarter" unicode="&#xbc;" horiz-adv-x="720" 
d="M138 14q-14 -14 -34 -14t-34 14t-14 34t14 34l544 544q14 14 34 14t34 -14t14 -34t-14 -34zM376 112q0 20 14 34l224 224q14 14 34 14t34 -14t14 -34v-288q0 -20 -14 -34t-34 -14t-34 14t-14 34v16h-176q-20 0 -34 14t-14 34zM120 544h-48q-20 0 -34 14t-14 34t14 34
t34 14h96q20 0 34 -14t14 -34v-288q0 -20 -14 -34t-34 -14t-34 14t-14 34v240zM600 160v60l-60 -60h60z" />
    <glyph glyph-name="onehalf" unicode="&#xbd;" horiz-adv-x="848" 
d="M551 208q-20 0 -34 14t-14 34q0 27 10 50t27.5 40.5t40.5 27.5t50 10h65q27 0 50 -10t40.5 -27.5t27.5 -40.5t10 -50t-10 -50t-27.5 -40.5t-40.5 -27.5t-50 -10h-16q-20 0 -36.5 -9t-27.5 -23h160q20 0 34 -14t14 -34t-14 -34t-34 -14h-224q-20 0 -34 14t-14 34
q0 36 14 68t38 56t56 38t68 14h16q14 0 23 9t9 23t-9 23t-23 9h-65q-14 0 -23 -9t-9 -23q0 -20 -14 -34t-34 -14zM138 14q-14 -14 -34 -14t-34 14t-14 34t14 34l544 544q14 14 34 14t34 -14t14 -34t-14 -34zM120 544h-48q-20 0 -34 14t-14 34t14 34t34 14h96q20 0 34 -14
t14 -34v-288q0 -20 -14 -34t-34 -14t-34 14t-14 34v240z" />
    <glyph glyph-name="threequarters" unicode="&#xbe;" horiz-adv-x="816" 
d="M234 14q-14 -14 -34 -14t-34 14t-14 34t14 34l544 544q14 14 34 14t34 -14t14 -34t-14 -34zM472 112q0 20 14 34l224 224q14 14 34 14t34 -14t14 -34v-288q0 -20 -14 -34t-34 -14t-34 14t-14 34v16h-176q-20 0 -34 14t-14 34zM152 256q-27 0 -50 10t-40.5 27.5
t-27.5 40.5t-10 50q0 20 14 34t34 14t34 -14t14 -34q0 -14 9 -23t23 -9h64q14 0 23 9t9 23t-9 23t-23 9h-48q-20 0 -34 14t-14 34t14 34l46 46h-108q-20 0 -34 14t-14 34t14 34t34 14h224q20 0 34 -14t14 -34t-14 -34l-59 -59q32 -15 52.5 -46t20.5 -69q0 -27 -10 -50
t-27.5 -40.5t-40.5 -27.5t-50 -10h-64zM696 160v60l-60 -60h60z" />
    <glyph glyph-name="questiondown" unicode="&#xbf;" horiz-adv-x="544" 
d="M536 192q0 -53 -20 -99.5t-55 -81.5t-81.5 -55t-99.5 -20t-99.5 20t-81.5 55t-55 81.5t-20 99.5t20 99.5t55 81.5t81.5 55t99.5 20q26 0 45 -19t19 -45t-19 -45t-45 -19q-27 0 -50 -10t-40.5 -27.5t-27.5 -40.5t-10 -50t10 -50t27.5 -40.5t40.5 -27.5t50 -10t50 10
t40.5 27.5t27.5 40.5t10 50q0 26 19 45t45 19t45 -19t19 -45zM208 568q0 30 21 51t51 21t51 -21t21 -51t-21 -51t-51 -21t-51 21t-21 51z" />
    <glyph glyph-name="Agrave" unicode="&#xc0;" horiz-adv-x="656" 
d="M616 64q0 -26 -19 -45t-45 -19t-45 19t-19 45v128h-320v-128q0 -26 -19 -45t-45 -19t-45 19t-19 45v288q0 60 22.5 112.5t61.5 91.5t91.5 61.5t112.5 22.5t112.5 -22.5t91.5 -61.5t61.5 -91.5t22.5 -112.5v-288zM168 320h320v32q0 33 -12.5 62t-34.5 51t-51 34.5
t-62 12.5t-62 -12.5t-51 -34.5t-34.5 -51t-12.5 -62v-32zM246 750q-14 14 -14 34t14 34t34 14t34 -14l64 -64q14 -14 14 -34t-14 -34t-34 -14t-34 14z" />
    <glyph glyph-name="Aacute" unicode="&#xc1;" horiz-adv-x="656" 
d="M616 64q0 -26 -19 -45t-45 -19t-45 19t-19 45v128h-320v-128q0 -26 -19 -45t-45 -19t-45 19t-19 45v288q0 60 22.5 112.5t61.5 91.5t91.5 61.5t112.5 22.5t112.5 -22.5t91.5 -61.5t61.5 -91.5t22.5 -112.5v-288zM168 320h320v32q0 33 -12.5 62t-34.5 51t-51 34.5
t-62 12.5t-62 -12.5t-51 -34.5t-34.5 -51t-12.5 -62v-32zM346 686q-14 -14 -34 -14t-34 14t-14 34t14 34l64 64q14 14 34 14t34 -14t14 -34t-14 -34z" />
    <glyph glyph-name="Acircumflex" unicode="&#xc2;" horiz-adv-x="656" 
d="M616 64q0 -26 -19 -45t-45 -19t-45 19t-19 45v128h-320v-128q0 -26 -19 -45t-45 -19t-45 19t-19 45v288q0 60 22.5 112.5t61.5 91.5t91.5 61.5t112.5 22.5t112.5 -22.5t91.5 -61.5t61.5 -91.5t22.5 -112.5v-288zM168 320h320v32q0 33 -12.5 62t-34.5 51t-51 34.5
t-62 12.5t-62 -12.5t-51 -34.5t-34.5 -51t-12.5 -62v-32zM298 686q-14 -14 -34 -14t-34 14t-14 34t14 34l64 64q14 14 34 14t34 -14l64 -64q14 -14 14 -34t-14 -34t-34 -14t-34 14l-30 30z" />
    <glyph glyph-name="Atilde" unicode="&#xc3;" horiz-adv-x="656" 
d="M616 64q0 -26 -19 -45t-45 -19t-45 19t-19 45v128h-320v-128q0 -26 -19 -45t-45 -19t-45 19t-19 45v288q0 60 22.5 112.5t61.5 91.5t91.5 61.5t112.5 22.5t112.5 -22.5t91.5 -61.5t61.5 -91.5t22.5 -112.5v-288zM168 320h320v32q0 33 -12.5 62t-34.5 51t-51 34.5
t-62 12.5t-62 -12.5t-51 -34.5t-34.5 -51t-12.5 -62v-32zM286 704q-13 0 -20 -4.5t-16 -13.5q-14 -14 -34 -14t-34 14t-14 34t14 34q23 23 48 34.5t56 11.5q13 0 25 -5t22.5 -11t19.5 -11t17 -5q13 0 20 4.5t16 13.5q14 14 34 14t34 -14t14 -34t-14 -34q-23 -23 -48 -34.5
t-56 -11.5q-13 0 -25 5t-22.5 11t-19.5 11t-17 5z" />
    <glyph glyph-name="Adieresis" unicode="&#xc4;" horiz-adv-x="656" 
d="M616 64q0 -26 -19 -45t-45 -19t-45 19t-19 45v128h-320v-128q0 -26 -19 -45t-45 -19t-45 19t-19 45v288q0 60 22.5 112.5t61.5 91.5t91.5 61.5t112.5 22.5t112.5 -22.5t91.5 -61.5t61.5 -91.5t22.5 -112.5v-288zM168 320h320v32q0 33 -12.5 62t-34.5 51t-51 34.5
t-62 12.5t-62 -12.5t-51 -34.5t-34.5 -51t-12.5 -62v-32zM184 736q0 26 19 45t45 19t45 -19t19 -45t-19 -45t-45 -19t-45 19t-19 45zM344 736q0 26 19 45t45 19t45 -19t19 -45t-19 -45t-45 -19t-45 19t-19 45z" />
    <glyph glyph-name="Aring" unicode="&#xc5;" horiz-adv-x="656" 
d="M188 692q0 29 11 54.5t30 44.5t44.5 30t54.5 11t54.5 -11t44.5 -30t30 -44.5t11 -54.5q0 -21 -6 -40.5t-17 -36.5q38 -17 69.5 -43.5t54 -61t35 -74.5t12.5 -84v-288q0 -26 -19 -45t-45 -19t-45 19t-19 45v128h-320v-128q0 -26 -19 -45t-45 -19t-45 19t-19 45v288
q0 44 12.5 84t35 74.5t54 61t69.5 43.5q-23 34 -23 77zM168 320h320v32q0 33 -12.5 62t-34.5 51t-51 34.5t-62 12.5t-62 -12.5t-51 -34.5t-34.5 -51t-12.5 -62v-32zM276 692q0 -22 15 -37t37 -15t37 15t15 37t-15 37t-37 15t-37 -15t-15 -37z" />
    <glyph glyph-name="AE" unicode="&#xc6;" horiz-adv-x="888" 
d="M808 640q26 0 45 -19t19 -45t-19 -45t-45 -19h-272v-128h240q26 0 45 -19t19 -45t-19 -45t-45 -19h-240v-128h272q26 0 45 -19t19 -45t-19 -45t-45 -19h-336q-26 0 -45 19t-19 45v128h-240v-128q0 -26 -19 -45t-45 -19t-45 19t-19 45v288q0 60 22.5 112.5t61.5 91.5
t91.5 61.5t112.5 22.5h480zM408 320v192h-80q-33 0 -62 -12.5t-51 -34.5t-34.5 -51t-12.5 -62v-32h240z" />
    <glyph glyph-name="Ccedilla" unicode="&#xc7;" horiz-adv-x="584" 
d="M336 0q-66 0 -124.5 25t-102 68.5t-68.5 102t-25 124.5t25 124.5t68.5 102t102 68.5t124.5 25q62 0 120 -23.5t106 -70.5q19 -19 19 -45t-19 -45t-45 -19q-27 0 -45 19q-29 28 -64 42t-72 14q-40 0 -75 -15t-61 -41t-41 -61t-15 -75t15 -75t41 -61t61 -41t75 -15
q37 0 72 13.5t64 42.5q19 19 45 19t45 -19t19 -45t-19 -45q-47 -47 -102 -69q20 -34 20 -73q0 -30 -11.5 -56t-31 -45.5t-45.5 -31t-56 -11.5t-56 11t-46 31q-14 14 -14 34t14 34t34 14t34 -14t34 -14t34 14t14 34t-14 34t-34 14z" />
    <glyph glyph-name="Egrave" unicode="&#xc8;" horiz-adv-x="568" 
d="M168 128h320q26 0 45 -19t19 -45t-19 -45t-45 -19h-384q-26 0 -45 19t-19 45v512q0 26 19 45t45 19h384q26 0 45 -19t19 -45t-19 -45t-45 -19h-320v-128h288q26 0 45 -19t19 -45t-19 -45t-45 -19h-288v-128zM214 750q-14 14 -14 34t14 34t34 14t34 -14l64 -64
q14 -14 14 -34t-14 -34t-34 -14t-34 14z" />
    <glyph glyph-name="Eacute" unicode="&#xc9;" horiz-adv-x="568" 
d="M168 128h320q26 0 45 -19t19 -45t-19 -45t-45 -19h-384q-26 0 -45 19t-19 45v512q0 26 19 45t45 19h384q26 0 45 -19t19 -45t-19 -45t-45 -19h-320v-128h288q26 0 45 -19t19 -45t-19 -45t-45 -19h-288v-128zM314 686q-14 -14 -34 -14t-34 14t-14 34t14 34l64 64
q14 14 34 14t34 -14t14 -34t-14 -34z" />
    <glyph glyph-name="Ecircumflex" unicode="&#xca;" horiz-adv-x="568" 
d="M168 128h320q26 0 45 -19t19 -45t-19 -45t-45 -19h-384q-26 0 -45 19t-19 45v512q0 26 19 45t45 19h384q26 0 45 -19t19 -45t-19 -45t-45 -19h-320v-128h288q26 0 45 -19t19 -45t-19 -45t-45 -19h-288v-128zM266 686q-14 -14 -34 -14t-34 14t-14 34t14 34l64 64
q14 14 34 14t34 -14l64 -64q14 -14 14 -34t-14 -34t-34 -14t-34 14l-30 30z" />
    <glyph glyph-name="Edieresis" unicode="&#xcb;" horiz-adv-x="568" 
d="M168 128h320q26 0 45 -19t19 -45t-19 -45t-45 -19h-384q-26 0 -45 19t-19 45v512q0 26 19 45t45 19h384q26 0 45 -19t19 -45t-19 -45t-45 -19h-320v-128h288q26 0 45 -19t19 -45t-19 -45t-45 -19h-288v-128zM152 736q0 26 19 45t45 19t45 -19t19 -45t-19 -45t-45 -19
t-45 19t-19 45zM312 736q0 26 19 45t45 19t45 -19t19 -45t-19 -45t-45 -19t-45 19t-19 45z" />
    <glyph glyph-name="Igrave" unicode="&#xcc;" horiz-adv-x="400" 
d="M136 512h-64q-26 0 -45 19t-19 45t19 45t45 19h256q26 0 45 -19t19 -45t-19 -45t-45 -19h-64v-384h64q26 0 45 -19t19 -45t-19 -45t-45 -19h-256q-26 0 -45 19t-19 45t19 45t45 19h64v384zM118 750q-14 14 -14 34t14 34t34 14t34 -14l64 -64q14 -14 14 -34t-14 -34
t-34 -14t-34 14z" />
    <glyph glyph-name="Iacute" unicode="&#xcd;" horiz-adv-x="400" 
d="M136 512h-64q-26 0 -45 19t-19 45t19 45t45 19h256q26 0 45 -19t19 -45t-19 -45t-45 -19h-64v-384h64q26 0 45 -19t19 -45t-19 -45t-45 -19h-256q-26 0 -45 19t-19 45t19 45t45 19h64v384zM218 686q-14 -14 -34 -14t-34 14t-14 34t14 34l64 64q14 14 34 14t34 -14t14 -34
t-14 -34z" />
    <glyph glyph-name="Icircumflex" unicode="&#xce;" horiz-adv-x="400" 
d="M136 512h-64q-26 0 -45 19t-19 45t19 45t45 19h256q26 0 45 -19t19 -45t-19 -45t-45 -19h-64v-384h64q26 0 45 -19t19 -45t-19 -45t-45 -19h-256q-26 0 -45 19t-19 45t19 45t45 19h64v384zM170 686q-14 -14 -34 -14t-34 14t-14 34t14 34l64 64q14 14 34 14t34 -14l64 -64
q14 -14 14 -34t-14 -34t-34 -14t-34 14l-30 30z" />
    <glyph glyph-name="Idieresis" unicode="&#xcf;" horiz-adv-x="400" 
d="M136 512h-64q-26 0 -45 19t-19 45t19 45t45 19h256q26 0 45 -19t19 -45t-19 -45t-45 -19h-64v-384h64q26 0 45 -19t19 -45t-19 -45t-45 -19h-256q-26 0 -45 19t-19 45t19 45t45 19h64v384zM56 736q0 26 19 45t45 19t45 -19t19 -45t-19 -45t-45 -19t-45 19t-19 45z
M216 736q0 26 19 45t45 19t45 -19t19 -45t-19 -45t-45 -19t-45 19t-19 45z" />
    <glyph glyph-name="Eth" unicode="&#xd0;" horiz-adv-x="680" 
d="M152 0q-26 0 -45 19t-19 45v192h-16q-26 0 -45 19t-19 45t19 45t45 19h16v192q0 26 19 45t45 19h192q66 0 124.5 -25t102 -68.5t68.5 -102t25 -124.5t-25 -124.5t-68.5 -102t-102 -68.5t-124.5 -25h-192zM216 256v-128h128q40 0 75 15t61 41t41 61t15 75t-15 75t-41 61
t-61 41t-75 15h-128v-128h48q26 0 45 -19t19 -45t-19 -45t-45 -19h-48z" />
    <glyph glyph-name="Ntilde" unicode="&#xd1;" horiz-adv-x="656" 
d="M616 64q0 -26 -19 -45t-45 -19t-45 19t-19 45v288q0 33 -12.5 62t-34.5 51t-51 34.5t-62 12.5t-62 -12.5t-51 -34.5t-34.5 -51t-12.5 -62v-288q0 -26 -19 -45t-45 -19t-45 19t-19 45v288q0 60 22.5 112.5t61.5 91.5t91.5 61.5t112.5 22.5t112.5 -22.5t91.5 -61.5
t61.5 -91.5t22.5 -112.5v-288zM286 704q-13 0 -20 -4.5t-16 -13.5q-14 -14 -34 -14t-34 14t-14 34t14 34q23 23 48 34.5t56 11.5q13 0 25 -5t22.5 -11t19.5 -11t17 -5q13 0 20 4.5t16 13.5q14 14 34 14t34 -14t14 -34t-14 -34q-23 -23 -48 -34.5t-56 -11.5q-13 0 -25 5
t-22.5 11t-19.5 11t-17 5z" />
    <glyph glyph-name="Ograve" unicode="&#xd2;" horiz-adv-x="672" 
d="M16 320q0 66 25 124.5t68.5 102t102 68.5t124.5 25t124.5 -25t102 -68.5t68.5 -102t25 -124.5t-25 -124.5t-68.5 -102t-102 -68.5t-124.5 -25t-124.5 25t-102 68.5t-68.5 102t-25 124.5zM144 320q0 -40 15 -75t41 -61t61 -41t75 -15t75 15t61 41t41 61t15 75t-15 75
t-41 61t-61 41t-75 15t-75 -15t-61 -41t-41 -61t-15 -75zM254 750q-14 14 -14 34t14 34t34 14t34 -14l64 -64q14 -14 14 -34t-14 -34t-34 -14t-34 14z" />
    <glyph glyph-name="Oacute" unicode="&#xd3;" horiz-adv-x="672" 
d="M16 320q0 66 25 124.5t68.5 102t102 68.5t124.5 25t124.5 -25t102 -68.5t68.5 -102t25 -124.5t-25 -124.5t-68.5 -102t-102 -68.5t-124.5 -25t-124.5 25t-102 68.5t-68.5 102t-25 124.5zM144 320q0 -40 15 -75t41 -61t61 -41t75 -15t75 15t61 41t41 61t15 75t-15 75
t-41 61t-61 41t-75 15t-75 -15t-61 -41t-41 -61t-15 -75zM354 686q-14 -14 -34 -14t-34 14t-14 34t14 34l64 64q14 14 34 14t34 -14t14 -34t-14 -34z" />
    <glyph glyph-name="Ocircumflex" unicode="&#xd4;" horiz-adv-x="672" 
d="M16 320q0 66 25 124.5t68.5 102t102 68.5t124.5 25t124.5 -25t102 -68.5t68.5 -102t25 -124.5t-25 -124.5t-68.5 -102t-102 -68.5t-124.5 -25t-124.5 25t-102 68.5t-68.5 102t-25 124.5zM144 320q0 -40 15 -75t41 -61t61 -41t75 -15t75 15t61 41t41 61t15 75t-15 75
t-41 61t-61 41t-75 15t-75 -15t-61 -41t-41 -61t-15 -75zM306 686q-14 -14 -34 -14t-34 14t-14 34t14 34l64 64q14 14 34 14t34 -14l64 -64q14 -14 14 -34t-14 -34t-34 -14t-34 14l-30 30z" />
    <glyph glyph-name="Otilde" unicode="&#xd5;" horiz-adv-x="672" 
d="M16 320q0 66 25 124.5t68.5 102t102 68.5t124.5 25t124.5 -25t102 -68.5t68.5 -102t25 -124.5t-25 -124.5t-68.5 -102t-102 -68.5t-124.5 -25t-124.5 25t-102 68.5t-68.5 102t-25 124.5zM144 320q0 -40 15 -75t41 -61t61 -41t75 -15t75 15t61 41t41 61t15 75t-15 75
t-41 61t-61 41t-75 15t-75 -15t-61 -41t-41 -61t-15 -75zM294 704q-13 0 -20 -4.5t-16 -13.5q-14 -14 -34 -14t-34 14t-14 34t14 34q23 23 48 34.5t56 11.5q13 0 25 -5t22.5 -11t19.5 -11t17 -5q13 0 20 4.5t16 13.5q14 14 34 14t34 -14t14 -34t-14 -34q-23 -23 -48 -34.5
t-56 -11.5q-13 0 -25 5t-22.5 11t-19.5 11t-17 5z" />
    <glyph glyph-name="Odieresis" unicode="&#xd6;" horiz-adv-x="672" 
d="M16 320q0 66 25 124.5t68.5 102t102 68.5t124.5 25t124.5 -25t102 -68.5t68.5 -102t25 -124.5t-25 -124.5t-68.5 -102t-102 -68.5t-124.5 -25t-124.5 25t-102 68.5t-68.5 102t-25 124.5zM144 320q0 -40 15 -75t41 -61t61 -41t75 -15t75 15t61 41t41 61t15 75t-15 75
t-41 61t-61 41t-75 15t-75 -15t-61 -41t-41 -61t-15 -75zM192 736q0 26 19 45t45 19t45 -19t19 -45t-19 -45t-45 -19t-45 19t-19 45zM352 736q0 26 19 45t45 19t45 -19t19 -45t-19 -45t-45 -19t-45 19t-19 45z" />
    <glyph glyph-name="multiply" unicode="&#xd7;" 
d="M43 467q-19 19 -19 45t19 45t45 19t45 -19l147 -147l147 147q19 19 45 19t45 -19t19 -45t-19 -45l-147 -147l147 -147q19 -21 19 -45q0 -26 -19 -45t-45 -19t-45 19l-147 147l-147 -147q-19 -19 -45 -19t-45 19t-19 45t19 45l147 147z" />
    <glyph glyph-name="Oslash" unicode="&#xd8;" horiz-adv-x="688" 
d="M81 137q-27 39 -42 85.5t-15 97.5q0 66 25 124.5t68.5 102t102 68.5t124.5 25q51 0 97.5 -15t85.5 -42l41 41q16 16 40 16q23 0 39.5 -16.5t16.5 -39.5q0 -24 -16 -40l-41 -41q27 -39 42 -85.5t15 -97.5q0 -66 -25 -124.5t-68.5 -102t-102 -68.5t-124.5 -25
q-51 0 -97.5 15t-85.5 42l-41 -41q-16 -16 -40 -16q-23 0 -39.5 16.5t-16.5 39.5q0 24 16 40zM152 320q0 -51 21 -91l260 260q-40 23 -89 23q-40 0 -75 -15t-61 -41t-41 -61t-15 -75zM536 320q0 49 -23 89l-260 -260q40 -21 91 -21q40 0 75 15t61 41t41 61t15 75z" />
    <glyph glyph-name="Ugrave" unicode="&#xd9;" horiz-adv-x="624" 
d="M600 288q0 -60 -22.5 -112.5t-61.5 -91.5t-91.5 -61.5t-112.5 -22.5t-112.5 22.5t-91.5 61.5t-61.5 91.5t-22.5 112.5v288q0 26 19 45t45 19t45 -19t19 -45v-288q0 -33 12.5 -62t34.5 -51t51 -34.5t62 -12.5t62 12.5t51 34.5t34.5 51t12.5 62v288q0 26 19 45t45 19
t45 -19t19 -45v-288zM230 750q-14 14 -14 34t14 34t34 14t34 -14l64 -64q14 -14 14 -34t-14 -34t-34 -14t-34 14z" />
    <glyph glyph-name="Uacute" unicode="&#xda;" horiz-adv-x="624" 
d="M600 288q0 -60 -22.5 -112.5t-61.5 -91.5t-91.5 -61.5t-112.5 -22.5t-112.5 22.5t-91.5 61.5t-61.5 91.5t-22.5 112.5v288q0 26 19 45t45 19t45 -19t19 -45v-288q0 -33 12.5 -62t34.5 -51t51 -34.5t62 -12.5t62 12.5t51 34.5t34.5 51t12.5 62v288q0 26 19 45t45 19
t45 -19t19 -45v-288zM330 686q-14 -14 -34 -14t-34 14t-14 34t14 34l64 64q14 14 34 14t34 -14t14 -34t-14 -34z" />
    <glyph glyph-name="Ucircumflex" unicode="&#xdb;" horiz-adv-x="624" 
d="M600 288q0 -60 -22.5 -112.5t-61.5 -91.5t-91.5 -61.5t-112.5 -22.5t-112.5 22.5t-91.5 61.5t-61.5 91.5t-22.5 112.5v288q0 26 19 45t45 19t45 -19t19 -45v-288q0 -33 12.5 -62t34.5 -51t51 -34.5t62 -12.5t62 12.5t51 34.5t34.5 51t12.5 62v288q0 26 19 45t45 19
t45 -19t19 -45v-288zM282 686q-14 -14 -34 -14t-34 14t-14 34t14 34l64 64q14 14 34 14t34 -14l64 -64q14 -14 14 -34t-14 -34t-34 -14t-34 14l-30 30z" />
    <glyph glyph-name="Udieresis" unicode="&#xdc;" horiz-adv-x="624" 
d="M600 288q0 -60 -22.5 -112.5t-61.5 -91.5t-91.5 -61.5t-112.5 -22.5t-112.5 22.5t-91.5 61.5t-61.5 91.5t-22.5 112.5v288q0 26 19 45t45 19t45 -19t19 -45v-288q0 -33 12.5 -62t34.5 -51t51 -34.5t62 -12.5t62 12.5t51 34.5t34.5 51t12.5 62v288q0 26 19 45t45 19
t45 -19t19 -45v-288zM168 736q0 26 19 45t45 19t45 -19t19 -45t-19 -45t-45 -19t-45 19t-19 45zM328 736q0 26 19 45t45 19t45 -19t19 -45t-19 -45t-45 -19t-45 19t-19 45z" />
    <glyph glyph-name="Yacute" unicode="&#xdd;" horiz-adv-x="624" 
d="M600 464q0 -51 -17 -97.5t-47 -83.5t-71 -63t-89 -37v-119q0 -26 -19 -45t-45 -19t-45 19t-19 45v119q-48 11 -89 37t-71 63t-47 83.5t-17 97.5v112q0 26 19 45t45 19t45 -19t19 -45v-112q0 -33 12.5 -62t34.5 -51t51 -34.5t62 -12.5t62 12.5t51 34.5t34.5 51t12.5 62
v112q0 26 19 45t45 19t45 -19t19 -45v-112zM330 686q-14 -14 -34 -14t-34 14t-14 34t14 34l64 64q14 14 34 14t34 -14t14 -34t-14 -34z" />
    <glyph glyph-name="Thorn" unicode="&#xde;" horiz-adv-x="552" 
d="M312 224q40 0 68 28t28 68t-28 68t-68 28h-144v-192h144zM168 96v-32q0 -26 -19 -45t-45 -19t-45 19t-19 45v512q0 26 19 45t45 19t45 -19t19 -45v-32h144q46 0 87 -17.5t71.5 -48t48 -71.5t17.5 -87q0 -47 -17.5 -87.5t-48 -71t-71.5 -48t-87 -17.5h-144z" />
    <glyph glyph-name="germandbls" unicode="&#xdf;" horiz-adv-x="576" 
d="M408 128q14 0 23 9t9 23t-9 23t-23 9h-32q-33 0 -62 12.5t-51 34.5t-34.5 51t-12.5 62t12.5 62t34.5 51t51 34.5t62 12.5q14 0 23 9t9 23t-9 23t-23 9h-80q-27 0 -50 -10t-40.5 -27.5t-27.5 -40.5t-10 -50v-384q0 -26 -19 -45t-45 -19t-45 19t-19 45v384q0 53 20 99.5
t55 81.5t81.5 55t99.5 20h80q33 0 62 -12.5t51 -34.5t34.5 -51t12.5 -62t-12.5 -62t-34.5 -51t-51 -34.5t-62 -12.5q-14 0 -23 -9t-9 -23t9 -23t23 -9h32q33 0 62 -12.5t51 -34.5t34.5 -51t12.5 -62t-12.5 -62t-34.5 -51t-51 -34.5t-62 -12.5h-128q-26 0 -45 19t-19 45
t19 45t45 19h128z" />
    <glyph glyph-name="agrave" unicode="&#xe0;" horiz-adv-x="552" 
d="M16 256q0 53 20 99.5t55 81.5t81.5 55t99.5 20t99.5 -20t81.5 -55t55 -81.5t20 -99.5v-192q0 -26 -19 -45t-45 -19q-20 0 -35.5 10.5t-23.5 27.5q-29 -18 -62.5 -28t-70.5 -10q-53 0 -99.5 20t-81.5 55t-55 81.5t-20 99.5zM144 256q0 -27 10 -50t27.5 -40.5t40.5 -27.5
t50 -10t50 10t40.5 27.5t27.5 40.5t10 50t-10 50t-27.5 40.5t-40.5 27.5t-50 10t-50 -10t-40.5 -27.5t-27.5 -40.5t-10 -50zM190 622q-14 14 -14 34t14 34t34 14t34 -14l64 -64q14 -14 14 -34t-14 -34t-34 -14t-34 14z" />
    <glyph glyph-name="aacute" unicode="&#xe1;" horiz-adv-x="552" 
d="M16 256q0 53 20 99.5t55 81.5t81.5 55t99.5 20t99.5 -20t81.5 -55t55 -81.5t20 -99.5v-192q0 -26 -19 -45t-45 -19q-20 0 -35.5 10.5t-23.5 27.5q-29 -18 -62.5 -28t-70.5 -10q-53 0 -99.5 20t-81.5 55t-55 81.5t-20 99.5zM144 256q0 -27 10 -50t27.5 -40.5t40.5 -27.5
t50 -10t50 10t40.5 27.5t27.5 40.5t10 50t-10 50t-27.5 40.5t-40.5 27.5t-50 10t-50 -10t-40.5 -27.5t-27.5 -40.5t-10 -50zM290 558q-14 -14 -34 -14t-34 14t-14 34t14 34l64 64q14 14 34 14t34 -14t14 -34t-14 -34z" />
    <glyph glyph-name="acircumflex" unicode="&#xe2;" horiz-adv-x="552" 
d="M16 256q0 53 20 99.5t55 81.5t81.5 55t99.5 20t99.5 -20t81.5 -55t55 -81.5t20 -99.5v-192q0 -26 -19 -45t-45 -19q-20 0 -35.5 10.5t-23.5 27.5q-29 -18 -62.5 -28t-70.5 -10q-53 0 -99.5 20t-81.5 55t-55 81.5t-20 99.5zM144 256q0 -27 10 -50t27.5 -40.5t40.5 -27.5
t50 -10t50 10t40.5 27.5t27.5 40.5t10 50t-10 50t-27.5 40.5t-40.5 27.5t-50 10t-50 -10t-40.5 -27.5t-27.5 -40.5t-10 -50zM242 558q-14 -14 -34 -14t-34 14t-14 34t14 34l64 64q14 14 34 14t34 -14l64 -64q14 -14 14 -34t-14 -34t-34 -14t-34 14l-30 30z" />
    <glyph glyph-name="atilde" unicode="&#xe3;" horiz-adv-x="552" 
d="M16 256q0 53 20 99.5t55 81.5t81.5 55t99.5 20t99.5 -20t81.5 -55t55 -81.5t20 -99.5v-192q0 -26 -19 -45t-45 -19q-20 0 -35.5 10.5t-23.5 27.5q-29 -18 -62.5 -28t-70.5 -10q-53 0 -99.5 20t-81.5 55t-55 81.5t-20 99.5zM144 256q0 -27 10 -50t27.5 -40.5t40.5 -27.5
t50 -10t50 10t40.5 27.5t27.5 40.5t10 50t-10 50t-27.5 40.5t-40.5 27.5t-50 10t-50 -10t-40.5 -27.5t-27.5 -40.5t-10 -50zM230 576q-13 0 -20 -4.5t-16 -13.5q-14 -14 -34 -14t-34 14t-14 34t14 34q23 23 48 34.5t56 11.5q13 0 25 -5t22.5 -11t19.5 -11t17 -5q13 0 20 4.5
t16 13.5q14 14 34 14t34 -14t14 -34t-14 -34q-23 -23 -48 -34.5t-56 -11.5q-13 0 -25 5t-22.5 11t-19.5 11t-17 5z" />
    <glyph glyph-name="adieresis" unicode="&#xe4;" horiz-adv-x="552" 
d="M16 256q0 53 20 99.5t55 81.5t81.5 55t99.5 20t99.5 -20t81.5 -55t55 -81.5t20 -99.5v-192q0 -26 -19 -45t-45 -19q-20 0 -35.5 10.5t-23.5 27.5q-29 -18 -62.5 -28t-70.5 -10q-53 0 -99.5 20t-81.5 55t-55 81.5t-20 99.5zM144 256q0 -27 10 -50t27.5 -40.5t40.5 -27.5
t50 -10t50 10t40.5 27.5t27.5 40.5t10 50t-10 50t-27.5 40.5t-40.5 27.5t-50 10t-50 -10t-40.5 -27.5t-27.5 -40.5t-10 -50zM128 608q0 26 19 45t45 19t45 -19t19 -45t-19 -45t-45 -19t-45 19t-19 45zM288 608q0 26 19 45t45 19t45 -19t19 -45t-19 -45t-45 -19t-45 19
t-19 45z" />
    <glyph glyph-name="aring" unicode="&#xe5;" horiz-adv-x="552" 
d="M132 564q0 29 11 54.5t30 44.5t44.5 30t54.5 11t54.5 -11t44.5 -30t30 -44.5t11 -54.5q0 -44 -25 -80q63 -32 102 -92.5t39 -135.5v-192q0 -26 -19 -45t-45 -19q-20 0 -35.5 10.5t-23.5 27.5q-29 -18 -62.5 -28t-70.5 -10q-53 0 -99.5 20t-81.5 55t-55 81.5t-20 99.5
q0 75 39 135.5t102 92.5q-25 36 -25 80zM144 256q0 -27 10 -50t27.5 -40.5t40.5 -27.5t50 -10t50 10t40.5 27.5t27.5 40.5t10 50t-10 50t-27.5 40.5t-40.5 27.5t-50 10t-50 -10t-40.5 -27.5t-27.5 -40.5t-10 -50zM220 564q0 -22 15 -37t37 -15t37 15t15 37t-15 37t-37 15
t-37 -15t-15 -37z" />
    <glyph glyph-name="ae" unicode="&#xe6;" horiz-adv-x="928" 
d="M656 0q-37 0 -71 10t-63 28q-8 -17 -23 -27.5t-35 -10.5t-35.5 10.5t-23.5 27.5q-29 -18 -62.5 -28t-70.5 -10q-53 0 -99.5 20t-81.5 55t-55 81.5t-20 99.5t20 99.5t55 81.5t81.5 55t99.5 20q57 0 107 -23.5t85 -63.5q35 40 84.5 63.5t107.5 23.5q53 0 99.5 -20t81.5 -55
t55 -81.5t20 -99.5q0 -26 -19 -45t-45 -19h-303q17 -29 46 -46.5t65 -17.5h32q26 0 45 -19t19 -45t-19 -45t-45 -19h-32zM144 256q0 -27 10 -50t27.5 -40.5t40.5 -27.5t50 -10t50 10t40.5 27.5t27.5 40.5t10 50t-10 50t-27.5 40.5t-40.5 27.5t-50 10t-50 -10t-40.5 -27.5
t-27.5 -40.5t-10 -50zM656 384q-36 0 -65 -17.5t-46 -46.5h222q-17 29 -46.5 46.5t-64.5 17.5z" />
    <glyph glyph-name="ccedilla" unicode="&#xe7;" horiz-adv-x="488" 
d="M272 0q-53 0 -99.5 20t-81.5 55t-55 81.5t-20 99.5t20 99.5t55 81.5t81.5 55t99.5 20q49 0 96 -18.5t85 -56.5q19 -19 19 -45t-19 -45t-45 -19q-27 0 -45 19q-20 19 -43 28t-48 9q-27 0 -50 -10t-40.5 -27.5t-27.5 -40.5t-10 -50t10 -50t27.5 -40.5t40.5 -27.5t50 -10
q25 0 48 9t43 28q19 19 45 19t45 -19t19 -45t-19 -45q-14 -14 -29 -25.5t-31 -19.5q11 -17 17 -36.5t6 -41.5q0 -30 -11.5 -56t-31 -45.5t-45.5 -31t-56 -11.5t-56 11t-46 31q-14 14 -14 34t14 34t34 14t34 -14t34 -14t34 14t14 34t-14 34t-34 14z" />
    <glyph glyph-name="egrave" unicode="&#xe8;" horiz-adv-x="544" 
d="M272 0q-53 0 -99.5 20t-81.5 55t-55 81.5t-20 99.5t20 99.5t55 81.5t81.5 55t99.5 20t99.5 -20t81.5 -55t55 -81.5t20 -99.5q0 -26 -19 -45t-45 -19h-303q17 -29 46 -46.5t65 -17.5h32q26 0 45 -19t19 -45t-19 -45t-45 -19h-32zM272 384q-36 0 -65 -17.5t-46 -46.5h222
q-17 29 -46.5 46.5t-64.5 17.5zM190 622q-14 14 -14 34t14 34t34 14t34 -14l64 -64q14 -14 14 -34t-14 -34t-34 -14t-34 14z" />
    <glyph glyph-name="eacute" unicode="&#xe9;" horiz-adv-x="544" 
d="M272 0q-53 0 -99.5 20t-81.5 55t-55 81.5t-20 99.5t20 99.5t55 81.5t81.5 55t99.5 20t99.5 -20t81.5 -55t55 -81.5t20 -99.5q0 -26 -19 -45t-45 -19h-303q17 -29 46 -46.5t65 -17.5h32q26 0 45 -19t19 -45t-19 -45t-45 -19h-32zM272 384q-36 0 -65 -17.5t-46 -46.5h222
q-17 29 -46.5 46.5t-64.5 17.5zM290 558q-14 -14 -34 -14t-34 14t-14 34t14 34l64 64q14 14 34 14t34 -14t14 -34t-14 -34z" />
    <glyph glyph-name="ecircumflex" unicode="&#xea;" horiz-adv-x="544" 
d="M272 0q-53 0 -99.5 20t-81.5 55t-55 81.5t-20 99.5t20 99.5t55 81.5t81.5 55t99.5 20t99.5 -20t81.5 -55t55 -81.5t20 -99.5q0 -26 -19 -45t-45 -19h-303q17 -29 46 -46.5t65 -17.5h32q26 0 45 -19t19 -45t-19 -45t-45 -19h-32zM272 384q-36 0 -65 -17.5t-46 -46.5h222
q-17 29 -46.5 46.5t-64.5 17.5zM242 558q-14 -14 -34 -14t-34 14t-14 34t14 34l64 64q14 14 34 14t34 -14l64 -64q14 -14 14 -34t-14 -34t-34 -14t-34 14l-30 30z" />
    <glyph glyph-name="edieresis" unicode="&#xeb;" horiz-adv-x="544" 
d="M272 0q-53 0 -99.5 20t-81.5 55t-55 81.5t-20 99.5t20 99.5t55 81.5t81.5 55t99.5 20t99.5 -20t81.5 -55t55 -81.5t20 -99.5q0 -26 -19 -45t-45 -19h-303q17 -29 46 -46.5t65 -17.5h32q26 0 45 -19t19 -45t-19 -45t-45 -19h-32zM272 384q-36 0 -65 -17.5t-46 -46.5h222
q-17 29 -46.5 46.5t-64.5 17.5zM128 608q0 26 19 45t45 19t45 -19t19 -45t-19 -45t-45 -19t-45 19t-19 45zM288 608q0 26 19 45t45 19t45 -19t19 -45t-19 -45t-45 -19t-45 19t-19 45z" />
    <glyph glyph-name="igrave" unicode="&#xec;" horiz-adv-x="208" 
d="M168 64q0 -26 -19 -45t-45 -19t-45 19t-19 45v384q0 26 19 45t45 19t45 -19t19 -45v-384zM23 622q-14 14 -14 34t14 34t34 14t34 -14l64 -64q14 -14 14 -34t-14 -34t-34 -14t-34 14z" />
    <glyph glyph-name="iacute" unicode="&#xed;" horiz-adv-x="208" 
d="M168 64q0 -26 -19 -45t-45 -19t-45 19t-19 45v384q0 26 19 45t45 19t45 -19t19 -45v-384zM122 558q-14 -14 -34 -14t-34 14t-14 34t14 34l64 64q14 14 34 14t34 -14t14 -34t-14 -34z" />
    <glyph glyph-name="icircumflex" unicode="&#xee;" horiz-adv-x="208" 
d="M168 64q0 -26 -19 -45t-45 -19t-45 19t-19 45v384q0 26 19 45t45 19t45 -19t19 -45v-384zM75 558q-14 -14 -34 -14t-34 14t-14 34t14 34l64 64q14 14 34 14t34 -14l64 -64q14 -14 14 -34t-14 -34t-34 -14t-34 14l-30 30z" />
    <glyph glyph-name="idieresis" unicode="&#xef;" horiz-adv-x="208" 
d="M168 64q0 -26 -19 -45t-45 -19t-45 19t-19 45v384q0 26 19 45t45 19t45 -19t19 -45v-384zM-39 608q0 26 19 45t45 19t45 -19t19 -45t-19 -45t-45 -19t-45 19t-19 45zM121 608q0 26 19 45t45 19t45 -19t19 -45t-19 -45t-45 -19t-45 19t-19 45z" />
    <glyph glyph-name="eth" unicode="&#xf0;" 
d="M232 0q-43 0 -81 16.5t-66 44.5t-44.5 66t-16.5 81t16.5 81t44.5 66t66 44.5t81 16.5h96q40 0 80 -16v48q0 13 -2.5 25.5t-7.5 24.5l-36 -36q-14 -14 -34 -14t-34 14t-14 34t14 34l36 36q-12 5 -24.5 7.5t-25.5 2.5h-32q-26 0 -45 19t-19 45t19 45t45 19h32q40 0 76 -12
t67 -33l31 31q14 14 34 14t34 -14t14 -34t-14 -34l-31 -31q21 -31 33 -67t12 -76v-240q0 -43 -16.5 -81t-44.5 -66t-66 -44.5t-81 -16.5h-96zM328 128q33 0 56.5 23.5t23.5 56.5t-23.5 56.5t-56.5 23.5h-96q-33 0 -56.5 -23.5t-23.5 -56.5t23.5 -56.5t56.5 -23.5h96z" />
    <glyph glyph-name="ntilde" unicode="&#xf1;" 
d="M536 64q0 -26 -19 -45t-45 -19t-45 19t-19 45v192q0 27 -10 50t-27.5 40.5t-40.5 27.5t-50 10t-50 -10t-40.5 -27.5t-27.5 -40.5t-10 -50v-192q0 -26 -19 -45t-45 -19t-45 19t-19 45v192q0 53 20 99.5t55 81.5t81.5 55t99.5 20t99.5 -20t81.5 -55t55 -81.5t20 -99.5v-192
zM238 576q-13 0 -20 -4.5t-16 -13.5q-14 -14 -34 -14t-34 14t-14 34t14 34q23 23 48 34.5t56 11.5q13 0 25 -5t22.5 -11t19.5 -11t17 -5q13 0 20 4.5t16 13.5q14 14 34 14t34 -14t14 -34t-14 -34q-23 -23 -48 -34.5t-56 -11.5q-13 0 -25 5t-22.5 11t-19.5 11t-17 5z" />
    <glyph glyph-name="ograve" unicode="&#xf2;" horiz-adv-x="544" 
d="M16 256q0 53 20 99.5t55 81.5t81.5 55t99.5 20t99.5 -20t81.5 -55t55 -81.5t20 -99.5t-20 -99.5t-55 -81.5t-81.5 -55t-99.5 -20t-99.5 20t-81.5 55t-55 81.5t-20 99.5zM144 256q0 -27 10 -50t27.5 -40.5t40.5 -27.5t50 -10t50 10t40.5 27.5t27.5 40.5t10 50t-10 50
t-27.5 40.5t-40.5 27.5t-50 10t-50 -10t-40.5 -27.5t-27.5 -40.5t-10 -50zM190 622q-14 14 -14 34t14 34t34 14t34 -14l64 -64q14 -14 14 -34t-14 -34t-34 -14t-34 14z" />
    <glyph glyph-name="oacute" unicode="&#xf3;" horiz-adv-x="544" 
d="M16 256q0 53 20 99.5t55 81.5t81.5 55t99.5 20t99.5 -20t81.5 -55t55 -81.5t20 -99.5t-20 -99.5t-55 -81.5t-81.5 -55t-99.5 -20t-99.5 20t-81.5 55t-55 81.5t-20 99.5zM144 256q0 -27 10 -50t27.5 -40.5t40.5 -27.5t50 -10t50 10t40.5 27.5t27.5 40.5t10 50t-10 50
t-27.5 40.5t-40.5 27.5t-50 10t-50 -10t-40.5 -27.5t-27.5 -40.5t-10 -50zM290 558q-14 -14 -34 -14t-34 14t-14 34t14 34l64 64q14 14 34 14t34 -14t14 -34t-14 -34z" />
    <glyph glyph-name="ocircumflex" unicode="&#xf4;" horiz-adv-x="544" 
d="M16 256q0 53 20 99.5t55 81.5t81.5 55t99.5 20t99.5 -20t81.5 -55t55 -81.5t20 -99.5t-20 -99.5t-55 -81.5t-81.5 -55t-99.5 -20t-99.5 20t-81.5 55t-55 81.5t-20 99.5zM144 256q0 -27 10 -50t27.5 -40.5t40.5 -27.5t50 -10t50 10t40.5 27.5t27.5 40.5t10 50t-10 50
t-27.5 40.5t-40.5 27.5t-50 10t-50 -10t-40.5 -27.5t-27.5 -40.5t-10 -50zM242 558q-14 -14 -34 -14t-34 14t-14 34t14 34l64 64q14 14 34 14t34 -14l64 -64q14 -14 14 -34t-14 -34t-34 -14t-34 14l-30 30z" />
    <glyph glyph-name="otilde" unicode="&#xf5;" horiz-adv-x="544" 
d="M16 256q0 53 20 99.5t55 81.5t81.5 55t99.5 20t99.5 -20t81.5 -55t55 -81.5t20 -99.5t-20 -99.5t-55 -81.5t-81.5 -55t-99.5 -20t-99.5 20t-81.5 55t-55 81.5t-20 99.5zM144 256q0 -27 10 -50t27.5 -40.5t40.5 -27.5t50 -10t50 10t40.5 27.5t27.5 40.5t10 50t-10 50
t-27.5 40.5t-40.5 27.5t-50 10t-50 -10t-40.5 -27.5t-27.5 -40.5t-10 -50zM230 576q-13 0 -20 -4.5t-16 -13.5q-14 -14 -34 -14t-34 14t-14 34t14 34q23 23 48 34.5t56 11.5q13 0 25 -5t22.5 -11t19.5 -11t17 -5q13 0 20 4.5t16 13.5q14 14 34 14t34 -14t14 -34t-14 -34
q-23 -23 -48 -34.5t-56 -11.5q-13 0 -25 5t-22.5 11t-19.5 11t-17 5z" />
    <glyph glyph-name="odieresis" unicode="&#xf6;" horiz-adv-x="544" 
d="M16 256q0 53 20 99.5t55 81.5t81.5 55t99.5 20t99.5 -20t81.5 -55t55 -81.5t20 -99.5t-20 -99.5t-55 -81.5t-81.5 -55t-99.5 -20t-99.5 20t-81.5 55t-55 81.5t-20 99.5zM144 256q0 -27 10 -50t27.5 -40.5t40.5 -27.5t50 -10t50 10t40.5 27.5t27.5 40.5t10 50t-10 50
t-27.5 40.5t-40.5 27.5t-50 10t-50 -10t-40.5 -27.5t-27.5 -40.5t-10 -50zM128 608q0 26 19 45t45 19t45 -19t19 -45t-19 -45t-45 -19t-45 19t-19 45zM288 608q0 26 19 45t45 19t45 -19t19 -45t-19 -45t-45 -19t-45 19t-19 45z" />
    <glyph glyph-name="divide" unicode="&#xf7;" 
d="M88 256q-26 0 -45 19t-19 45t19 45t45 19h384q26 0 45 -19t19 -45t-19 -45t-45 -19h-384zM208 520q0 30 21 51t51 21t51 -21t21 -51t-21 -51t-51 -21t-51 21t-21 51zM208 120q0 30 21 51t51 21t51 -21t21 -51t-21 -51t-51 -21t-51 21t-21 51z" />
    <glyph glyph-name="oslash" unicode="&#xf8;" 
d="M491 399q21 -31 33 -67t12 -76q0 -53 -20 -99.5t-55 -81.5t-81.5 -55t-99.5 -20q-40 0 -76.5 11.5t-67.5 32.5l-30 -30q-14 -14 -34 -14t-34 14t-14 34t14 34l30 30q-21 31 -32.5 67.5t-11.5 76.5q0 53 20 99.5t55 81.5t81.5 55t99.5 20q40 0 76 -12t67 -33l31 31
q14 14 34 14t34 -14t14 -34t-14 -34zM408 256q0 13 -2.5 25.5t-7.5 24.5l-168 -168q21 -10 50 -10q27 0 50 10t40.5 27.5t27.5 40.5t10 50zM152 256q0 -29 10 -50l168 168q-12 5 -24.5 7.5t-25.5 2.5q-27 0 -50 -10t-40.5 -27.5t-27.5 -40.5t-10 -50z" />
    <glyph glyph-name="ugrave" unicode="&#xf9;" 
d="M536 256q0 -53 -20 -99.5t-55 -81.5t-81.5 -55t-99.5 -20t-99.5 20t-81.5 55t-55 81.5t-20 99.5v192q0 26 19 45t45 19t45 -19t19 -45v-192q0 -27 10 -50t27.5 -40.5t40.5 -27.5t50 -10t50 10t40.5 27.5t27.5 40.5t10 50v192q0 26 19 45t45 19t45 -19t19 -45v-192z
M198 622q-14 14 -14 34t14 34t34 14t34 -14l64 -64q14 -14 14 -34t-14 -34t-34 -14t-34 14z" />
    <glyph glyph-name="uacute" unicode="&#xfa;" 
d="M536 256q0 -53 -20 -99.5t-55 -81.5t-81.5 -55t-99.5 -20t-99.5 20t-81.5 55t-55 81.5t-20 99.5v192q0 26 19 45t45 19t45 -19t19 -45v-192q0 -27 10 -50t27.5 -40.5t40.5 -27.5t50 -10t50 10t40.5 27.5t27.5 40.5t10 50v192q0 26 19 45t45 19t45 -19t19 -45v-192z
M298 558q-14 -14 -34 -14t-34 14t-14 34t14 34l64 64q14 14 34 14t34 -14t14 -34t-14 -34z" />
    <glyph glyph-name="ucircumflex" unicode="&#xfb;" 
d="M536 256q0 -53 -20 -99.5t-55 -81.5t-81.5 -55t-99.5 -20t-99.5 20t-81.5 55t-55 81.5t-20 99.5v192q0 26 19 45t45 19t45 -19t19 -45v-192q0 -27 10 -50t27.5 -40.5t40.5 -27.5t50 -10t50 10t40.5 27.5t27.5 40.5t10 50v192q0 26 19 45t45 19t45 -19t19 -45v-192z
M250 558q-14 -14 -34 -14t-34 14t-14 34t14 34l64 64q14 14 34 14t34 -14l64 -64q14 -14 14 -34t-14 -34t-34 -14t-34 14l-30 30z" />
    <glyph glyph-name="udieresis" unicode="&#xfc;" 
d="M536 256q0 -53 -20 -99.5t-55 -81.5t-81.5 -55t-99.5 -20t-99.5 20t-81.5 55t-55 81.5t-20 99.5v192q0 26 19 45t45 19t45 -19t19 -45v-192q0 -27 10 -50t27.5 -40.5t40.5 -27.5t50 -10t50 10t40.5 27.5t27.5 40.5t10 50v192q0 26 19 45t45 19t45 -19t19 -45v-192z
M136 608q0 26 19 45t45 19t45 -19t19 -45t-19 -45t-45 -19t-45 19t-19 45zM296 608q0 26 19 45t45 19t45 -19t19 -45t-19 -45t-45 -19t-45 19t-19 45z" />
    <glyph glyph-name="yacute" unicode="&#xfd;" horiz-adv-x="576" 
d="M280 -64q45 0 79 27t45 69q-28 -15 -59 -23.5t-65 -8.5q-53 0 -99.5 20t-81.5 55t-55 81.5t-20 99.5v192q0 26 19 45t45 19t45 -19t19 -45v-192q0 -27 10 -50t27.5 -40.5t40.5 -27.5t50 -10t50 10t40.5 27.5t27.5 40.5t10 50v192q0 26 19 45t45 19t45 -19t19 -45v-384
q0 -53 -20 -99.5t-55 -81.5t-81.5 -55t-99.5 -20q-49 0 -96 18.5t-85 56.5q-19 19 -19 45t19 45t45 19t45 -19q20 -19 43 -28t48 -9zM298 558q-14 -14 -34 -14t-34 14t-14 34t14 34l64 64q14 14 34 14t34 -14t14 -34t-14 -34z" />
    <glyph glyph-name="thorn" unicode="&#xfe;" horiz-adv-x="568" 
d="M168 477q28 17 60.5 26t67.5 9q53 0 99.5 -20t81.5 -55t55 -81.5t20 -99.5t-20 -99.5t-55 -81.5t-81.5 -55t-99.5 -20q-71 0 -128 34v-162q0 -26 -19 -45t-45 -19t-45 19t-19 45v768q0 26 19 45t45 19t45 -19t19 -45v-163zM168 256q0 -27 10 -50t27.5 -40.5t40.5 -27.5
t50 -10t50 10t40.5 27.5t27.5 40.5t10 50t-10 50t-27.5 40.5t-40.5 27.5t-50 10t-50 -10t-40.5 -27.5t-27.5 -40.5t-10 -50z" />
    <glyph glyph-name="ydieresis" unicode="&#xff;" horiz-adv-x="576" 
d="M280 -64q45 0 79 27t45 69q-28 -15 -59 -23.5t-65 -8.5q-53 0 -99.5 20t-81.5 55t-55 81.5t-20 99.5v192q0 26 19 45t45 19t45 -19t19 -45v-192q0 -27 10 -50t27.5 -40.5t40.5 -27.5t50 -10t50 10t40.5 27.5t27.5 40.5t10 50v192q0 26 19 45t45 19t45 -19t19 -45v-384
q0 -53 -20 -99.5t-55 -81.5t-81.5 -55t-99.5 -20q-49 0 -96 18.5t-85 56.5q-19 19 -19 45t19 45t45 19t45 -19q20 -19 43 -28t48 -9zM136 608q0 26 19 45t45 19t45 -19t19 -45t-19 -45t-45 -19t-45 19t-19 45zM296 608q0 26 19 45t45 19t45 -19t19 -45t-19 -45t-45 -19
t-45 19t-19 45z" />
    <glyph glyph-name="Amacron" unicode="&#x100;" horiz-adv-x="656" 
d="M616 64q0 -26 -19 -45t-45 -19t-45 19t-19 45v128h-320v-128q0 -26 -19 -45t-45 -19t-45 19t-19 45v288q0 60 22.5 112.5t61.5 91.5t91.5 61.5t112.5 22.5t112.5 -22.5t91.5 -61.5t61.5 -91.5t22.5 -112.5v-288zM168 320h320v32q0 33 -12.5 62t-34.5 51t-51 34.5
t-62 12.5t-62 -12.5t-51 -34.5t-34.5 -51t-12.5 -62v-32zM440 784q20 0 34 -14t14 -34t-14 -34t-34 -14h-224q-20 0 -34 14t-14 34t14 34t34 14h224z" />
    <glyph glyph-name="amacron" unicode="&#x101;" horiz-adv-x="552" 
d="M16 256q0 53 20 99.5t55 81.5t81.5 55t99.5 20t99.5 -20t81.5 -55t55 -81.5t20 -99.5v-192q0 -26 -19 -45t-45 -19q-20 0 -35.5 10.5t-23.5 27.5q-29 -18 -62.5 -28t-70.5 -10q-53 0 -99.5 20t-81.5 55t-55 81.5t-20 99.5zM144 256q0 -27 10 -50t27.5 -40.5t40.5 -27.5
t50 -10t50 10t40.5 27.5t27.5 40.5t10 50t-10 50t-27.5 40.5t-40.5 27.5t-50 10t-50 -10t-40.5 -27.5t-27.5 -40.5t-10 -50zM384 656q20 0 34 -14t14 -34t-14 -34t-34 -14h-224q-20 0 -34 14t-14 34t14 34t34 14h224z" />
    <glyph glyph-name="Abreve" unicode="&#x102;" horiz-adv-x="656" 
d="M616 64q0 -26 -19 -45t-45 -19t-45 19t-19 45v128h-320v-128q0 -26 -19 -45t-45 -19t-45 19t-19 45v288q0 60 22.5 112.5t61.5 91.5t91.5 61.5t112.5 22.5t112.5 -22.5t91.5 -61.5t61.5 -91.5t22.5 -112.5v-288zM168 320h320v32q0 33 -12.5 62t-34.5 51t-51 34.5
t-62 12.5t-62 -12.5t-51 -34.5t-34.5 -51t-12.5 -62v-32zM344 768q16 0 16 16q0 20 14 34t34 14t34 -14t14 -34q0 -23 -9 -43.5t-24 -35.5t-35.5 -24t-43.5 -9h-32q-23 0 -43.5 9t-35.5 24t-24 35.5t-9 43.5q0 20 14 34t34 14t34 -14t14 -34q0 -16 16 -16h32z" />
    <glyph glyph-name="abreve" unicode="&#x103;" horiz-adv-x="552" 
d="M16 256q0 53 20 99.5t55 81.5t81.5 55t99.5 20t99.5 -20t81.5 -55t55 -81.5t20 -99.5v-192q0 -26 -19 -45t-45 -19q-20 0 -35.5 10.5t-23.5 27.5q-29 -18 -62.5 -28t-70.5 -10q-53 0 -99.5 20t-81.5 55t-55 81.5t-20 99.5zM144 256q0 -27 10 -50t27.5 -40.5t40.5 -27.5
t50 -10t50 10t40.5 27.5t27.5 40.5t10 50t-10 50t-27.5 40.5t-40.5 27.5t-50 10t-50 -10t-40.5 -27.5t-27.5 -40.5t-10 -50zM288 640q16 0 16 16q0 20 14 34t34 14t34 -14t14 -34q0 -23 -9 -43.5t-24 -35.5t-35.5 -24t-43.5 -9h-32q-23 0 -43.5 9t-35.5 24t-24 35.5t-9 43.5
q0 20 14 34t34 14t34 -14t14 -34q0 -16 16 -16h32z" />
    <glyph glyph-name="Aogonek" unicode="&#x104;" horiz-adv-x="656" 
d="M408 -48q0 42 22 76.5t58 52.5v111h-320v-128q0 -26 -19 -45t-45 -19t-45 19t-19 45v288q0 60 22.5 112.5t61.5 91.5t91.5 61.5t112.5 22.5t112.5 -22.5t91.5 -61.5t61.5 -91.5t22.5 -112.5v-288q0 -26 -19 -45t-45 -19q-20 0 -34 -14t-14 -34t14 -34t34 -14t34 14t34 14
t34 -14t14 -34t-14 -34q-20 -20 -46 -31t-56 -11t-56 11.5t-45.5 31t-31 45.5t-11.5 56zM168 320h320v32q0 33 -12.5 62t-34.5 51t-51 34.5t-62 12.5t-62 -12.5t-51 -34.5t-34.5 -51t-12.5 -62v-32z" />
    <glyph glyph-name="aogonek" unicode="&#x105;" horiz-adv-x="552" 
d="M320 -48q0 28 11 55q-27 -7 -59 -7q-53 0 -99.5 20t-81.5 55t-55 81.5t-20 99.5t20 99.5t55 81.5t81.5 55t99.5 20t99.5 -20t81.5 -55t55 -81.5t20 -99.5v-192q0 -26 -19 -45t-45 -19q-20 0 -34 -14t-14 -34t14 -34t34 -14t34 14t34 14t34 -14t14 -34t-14 -34
q-20 -20 -46 -31t-56 -11t-56 11.5t-45.5 31t-31 45.5t-11.5 56zM144 256q0 -27 10 -50t27.5 -40.5t40.5 -27.5t50 -10t50 10t40.5 27.5t27.5 40.5t10 50t-10 50t-27.5 40.5t-40.5 27.5t-50 10t-50 -10t-40.5 -27.5t-27.5 -40.5t-10 -50z" />
    <glyph glyph-name="Cacute" unicode="&#x106;" horiz-adv-x="584" 
d="M562 94q-48 -48 -106 -71t-120 -23q-66 0 -124.5 25t-102 68.5t-68.5 102t-25 124.5t25 124.5t68.5 102t102 68.5t124.5 25q62 0 120 -23.5t106 -70.5q19 -19 19 -45t-19 -45t-45 -19q-27 0 -45 19q-29 28 -64 42t-72 14q-40 0 -75 -15t-61 -41t-41 -61t-15 -75t15 -75
t41 -61t61 -41t75 -15q37 0 72 13.5t64 42.5q19 19 45 19t45 -19t19 -45t-19 -45zM354 686q-14 -14 -34 -14t-34 14t-14 34t14 34l64 64q14 14 34 14t34 -14t14 -34t-14 -34z" />
    <glyph glyph-name="cacute" unicode="&#x107;" horiz-adv-x="488" 
d="M453 75q-38 -38 -85 -56.5t-96 -18.5q-53 0 -99.5 20t-81.5 55t-55 81.5t-20 99.5t20 99.5t55 81.5t81.5 55t99.5 20q49 0 96 -18.5t85 -56.5q19 -19 19 -45t-19 -45t-45 -19q-27 0 -45 19q-20 19 -43 28t-48 9q-27 0 -50 -10t-40.5 -27.5t-27.5 -40.5t-10 -50t10 -50
t27.5 -40.5t40.5 -27.5t50 -10q25 0 48 9t43 28q19 19 45 19t45 -19t19 -45t-19 -45zM290 558q-14 -14 -34 -14t-34 14t-14 34t14 34l64 64q14 14 34 14t34 -14t14 -34t-14 -34z" />
    <glyph glyph-name="Ccircumflex" unicode="&#x108;" horiz-adv-x="584" 
d="M562 94q-48 -48 -106 -71t-120 -23q-66 0 -124.5 25t-102 68.5t-68.5 102t-25 124.5t25 124.5t68.5 102t102 68.5t124.5 25q62 0 120 -23.5t106 -70.5q19 -19 19 -45t-19 -45t-45 -19q-27 0 -45 19q-29 28 -64 42t-72 14q-40 0 -75 -15t-61 -41t-41 -61t-15 -75t15 -75
t41 -61t61 -41t75 -15q37 0 72 13.5t64 42.5q19 19 45 19t45 -19t19 -45t-19 -45zM306 686q-14 -14 -34 -14t-34 14t-14 34t14 34l64 64q14 14 34 14t34 -14l64 -64q14 -14 14 -34t-14 -34t-34 -14t-34 14l-30 30z" />
    <glyph glyph-name="ccircumflex" unicode="&#x109;" horiz-adv-x="488" 
d="M453 75q-38 -38 -85 -56.5t-96 -18.5q-53 0 -99.5 20t-81.5 55t-55 81.5t-20 99.5t20 99.5t55 81.5t81.5 55t99.5 20q49 0 96 -18.5t85 -56.5q19 -19 19 -45t-19 -45t-45 -19q-27 0 -45 19q-20 19 -43 28t-48 9q-27 0 -50 -10t-40.5 -27.5t-27.5 -40.5t-10 -50t10 -50
t27.5 -40.5t40.5 -27.5t50 -10q25 0 48 9t43 28q19 19 45 19t45 -19t19 -45t-19 -45zM242 558q-14 -14 -34 -14t-34 14t-14 34t14 34l64 64q14 14 34 14t34 -14l64 -64q14 -14 14 -34t-14 -34t-34 -14t-34 14l-30 30z" />
    <glyph glyph-name="Cdotaccent" unicode="&#x10a;" horiz-adv-x="584" 
d="M562 94q-48 -48 -106 -71t-120 -23q-66 0 -124.5 25t-102 68.5t-68.5 102t-25 124.5t25 124.5t68.5 102t102 68.5t124.5 25q62 0 120 -23.5t106 -70.5q19 -19 19 -45t-19 -45t-45 -19q-27 0 -45 19q-29 28 -64 42t-72 14q-40 0 -75 -15t-61 -41t-41 -61t-15 -75t15 -75
t41 -61t61 -41t75 -15q37 0 72 13.5t64 42.5q19 19 45 19t45 -19t19 -45t-19 -45zM272 736q0 26 19 45t45 19t45 -19t19 -45t-19 -45t-45 -19t-45 19t-19 45z" />
    <glyph glyph-name="cdotaccent" unicode="&#x10b;" horiz-adv-x="488" 
d="M453 75q-38 -38 -85 -56.5t-96 -18.5q-53 0 -99.5 20t-81.5 55t-55 81.5t-20 99.5t20 99.5t55 81.5t81.5 55t99.5 20q49 0 96 -18.5t85 -56.5q19 -19 19 -45t-19 -45t-45 -19q-27 0 -45 19q-20 19 -43 28t-48 9q-27 0 -50 -10t-40.5 -27.5t-27.5 -40.5t-10 -50t10 -50
t27.5 -40.5t40.5 -27.5t50 -10q25 0 48 9t43 28q19 19 45 19t45 -19t19 -45t-19 -45zM208 608q0 26 19 45t45 19t45 -19t19 -45t-19 -45t-45 -19t-45 19t-19 45z" />
    <glyph glyph-name="Ccaron" unicode="&#x10c;" horiz-adv-x="584" 
d="M562 94q-48 -48 -106 -71t-120 -23q-66 0 -124.5 25t-102 68.5t-68.5 102t-25 124.5t25 124.5t68.5 102t102 68.5t124.5 25q62 0 120 -23.5t106 -70.5q19 -19 19 -45t-19 -45t-45 -19q-27 0 -45 19q-29 28 -64 42t-72 14q-40 0 -75 -15t-61 -41t-41 -61t-15 -75t15 -75
t41 -61t61 -41t75 -15q37 0 72 13.5t64 42.5q19 19 45 19t45 -19t19 -45t-19 -45zM366 818q14 14 34 14t34 -14t14 -34t-14 -34l-64 -64q-14 -14 -34 -14t-34 14l-64 64q-14 14 -14 34t14 34t34 14t34 -14l30 -30z" />
    <glyph glyph-name="ccaron" unicode="&#x10d;" horiz-adv-x="488" 
d="M453 75q-38 -38 -85 -56.5t-96 -18.5q-53 0 -99.5 20t-81.5 55t-55 81.5t-20 99.5t20 99.5t55 81.5t81.5 55t99.5 20q49 0 96 -18.5t85 -56.5q19 -19 19 -45t-19 -45t-45 -19q-27 0 -45 19q-20 19 -43 28t-48 9q-27 0 -50 -10t-40.5 -27.5t-27.5 -40.5t-10 -50t10 -50
t27.5 -40.5t40.5 -27.5t50 -10q25 0 48 9t43 28q19 19 45 19t45 -19t19 -45t-19 -45zM302 690q14 14 34 14t34 -14t14 -34t-14 -34l-64 -64q-14 -14 -34 -14t-34 14l-64 64q-14 14 -14 34t14 34t34 14t34 -14l30 -30z" />
    <glyph glyph-name="Dcaron" unicode="&#x10e;" horiz-adv-x="632" 
d="M104 0q-26 0 -45 19t-19 45v512q0 26 19 45t45 19h192q66 0 124.5 -25t102 -68.5t68.5 -102t25 -124.5t-25 -124.5t-68.5 -102t-102 -68.5t-124.5 -25h-192zM168 512v-384h128q40 0 75 15t61 41t41 61t15 75t-15 75t-41 61t-61 41t-75 15h-128zM326 818q14 14 34 14
t34 -14t14 -34t-14 -34l-64 -64q-14 -14 -34 -14t-34 14l-64 64q-14 14 -14 34t14 34t34 14t34 -14l30 -30z" />
    <glyph glyph-name="dcaron" unicode="&#x10f;" horiz-adv-x="552" 
d="M528 256q0 -53 -20 -99.5t-55 -81.5t-81.5 -55t-99.5 -20t-99.5 20t-81.5 55t-55 81.5t-20 99.5t20 99.5t55 81.5t81.5 55t99.5 20q35 0 67 -9t61 -26v163q0 26 19 45t45 19t45 -19t19 -45v-384zM400 256q0 27 -10 50t-27.5 40.5t-40.5 27.5t-50 10t-50 -10t-40.5 -27.5
t-27.5 -40.5t-10 -50t10 -50t27.5 -40.5t40.5 -27.5t50 -10t50 10t40.5 27.5t27.5 40.5t10 50zM560 656q0 20 14 34t34 14t34 -14t14 -34v-64q0 -20 -14 -34t-34 -14t-34 14t-14 34v64z" />
    <glyph glyph-name="Dcroat" unicode="&#x110;" horiz-adv-x="680" 
d="M152 0q-26 0 -45 19t-19 45v192h-16q-26 0 -45 19t-19 45t19 45t45 19h16v192q0 26 19 45t45 19h192q66 0 124.5 -25t102 -68.5t68.5 -102t25 -124.5t-25 -124.5t-68.5 -102t-102 -68.5t-124.5 -25h-192zM216 256v-128h128q40 0 75 15t61 41t41 61t15 75t-15 75t-41 61
t-61 41t-75 15h-128v-128h48q26 0 45 -19t19 -45t-19 -45t-45 -19h-48z" />
    <glyph glyph-name="dcroat" unicode="&#x111;" horiz-adv-x="552" 
d="M400 640q0 26 19 45t45 19t45 -19t19 -45h16q20 0 34 -14t14 -34t-14 -34t-34 -14h-16v-288q0 -53 -20 -99.5t-55 -81.5t-81.5 -55t-99.5 -20t-99.5 20t-81.5 55t-55 81.5t-20 99.5t20 99.5t55 81.5t81.5 55t99.5 20q35 0 67 -9t61 -26v67h-80q-20 0 -34 14t-14 34t14 34
t34 14h80zM400 256q0 27 -10 50t-27.5 40.5t-40.5 27.5t-50 10t-50 -10t-40.5 -27.5t-27.5 -40.5t-10 -50t10 -50t27.5 -40.5t40.5 -27.5t50 -10t50 10t40.5 27.5t27.5 40.5t10 50z" />
    <glyph glyph-name="Emacron" unicode="&#x112;" horiz-adv-x="568" 
d="M168 128h320q26 0 45 -19t19 -45t-19 -45t-45 -19h-384q-26 0 -45 19t-19 45v512q0 26 19 45t45 19h384q26 0 45 -19t19 -45t-19 -45t-45 -19h-320v-128h288q26 0 45 -19t19 -45t-19 -45t-45 -19h-288v-128zM408 784q20 0 34 -14t14 -34t-14 -34t-34 -14h-224
q-20 0 -34 14t-14 34t14 34t34 14h224z" />
    <glyph glyph-name="emacron" unicode="&#x113;" horiz-adv-x="544" 
d="M272 0q-53 0 -99.5 20t-81.5 55t-55 81.5t-20 99.5t20 99.5t55 81.5t81.5 55t99.5 20t99.5 -20t81.5 -55t55 -81.5t20 -99.5q0 -26 -19 -45t-45 -19h-303q17 -29 46 -46.5t65 -17.5h32q26 0 45 -19t19 -45t-19 -45t-45 -19h-32zM272 384q-36 0 -65 -17.5t-46 -46.5h222
q-17 29 -46.5 46.5t-64.5 17.5zM384 656q20 0 34 -14t14 -34t-14 -34t-34 -14h-224q-20 0 -34 14t-14 34t14 34t34 14h224z" />
    <glyph glyph-name="Ebreve" unicode="&#x114;" horiz-adv-x="568" 
d="M168 128h320q26 0 45 -19t19 -45t-19 -45t-45 -19h-384q-26 0 -45 19t-19 45v512q0 26 19 45t45 19h384q26 0 45 -19t19 -45t-19 -45t-45 -19h-320v-128h288q26 0 45 -19t19 -45t-19 -45t-45 -19h-288v-128zM312 768q16 0 16 16q0 20 14 34t34 14t34 -14t14 -34
q0 -23 -9 -43.5t-24 -35.5t-35.5 -24t-43.5 -9h-32q-23 0 -43.5 9t-35.5 24t-24 35.5t-9 43.5q0 20 14 34t34 14t34 -14t14 -34q0 -16 16 -16h32z" />
    <glyph glyph-name="ebreve" unicode="&#x115;" horiz-adv-x="544" 
d="M272 0q-53 0 -99.5 20t-81.5 55t-55 81.5t-20 99.5t20 99.5t55 81.5t81.5 55t99.5 20t99.5 -20t81.5 -55t55 -81.5t20 -99.5q0 -26 -19 -45t-45 -19h-303q17 -29 46 -46.5t65 -17.5h32q26 0 45 -19t19 -45t-19 -45t-45 -19h-32zM272 384q-36 0 -65 -17.5t-46 -46.5h222
q-17 29 -46.5 46.5t-64.5 17.5zM288 640q16 0 16 16q0 20 14 34t34 14t34 -14t14 -34q0 -23 -9 -43.5t-24 -35.5t-35.5 -24t-43.5 -9h-32q-23 0 -43.5 9t-35.5 24t-24 35.5t-9 43.5q0 20 14 34t34 14t34 -14t14 -34q0 -16 16 -16h32z" />
    <glyph glyph-name="Edotaccent" unicode="&#x116;" horiz-adv-x="568" 
d="M168 128h320q26 0 45 -19t19 -45t-19 -45t-45 -19h-384q-26 0 -45 19t-19 45v512q0 26 19 45t45 19h384q26 0 45 -19t19 -45t-19 -45t-45 -19h-320v-128h288q26 0 45 -19t19 -45t-19 -45t-45 -19h-288v-128zM232 736q0 26 19 45t45 19t45 -19t19 -45t-19 -45t-45 -19
t-45 19t-19 45z" />
    <glyph glyph-name="edotaccent" unicode="&#x117;" horiz-adv-x="544" 
d="M272 0q-53 0 -99.5 20t-81.5 55t-55 81.5t-20 99.5t20 99.5t55 81.5t81.5 55t99.5 20t99.5 -20t81.5 -55t55 -81.5t20 -99.5q0 -26 -19 -45t-45 -19h-303q17 -29 46 -46.5t65 -17.5h32q26 0 45 -19t19 -45t-19 -45t-45 -19h-32zM272 384q-36 0 -65 -17.5t-46 -46.5h222
q-17 29 -46.5 46.5t-64.5 17.5zM208 608q0 26 19 45t45 19t45 -19t19 -45t-19 -45t-45 -19t-45 19t-19 45z" />
    <glyph glyph-name="Eogonek" unicode="&#x118;" horiz-adv-x="568" 
d="M436 0q-20 0 -34 -14t-14 -34t14 -34t34 -14t34 14t34 14t34 -14t14 -34t-14 -34q-20 -20 -46 -31t-56 -11t-56 11.5t-45.5 31t-31 45.5t-11.5 56q0 24 8 48h-196q-26 0 -45 19t-19 45v512q0 26 19 45t45 19h384q26 0 45 -19t19 -45t-19 -45t-45 -19h-320v-128h256
q26 0 45 -19t19 -45t-19 -45t-45 -19h-256v-128h320q26 0 45 -19t19 -45t-19 -45t-45 -19h-52z" />
    <glyph glyph-name="eogonek" unicode="&#x119;" horiz-adv-x="544" 
d="M160 -48q0 36 16 66q-35 14 -64.5 38t-50.5 55t-33 67.5t-12 77.5q0 53 20 99.5t55 81.5t81.5 55t99.5 20t99.5 -20t81.5 -55t55 -81.5t20 -99.5q0 -26 -19 -45t-45 -19h-303q17 -29 46 -46.5t65 -17.5h32q26 0 45 -19t19 -45t-19 -45t-45 -19q-20 0 -34 -14t-14 -34
t14 -34t34 -14t34 14t34 14t34 -14t14 -34t-14 -34q-20 -20 -46 -31t-56 -11t-56 11.5t-45.5 31t-31 45.5t-11.5 56zM272 384q-36 0 -65 -17.5t-46 -46.5h222q-17 29 -46.5 46.5t-64.5 17.5z" />
    <glyph glyph-name="Ecaron" unicode="&#x11a;" horiz-adv-x="568" 
d="M168 128h320q26 0 45 -19t19 -45t-19 -45t-45 -19h-384q-26 0 -45 19t-19 45v512q0 26 19 45t45 19h384q26 0 45 -19t19 -45t-19 -45t-45 -19h-320v-128h288q26 0 45 -19t19 -45t-19 -45t-45 -19h-288v-128zM326 818q14 14 34 14t34 -14t14 -34t-14 -34l-64 -64
q-14 -14 -34 -14t-34 14l-64 64q-14 14 -14 34t14 34t34 14t34 -14l30 -30z" />
    <glyph glyph-name="ecaron" unicode="&#x11b;" horiz-adv-x="544" 
d="M272 0q-53 0 -99.5 20t-81.5 55t-55 81.5t-20 99.5t20 99.5t55 81.5t81.5 55t99.5 20t99.5 -20t81.5 -55t55 -81.5t20 -99.5q0 -26 -19 -45t-45 -19h-303q17 -29 46 -46.5t65 -17.5h32q26 0 45 -19t19 -45t-19 -45t-45 -19h-32zM272 384q-36 0 -65 -17.5t-46 -46.5h222
q-17 29 -46.5 46.5t-64.5 17.5zM302 690q14 14 34 14t34 -14t14 -34t-14 -34l-64 -64q-14 -14 -34 -14t-34 14l-64 64q-14 14 -14 34t14 34t34 14t34 -14l30 -30z" />
    <glyph glyph-name="Gcircumflex" unicode="&#x11c;" horiz-adv-x="632" 
d="M464 256h-64q-26 0 -45 19t-19 45t19 45t45 19h128q26 0 45 -19t19 -45v-256q0 -26 -19 -45t-45 -19h-192q-66 0 -124.5 25t-102 68.5t-68.5 102t-25 124.5t25 124.5t68.5 102t102 68.5t124.5 25q62 0 120 -23.5t106 -70.5q19 -19 19 -45t-19 -45t-45 -19t-45 19
q-28 28 -64 42t-72 14q-40 0 -75 -15t-61 -41t-41 -61t-15 -75t15 -75t41 -61t61 -41t75 -15h128v128zM306 686q-14 -14 -34 -14t-34 14t-14 34t14 34l64 64q14 14 34 14t34 -14l64 -64q14 -14 14 -34t-14 -34t-34 -14t-34 14l-30 30z" />
    <glyph glyph-name="gcircumflex" unicode="&#x11d;" horiz-adv-x="552" 
d="M272 -64q45 0 79 27t45 69q-28 -15 -59 -23.5t-65 -8.5q-53 0 -99.5 20t-81.5 55t-55 81.5t-20 99.5t20 99.5t55 81.5t81.5 55t99.5 20t99.5 -20t81.5 -55t55 -81.5t20 -99.5v-192q0 -53 -20 -99.5t-55 -81.5t-81.5 -55t-99.5 -20q-49 0 -96 18.5t-85 56.5q-19 19 -19 45
t19 45t45 19t45 -19q20 -19 43 -28t48 -9zM144 256q0 -27 10 -50t27.5 -40.5t40.5 -27.5t50 -10t50 10t40.5 27.5t27.5 40.5t10 50t-10 50t-27.5 40.5t-40.5 27.5t-50 10t-50 -10t-40.5 -27.5t-27.5 -40.5t-10 -50zM242 558q-14 -14 -34 -14t-34 14t-14 34t14 34l64 64
q14 14 34 14t34 -14l64 -64q14 -14 14 -34t-14 -34t-34 -14t-34 14l-30 30z" />
    <glyph glyph-name="Gbreve" unicode="&#x11e;" horiz-adv-x="632" 
d="M464 256h-64q-26 0 -45 19t-19 45t19 45t45 19h128q26 0 45 -19t19 -45v-256q0 -26 -19 -45t-45 -19h-192q-66 0 -124.5 25t-102 68.5t-68.5 102t-25 124.5t25 124.5t68.5 102t102 68.5t124.5 25q62 0 120 -23.5t106 -70.5q19 -19 19 -45t-19 -45t-45 -19t-45 19
q-28 28 -64 42t-72 14q-40 0 -75 -15t-61 -41t-41 -61t-15 -75t15 -75t41 -61t61 -41t75 -15h128v128zM352 768q16 0 16 16q0 20 14 34t34 14t34 -14t14 -34q0 -23 -9 -43.5t-24 -35.5t-35.5 -24t-43.5 -9h-32q-23 0 -43.5 9t-35.5 24t-24 35.5t-9 43.5q0 20 14 34t34 14
t34 -14t14 -34q0 -16 16 -16h32z" />
    <glyph glyph-name="gbreve" unicode="&#x11f;" horiz-adv-x="552" 
d="M272 -64q45 0 79 27t45 69q-28 -15 -59 -23.5t-65 -8.5q-53 0 -99.5 20t-81.5 55t-55 81.5t-20 99.5t20 99.5t55 81.5t81.5 55t99.5 20t99.5 -20t81.5 -55t55 -81.5t20 -99.5v-192q0 -53 -20 -99.5t-55 -81.5t-81.5 -55t-99.5 -20q-49 0 -96 18.5t-85 56.5q-19 19 -19 45
t19 45t45 19t45 -19q20 -19 43 -28t48 -9zM144 256q0 -27 10 -50t27.5 -40.5t40.5 -27.5t50 -10t50 10t40.5 27.5t27.5 40.5t10 50t-10 50t-27.5 40.5t-40.5 27.5t-50 10t-50 -10t-40.5 -27.5t-27.5 -40.5t-10 -50zM288 640q16 0 16 16q0 20 14 34t34 14t34 -14t14 -34
q0 -23 -9 -43.5t-24 -35.5t-35.5 -24t-43.5 -9h-32q-23 0 -43.5 9t-35.5 24t-24 35.5t-9 43.5q0 20 14 34t34 14t34 -14t14 -34q0 -16 16 -16h32z" />
    <glyph glyph-name="Gdotaccent" unicode="&#x120;" horiz-adv-x="632" 
d="M464 256h-64q-26 0 -45 19t-19 45t19 45t45 19h128q26 0 45 -19t19 -45v-256q0 -26 -19 -45t-45 -19h-192q-66 0 -124.5 25t-102 68.5t-68.5 102t-25 124.5t25 124.5t68.5 102t102 68.5t124.5 25q62 0 120 -23.5t106 -70.5q19 -19 19 -45t-19 -45t-45 -19t-45 19
q-28 28 -64 42t-72 14q-40 0 -75 -15t-61 -41t-41 -61t-15 -75t15 -75t41 -61t61 -41t75 -15h128v128zM272 736q0 26 19 45t45 19t45 -19t19 -45t-19 -45t-45 -19t-45 19t-19 45z" />
    <glyph glyph-name="gdotaccent" unicode="&#x121;" horiz-adv-x="552" 
d="M272 -64q45 0 79 27t45 69q-28 -15 -59 -23.5t-65 -8.5q-53 0 -99.5 20t-81.5 55t-55 81.5t-20 99.5t20 99.5t55 81.5t81.5 55t99.5 20t99.5 -20t81.5 -55t55 -81.5t20 -99.5v-192q0 -53 -20 -99.5t-55 -81.5t-81.5 -55t-99.5 -20q-49 0 -96 18.5t-85 56.5q-19 19 -19 45
t19 45t45 19t45 -19q20 -19 43 -28t48 -9zM144 256q0 -27 10 -50t27.5 -40.5t40.5 -27.5t50 -10t50 10t40.5 27.5t27.5 40.5t10 50t-10 50t-27.5 40.5t-40.5 27.5t-50 10t-50 -10t-40.5 -27.5t-27.5 -40.5t-10 -50zM208 608q0 26 19 45t45 19t45 -19t19 -45t-19 -45t-45 -19
t-45 19t-19 45z" />
    <glyph glyph-name="Gcommaaccent" unicode="&#x122;" horiz-adv-x="632" 
d="M464 256h-64q-26 0 -45 19t-19 45t19 45t45 19h128q26 0 45 -19t19 -45v-256q0 -26 -19 -45t-45 -19h-192q-66 0 -124.5 25t-102 68.5t-68.5 102t-25 124.5t25 124.5t68.5 102t102 68.5t124.5 25q62 0 120 -23.5t106 -70.5q19 -19 19 -45t-19 -45t-45 -19t-45 19
q-28 28 -64 42t-72 14q-40 0 -75 -15t-61 -41t-41 -61t-15 -75t15 -75t41 -61t61 -41t75 -15h128v128zM288 -80q0 20 14 34t34 14t34 -14t14 -34v-64q0 -20 -14 -34t-34 -14t-34 14t-14 34v64z" />
    <glyph glyph-name="gcommaaccent" unicode="&#x123;" horiz-adv-x="552" 
d="M272 -64q45 0 79 27t45 69q-28 -15 -59 -23.5t-65 -8.5q-53 0 -99.5 20t-81.5 55t-55 81.5t-20 99.5t20 99.5t55 81.5t81.5 55t99.5 20t99.5 -20t81.5 -55t55 -81.5t20 -99.5v-192q0 -53 -20 -99.5t-55 -81.5t-81.5 -55t-99.5 -20q-49 0 -96 18.5t-85 56.5q-19 19 -19 45
t19 45t45 19t45 -19q20 -19 43 -28t48 -9zM144 256q0 -27 10 -50t27.5 -40.5t40.5 -27.5t50 -10t50 10t40.5 27.5t27.5 40.5t10 50t-10 50t-27.5 40.5t-40.5 27.5t-50 10t-50 -10t-40.5 -27.5t-27.5 -40.5t-10 -50zM224 656q0 20 14 34t34 14t34 -14t14 -34v-64
q0 -20 -14 -34t-34 -14t-34 14t-14 34v64z" />
    <glyph glyph-name="Hcircumflex" unicode="&#x124;" horiz-adv-x="656" 
d="M168 64q0 -26 -19 -45t-45 -19t-45 19t-19 45v512q0 26 19 45t45 19t45 -19t19 -45v-192h320v192q0 26 19 45t45 19t45 -19t19 -45v-512q0 -26 -19 -45t-45 -19t-45 19t-19 45v192h-320v-192zM298 686q-14 -14 -34 -14t-34 14t-14 34t14 34l64 64q14 14 34 14t34 -14
l64 -64q14 -14 14 -34t-14 -34t-34 -14t-34 14l-30 30z" />
    <glyph glyph-name="hcircumflex" unicode="&#x125;" horiz-adv-x="576" 
d="M552 64q0 -26 -19 -45t-45 -19t-45 19t-19 45v192q0 27 -10 50t-27.5 40.5t-40.5 27.5t-50 10t-50 -10t-40.5 -27.5t-27.5 -40.5t-10 -50v-192q0 -26 -19 -45t-45 -19t-45 19t-19 45v576q0 26 19 45t45 19t45 -19t19 -45v-163q28 17 60.5 26t67.5 9q53 0 99.5 -20
t81.5 -55t55 -81.5t20 -99.5v-192zM266 686q-14 -14 -34 -14t-34 14t-14 34t14 34l64 64q14 14 34 14t34 -14l64 -64q14 -14 14 -34t-14 -34t-34 -14t-34 14l-30 30z" />
    <glyph glyph-name="Hbar" unicode="&#x126;" horiz-adv-x="752" 
d="M216 64q0 -26 -19 -45t-45 -19t-45 19t-19 45v352h-32q-20 0 -34 14t-14 34t14 34t34 14h32v64q0 26 19 45t45 19t45 -19t19 -45v-64h320v64q0 26 19 45t45 19t45 -19t19 -45v-64h32q20 0 34 -14t14 -34t-14 -34t-34 -14h-32v-352q0 -26 -19 -45t-45 -19t-45 19t-19 45
v192h-320v-192zM536 384v32h-320v-32h320z" />
    <glyph glyph-name="hbar" unicode="&#x127;" horiz-adv-x="576" 
d="M40 640q0 26 19 45t45 19t45 -19t19 -45h80q20 0 34 -14t14 -34t-14 -34t-34 -14h-80v-67q28 17 60.5 26t67.5 9q53 0 99.5 -20t81.5 -55t55 -81.5t20 -99.5v-192q0 -26 -19 -45t-45 -19t-45 19t-19 45v192q0 27 -10 50t-27.5 40.5t-40.5 27.5t-50 10t-50 -10
t-40.5 -27.5t-27.5 -40.5t-10 -50v-192q0 -26 -19 -45t-45 -19t-45 19t-19 45v480h-16q-20 0 -34 14t-14 34t14 34t34 14h16z" />
    <glyph glyph-name="Itilde" unicode="&#x128;" horiz-adv-x="400" 
d="M136 512h-64q-26 0 -45 19t-19 45t19 45t45 19h256q26 0 45 -19t19 -45t-19 -45t-45 -19h-64v-384h64q26 0 45 -19t19 -45t-19 -45t-45 -19h-256q-26 0 -45 19t-19 45t19 45t45 19h64v384zM158 704q-13 0 -20 -4.5t-16 -13.5q-14 -14 -34 -14t-34 14t-14 34t14 34
q23 23 48 34.5t56 11.5q13 0 25 -5t22.5 -11t19.5 -11t17 -5q13 0 20 4.5t16 13.5q14 14 34 14t34 -14t14 -34t-14 -34q-23 -23 -48 -34.5t-56 -11.5q-13 0 -25 5t-22.5 11t-19.5 11t-17 5z" />
    <glyph glyph-name="itilde" unicode="&#x129;" horiz-adv-x="208" 
d="M168 64q0 -26 -19 -45t-45 -19t-45 19t-19 45v384q0 26 19 45t45 19t45 -19t19 -45v-384zM63 576q-13 0 -20 -4.5t-16 -13.5q-14 -14 -34 -14t-34 14t-14 34t14 34q23 23 48 34.5t56 11.5q13 0 25 -5t22.5 -11t19.5 -11t17 -5q13 0 20 4.5t16 13.5q14 14 34 14t34 -14
t14 -34t-14 -34q-23 -23 -48 -34.5t-56 -11.5q-13 0 -25 5t-22.5 11t-19.5 11t-17 5z" />
    <glyph glyph-name="Imacron" unicode="&#x12a;" horiz-adv-x="400" 
d="M136 512h-64q-26 0 -45 19t-19 45t19 45t45 19h256q26 0 45 -19t19 -45t-19 -45t-45 -19h-64v-384h64q26 0 45 -19t19 -45t-19 -45t-45 -19h-256q-26 0 -45 19t-19 45t19 45t45 19h64v384zM312 784q20 0 34 -14t14 -34t-14 -34t-34 -14h-224q-20 0 -34 14t-14 34t14 34
t34 14h224z" />
    <glyph glyph-name="imacron" unicode="&#x12b;" horiz-adv-x="208" 
d="M168 64q0 -26 -19 -45t-45 -19t-45 19t-19 45v384q0 26 19 45t45 19t45 -19t19 -45v-384zM217 656q20 0 34 -14t14 -34t-14 -34t-34 -14h-224q-20 0 -34 14t-14 34t14 34t34 14h224z" />
    <glyph glyph-name="Ibreve" unicode="&#x12c;" horiz-adv-x="400" 
d="M136 512h-64q-26 0 -45 19t-19 45t19 45t45 19h256q26 0 45 -19t19 -45t-19 -45t-45 -19h-64v-384h64q26 0 45 -19t19 -45t-19 -45t-45 -19h-256q-26 0 -45 19t-19 45t19 45t45 19h64v384zM216 768q16 0 16 16q0 20 14 34t34 14t34 -14t14 -34q0 -23 -9 -43.5t-24 -35.5
t-35.5 -24t-43.5 -9h-32q-23 0 -43.5 9t-35.5 24t-24 35.5t-9 43.5q0 20 14 34t34 14t34 -14t14 -34q0 -16 16 -16h32z" />
    <glyph glyph-name="ibreve" unicode="&#x12d;" horiz-adv-x="208" 
d="M168 64q0 -26 -19 -45t-45 -19t-45 19t-19 45v384q0 26 19 45t45 19t45 -19t19 -45v-384zM121 640q16 0 16 16q0 20 14 34t34 14t34 -14t14 -34q0 -23 -9 -43.5t-24 -35.5t-35.5 -24t-43.5 -9h-32q-23 0 -43.5 9t-35.5 24t-24 35.5t-9 43.5q0 20 14 34t34 14t34 -14
t14 -34q0 -16 16 -16h32z" />
    <glyph glyph-name="Iogonek" unicode="&#x12e;" horiz-adv-x="400" 
d="M266 -82q14 14 34 14t34 -14t14 -34t-14 -34q-20 -20 -46 -31t-56 -11t-56 11.5t-45.5 31t-31 45.5t-11.5 56q0 24 8 48h-24q-26 0 -45 19t-19 45t19 45t45 19h64v384h-64q-26 0 -45 19t-19 45t19 45t45 19h256q26 0 45 -19t19 -45t-19 -45t-45 -19h-64v-384h64
q26 0 45 -19t19 -45t-19 -45t-45 -19h-96q-20 0 -34 -14t-14 -34t14 -34t34 -14t34 14z" />
    <glyph glyph-name="iogonek" unicode="&#x12f;" horiz-adv-x="208" 
d="M-40 -48q0 42 22.5 76.5t57.5 52.5v367q0 26 19 45t45 19t45 -19t19 -45v-384q0 -26 -19 -45t-45 -19q-20 0 -34 -14t-14 -34t14 -34t34 -14t34 14t34 14t34 -14t14 -34t-14 -34q-20 -20 -46 -31t-56 -11t-56 11.5t-45.5 31t-31 45.5t-11.5 56zM32 616q0 30 21 51t51 21
t51 -21t21 -51t-21 -51t-51 -21t-51 21t-21 51z" />
    <glyph glyph-name="Idotaccent" unicode="&#x130;" horiz-adv-x="400" 
d="M136 512h-64q-26 0 -45 19t-19 45t19 45t45 19h256q26 0 45 -19t19 -45t-19 -45t-45 -19h-64v-384h64q26 0 45 -19t19 -45t-19 -45t-45 -19h-256q-26 0 -45 19t-19 45t19 45t45 19h64v384zM136 736q0 26 19 45t45 19t45 -19t19 -45t-19 -45t-45 -19t-45 19t-19 45z" />
    <glyph glyph-name="dotlessi" unicode="&#x131;" horiz-adv-x="208" 
d="M168 64q0 -26 -19 -45t-45 -19t-45 19t-19 45v384q0 26 19 45t45 19t45 -19t19 -45v-384z" />
    <glyph glyph-name="IJ" unicode="&#x132;" horiz-adv-x="896" 
d="M136 512h-64q-26 0 -45 19t-19 45t19 45t45 19h256q26 0 45 -19t19 -45t-19 -45t-45 -19h-64v-384h64q26 0 45 -19t19 -45t-19 -45t-45 -19h-256q-26 0 -45 19t-19 45t19 45t45 19h64v384zM360 256q0 26 19 45t45 19t45 -19t19 -45q0 -27 10 -50t27.5 -40.5t40.5 -27.5
t50 -10t50 10t40.5 27.5t27.5 40.5t10 50v320q0 26 19 45t45 19t45 -19t19 -45v-320q0 -53 -20 -99.5t-55 -81.5t-81.5 -55t-99.5 -20t-99.5 20t-81.5 55t-55 81.5t-20 99.5z" />
    <glyph glyph-name="ij" unicode="&#x133;" horiz-adv-x="400" 
d="M168 64q0 -26 -19 -45t-45 -19t-45 19t-19 45v384q0 26 19 45t45 19t45 -19t19 -45v-384zM32 616q0 30 21 51t51 21t51 -21t21 -51t-21 -51t-51 -21t-51 21t-21 51zM168 -64q26 0 45 19t19 45v448q0 26 19 45t45 19t45 -19t19 -45v-448q0 -40 -15 -75t-41 -61t-61 -41
t-75 -15q-26 0 -45 19t-19 45t19 45t45 19zM224 616q0 30 21 51t51 21t51 -21t21 -51t-21 -51t-51 -21t-51 21t-21 51z" />
    <glyph glyph-name="Jcircumflex" unicode="&#x134;" horiz-adv-x="544" 
d="M8 256q0 26 19 45t45 19t45 -19t19 -45q0 -27 10 -50t27.5 -40.5t40.5 -27.5t50 -10t50 10t40.5 27.5t27.5 40.5t10 50v320q0 26 19 45t45 19t45 -19t19 -45v-320q0 -53 -20 -99.5t-55 -81.5t-81.5 -55t-99.5 -20t-99.5 20t-81.5 55t-55 81.5t-20 99.5zM426 686
q-14 -14 -34 -14t-34 14t-14 34t14 34l64 64q14 14 34 14t34 -14l64 -64q14 -14 14 -34t-14 -34t-34 -14t-34 14l-30 30z" />
    <glyph glyph-name="jcircumflex" unicode="&#x135;" horiz-adv-x="208" 
d="M-24 -64q26 0 45 19t19 45v448q0 26 19 45t45 19t45 -19t19 -45v-448q0 -40 -15 -75t-41 -61t-61 -41t-75 -15q-26 0 -45 19t-19 45t19 45t45 19zM74 558q-14 -14 -34 -14t-34 14t-14 34t14 34l64 64q14 14 34 14t34 -14l64 -64q14 -14 14 -34t-14 -34t-34 -14t-34 14
l-30 30z" />
    <glyph glyph-name="Kcommaaccent" unicode="&#x136;" horiz-adv-x="640" 
d="M424 367q42 -15 77 -41.5t60.5 -62t40 -78t14.5 -89.5v-32q0 -26 -19 -45t-45 -19t-45 19t-19 45v32q0 33 -12.5 62t-34.5 51t-51 34.5t-62 12.5h-160v-192q0 -26 -19 -45t-45 -19t-45 19t-19 45v512q0 26 19 45t45 19t45 -19t19 -45v-192h128q0 53 20 99.5t55 81.5
t81.5 55t99.5 20q26 0 45 -19t19 -45t-19 -45t-45 -19q-27 0 -50 -10t-40.5 -27.5t-27.5 -40.5t-10 -50v-17zM280 -80q0 20 14 34t34 14t34 -14t14 -34v-64q0 -20 -14 -34t-34 -14t-34 14t-14 34v64z" />
    <glyph glyph-name="kcommaaccent" unicode="&#x137;" horiz-adv-x="576" 
d="M168 320h72q10 41 33.5 76.5t56.5 61t73 40t85 14.5q26 0 45 -19t19 -45t-19 -45t-45 -19q-40 0 -71 -21t-46 -55q39 -12 72 -35.5t57.5 -55.5t38 -71t13.5 -82q0 -26 -19 -45t-45 -19t-45 19t-19 45q0 27 -10 50t-27.5 40.5t-40.5 27.5t-50 10h-128v-128q0 -26 -19 -45
t-45 -19t-45 19t-19 45v576q0 26 19 45t45 19t45 -19t19 -45v-320zM248 -80q0 20 14 34t34 14t34 -14t14 -34v-64q0 -20 -14 -34t-34 -14t-34 14t-14 34v64z" />
    <glyph glyph-name="kgreenlandic" unicode="&#x138;" horiz-adv-x="576" 
d="M168 320h72q10 41 33.5 76.5t56.5 61t73 40t85 14.5q26 0 45 -19t19 -45t-19 -45t-45 -19q-40 0 -71 -21t-46 -55q39 -12 72 -35.5t57.5 -55.5t38 -71t13.5 -82q0 -26 -19 -45t-45 -19t-45 19t-19 45q0 27 -10 50t-27.5 40.5t-40.5 27.5t-50 10h-128v-128q0 -26 -19 -45
t-45 -19t-45 19t-19 45v384q0 26 19 45t45 19t45 -19t19 -45v-128z" />
    <glyph glyph-name="Lacute" unicode="&#x139;" 
d="M40 576q0 26 19 45t45 19t45 -19t19 -45v-448h320q26 0 45 -19t19 -45t-19 -45t-45 -19h-384q-26 0 -45 19t-19 45v512zM122 686q-14 -14 -34 -14t-34 14t-14 34t14 34l64 64q14 14 34 14t34 -14t14 -34t-14 -34z" />
    <glyph glyph-name="lacute" unicode="&#x13a;" horiz-adv-x="208" 
d="M168 64q0 -26 -19 -45t-45 -19t-45 19t-19 45v512q0 26 19 45t45 19t45 -19t19 -45v-512zM122 686q-14 -14 -34 -14t-34 14t-14 34t14 34l64 64q14 14 34 14t34 -14t14 -34t-14 -34z" />
    <glyph glyph-name="Lcommaaccent" unicode="&#x13b;" 
d="M40 576q0 26 19 45t45 19t45 -19t19 -45v-448h320q26 0 45 -19t19 -45t-19 -45t-45 -19h-384q-26 0 -45 19t-19 45v512zM232 -80q0 20 14 34t34 14t34 -14t14 -34v-64q0 -20 -14 -34t-34 -14t-34 14t-14 34v64z" />
    <glyph glyph-name="lcommaaccent" unicode="&#x13c;" horiz-adv-x="208" 
d="M168 64q0 -26 -19 -45t-45 -19t-45 19t-19 45v576q0 26 19 45t45 19t45 -19t19 -45v-576zM56 -80q0 20 14 34t34 14t34 -14t14 -34v-64q0 -20 -14 -34t-34 -14t-34 14t-14 34v64z" />
    <glyph glyph-name="Lcaron" unicode="&#x13d;" 
d="M40 576q0 26 19 45t45 19t45 -19t19 -45v-448h320q26 0 45 -19t19 -45t-19 -45t-45 -19h-384q-26 0 -45 19t-19 45v512zM200 656q0 20 14 34t34 14t34 -14t14 -34v-64q0 -20 -14 -34t-34 -14t-34 14t-14 34v64z" />
    <glyph glyph-name="lcaron" unicode="&#x13e;" horiz-adv-x="208" 
d="M168 64q0 -26 -19 -45t-45 -19t-45 19t-19 45v576q0 26 19 45t45 19t45 -19t19 -45v-576zM200 656q0 20 14 34t34 14t34 -14t14 -34v-64q0 -20 -14 -34t-34 -14t-34 14t-14 34v64z" />
    <glyph glyph-name="Ldot" unicode="&#x13f;" 
d="M40 576q0 26 19 45t45 19t45 -19t19 -45v-448h320q26 0 45 -19t19 -45t-19 -45t-45 -19h-384q-26 0 -45 19t-19 45v512zM192 320q0 30 21 51t51 21t51 -21t21 -51t-21 -51t-51 -21t-51 21t-21 51z" />
    <glyph glyph-name="ldot" unicode="&#x140;" horiz-adv-x="336" 
d="M168 64q0 -26 -19 -45t-45 -19t-45 19t-19 45v576q0 26 19 45t45 19t45 -19t19 -45v-576zM200 320q0 30 21 51t51 21t51 -21t21 -51t-21 -51t-51 -21t-51 21t-21 51z" />
    <glyph glyph-name="Lslash" unicode="&#x141;" horiz-adv-x="608" 
d="M88 272h-32q-20 0 -34 14t-14 34t14 34t34 14h32v208q0 26 19 45t45 19t45 -19t19 -45v-160h64q20 0 34 -14t14 -34t-14 -34t-34 -14h-64v-192h320q26 0 45 -19t19 -45t-19 -45t-45 -19h-384q-26 0 -45 19t-19 45v208z" />
    <glyph glyph-name="lslash" unicode="&#x142;" horiz-adv-x="304" 
d="M216 416h32q20 0 34 -14t14 -34t-14 -34t-34 -14h-32v-256q0 -26 -19 -45t-45 -19t-45 19t-19 45v208h-32q-20 0 -34 14t-14 34t14 34t34 14h32v272q0 26 19 45t45 19t45 -19t19 -45v-224z" />
    <glyph glyph-name="Nacute" unicode="&#x143;" horiz-adv-x="656" 
d="M616 64q0 -26 -19 -45t-45 -19t-45 19t-19 45v288q0 33 -12.5 62t-34.5 51t-51 34.5t-62 12.5t-62 -12.5t-51 -34.5t-34.5 -51t-12.5 -62v-288q0 -26 -19 -45t-45 -19t-45 19t-19 45v288q0 60 22.5 112.5t61.5 91.5t91.5 61.5t112.5 22.5t112.5 -22.5t91.5 -61.5
t61.5 -91.5t22.5 -112.5v-288zM346 686q-14 -14 -34 -14t-34 14t-14 34t14 34l64 64q14 14 34 14t34 -14t14 -34t-14 -34z" />
    <glyph glyph-name="nacute" unicode="&#x144;" 
d="M536 64q0 -26 -19 -45t-45 -19t-45 19t-19 45v192q0 27 -10 50t-27.5 40.5t-40.5 27.5t-50 10t-50 -10t-40.5 -27.5t-27.5 -40.5t-10 -50v-192q0 -26 -19 -45t-45 -19t-45 19t-19 45v192q0 53 20 99.5t55 81.5t81.5 55t99.5 20t99.5 -20t81.5 -55t55 -81.5t20 -99.5v-192
zM298 558q-14 -14 -34 -14t-34 14t-14 34t14 34l64 64q14 14 34 14t34 -14t14 -34t-14 -34z" />
    <glyph glyph-name="Ncommaaccent" unicode="&#x145;" horiz-adv-x="656" 
d="M616 64q0 -26 -19 -45t-45 -19t-45 19t-19 45v288q0 33 -12.5 62t-34.5 51t-51 34.5t-62 12.5t-62 -12.5t-51 -34.5t-34.5 -51t-12.5 -62v-288q0 -26 -19 -45t-45 -19t-45 19t-19 45v288q0 60 22.5 112.5t61.5 91.5t91.5 61.5t112.5 22.5t112.5 -22.5t91.5 -61.5
t61.5 -91.5t22.5 -112.5v-288zM280 -80q0 20 14 34t34 14t34 -14t14 -34v-64q0 -20 -14 -34t-34 -14t-34 14t-14 34v64z" />
    <glyph glyph-name="ncommaaccent" unicode="&#x146;" 
d="M536 64q0 -26 -19 -45t-45 -19t-45 19t-19 45v192q0 27 -10 50t-27.5 40.5t-40.5 27.5t-50 10t-50 -10t-40.5 -27.5t-27.5 -40.5t-10 -50v-192q0 -26 -19 -45t-45 -19t-45 19t-19 45v192q0 53 20 99.5t55 81.5t81.5 55t99.5 20t99.5 -20t81.5 -55t55 -81.5t20 -99.5v-192
zM232 -80q0 20 14 34t34 14t34 -14t14 -34v-64q0 -20 -14 -34t-34 -14t-34 14t-14 34v64z" />
    <glyph glyph-name="Ncaron" unicode="&#x147;" horiz-adv-x="656" 
d="M616 64q0 -26 -19 -45t-45 -19t-45 19t-19 45v288q0 33 -12.5 62t-34.5 51t-51 34.5t-62 12.5t-62 -12.5t-51 -34.5t-34.5 -51t-12.5 -62v-288q0 -26 -19 -45t-45 -19t-45 19t-19 45v288q0 60 22.5 112.5t61.5 91.5t91.5 61.5t112.5 22.5t112.5 -22.5t91.5 -61.5
t61.5 -91.5t22.5 -112.5v-288zM358 818q14 14 34 14t34 -14t14 -34t-14 -34l-64 -64q-14 -14 -34 -14t-34 14l-64 64q-14 14 -14 34t14 34t34 14t34 -14l30 -30z" />
    <glyph glyph-name="ncaron" unicode="&#x148;" 
d="M536 64q0 -26 -19 -45t-45 -19t-45 19t-19 45v192q0 27 -10 50t-27.5 40.5t-40.5 27.5t-50 10t-50 -10t-40.5 -27.5t-27.5 -40.5t-10 -50v-192q0 -26 -19 -45t-45 -19t-45 19t-19 45v192q0 53 20 99.5t55 81.5t81.5 55t99.5 20t99.5 -20t81.5 -55t55 -81.5t20 -99.5v-192
zM310 690q14 14 34 14t34 -14t14 -34t-14 -34l-64 -64q-14 -14 -34 -14t-34 14l-64 64q-14 14 -14 34t14 34t34 14t34 -14l30 -30z" />
    <glyph glyph-name="napostrophe" unicode="&#x149;" 
d="M536 64q0 -26 -19 -45t-45 -19t-45 19t-19 45v192q0 27 -10 50t-27.5 40.5t-40.5 27.5t-50 10t-50 -10t-40.5 -27.5t-27.5 -40.5t-10 -50v-192q0 -26 -19 -45t-45 -19t-45 19t-19 45v192q0 53 20 99.5t55 81.5t81.5 55t99.5 20t99.5 -20t81.5 -55t55 -81.5t20 -99.5v-192
zM24 656q0 20 14 34t34 14t34 -14t14 -34v-64q0 -20 -14 -34t-34 -14t-34 14t-14 34v64z" />
    <glyph glyph-name="Eng" unicode="&#x14a;" horiz-adv-x="656" 
d="M488 352q0 33 -12.5 62t-34.5 51t-51 34.5t-62 12.5t-62 -12.5t-51 -34.5t-34.5 -51t-12.5 -62v-288q0 -26 -19 -45t-45 -19t-45 19t-19 45v288q0 60 22.5 112.5t61.5 91.5t91.5 61.5t112.5 22.5t112.5 -22.5t91.5 -61.5t61.5 -91.5t22.5 -112.5v-352q0 -40 -15 -75
t-41 -61t-61 -41t-75 -15q-26 0 -45 19t-19 45t19 45t45 19t45 19t19 45v352z" />
    <glyph glyph-name="eng" unicode="&#x14b;" 
d="M408 256q0 27 -10 50t-27.5 40.5t-40.5 27.5t-50 10t-50 -10t-40.5 -27.5t-27.5 -40.5t-10 -50v-192q0 -26 -19 -45t-45 -19t-45 19t-19 45v192q0 53 20 99.5t55 81.5t81.5 55t99.5 20t99.5 -20t81.5 -55t55 -81.5t20 -99.5v-256q0 -40 -15 -75t-41 -61t-61 -41t-75 -15
q-26 0 -45 19t-19 45t19 45t45 19t45 19t19 45v256z" />
    <glyph glyph-name="Omacron" unicode="&#x14c;" horiz-adv-x="672" 
d="M16 320q0 66 25 124.5t68.5 102t102 68.5t124.5 25t124.5 -25t102 -68.5t68.5 -102t25 -124.5t-25 -124.5t-68.5 -102t-102 -68.5t-124.5 -25t-124.5 25t-102 68.5t-68.5 102t-25 124.5zM144 320q0 -40 15 -75t41 -61t61 -41t75 -15t75 15t61 41t41 61t15 75t-15 75
t-41 61t-61 41t-75 15t-75 -15t-61 -41t-41 -61t-15 -75zM448 784q20 0 34 -14t14 -34t-14 -34t-34 -14h-224q-20 0 -34 14t-14 34t14 34t34 14h224z" />
    <glyph glyph-name="omacron" unicode="&#x14d;" horiz-adv-x="544" 
d="M16 256q0 53 20 99.5t55 81.5t81.5 55t99.5 20t99.5 -20t81.5 -55t55 -81.5t20 -99.5t-20 -99.5t-55 -81.5t-81.5 -55t-99.5 -20t-99.5 20t-81.5 55t-55 81.5t-20 99.5zM144 256q0 -27 10 -50t27.5 -40.5t40.5 -27.5t50 -10t50 10t40.5 27.5t27.5 40.5t10 50t-10 50
t-27.5 40.5t-40.5 27.5t-50 10t-50 -10t-40.5 -27.5t-27.5 -40.5t-10 -50zM384 656q20 0 34 -14t14 -34t-14 -34t-34 -14h-224q-20 0 -34 14t-14 34t14 34t34 14h224z" />
    <glyph glyph-name="Obreve" unicode="&#x14e;" horiz-adv-x="672" 
d="M16 320q0 66 25 124.5t68.5 102t102 68.5t124.5 25t124.5 -25t102 -68.5t68.5 -102t25 -124.5t-25 -124.5t-68.5 -102t-102 -68.5t-124.5 -25t-124.5 25t-102 68.5t-68.5 102t-25 124.5zM144 320q0 -40 15 -75t41 -61t61 -41t75 -15t75 15t61 41t41 61t15 75t-15 75
t-41 61t-61 41t-75 15t-75 -15t-61 -41t-41 -61t-15 -75zM352 768q16 0 16 16q0 20 14 34t34 14t34 -14t14 -34q0 -23 -9 -43.5t-24 -35.5t-35.5 -24t-43.5 -9h-32q-23 0 -43.5 9t-35.5 24t-24 35.5t-9 43.5q0 20 14 34t34 14t34 -14t14 -34q0 -16 16 -16h32z" />
    <glyph glyph-name="obreve" unicode="&#x14f;" horiz-adv-x="544" 
d="M16 256q0 53 20 99.5t55 81.5t81.5 55t99.5 20t99.5 -20t81.5 -55t55 -81.5t20 -99.5t-20 -99.5t-55 -81.5t-81.5 -55t-99.5 -20t-99.5 20t-81.5 55t-55 81.5t-20 99.5zM144 256q0 -27 10 -50t27.5 -40.5t40.5 -27.5t50 -10t50 10t40.5 27.5t27.5 40.5t10 50t-10 50
t-27.5 40.5t-40.5 27.5t-50 10t-50 -10t-40.5 -27.5t-27.5 -40.5t-10 -50zM288 640q16 0 16 16q0 20 14 34t34 14t34 -14t14 -34q0 -23 -9 -43.5t-24 -35.5t-35.5 -24t-43.5 -9h-32q-23 0 -43.5 9t-35.5 24t-24 35.5t-9 43.5q0 20 14 34t34 14t34 -14t14 -34q0 -16 16 -16
h32z" />
    <glyph glyph-name="Ohungarumlaut" unicode="&#x150;" horiz-adv-x="672" 
d="M16 320q0 66 25 124.5t68.5 102t102 68.5t124.5 25t124.5 -25t102 -68.5t68.5 -102t25 -124.5t-25 -124.5t-68.5 -102t-102 -68.5t-124.5 -25t-124.5 25t-102 68.5t-68.5 102t-25 124.5zM144 320q0 -40 15 -75t41 -61t61 -41t75 -15t75 15t61 41t41 61t15 75t-15 75
t-41 61t-61 41t-75 15t-75 -15t-61 -41t-41 -61t-15 -75zM274 686q-14 -14 -34 -14t-34 14t-14 34t14 34l64 64q14 14 34 14t34 -14t14 -34t-14 -34zM466 686q-14 -14 -34 -14t-34 14t-14 34t14 34l64 64q14 14 34 14t34 -14t14 -34t-14 -34z" />
    <glyph glyph-name="ohungarumlaut" unicode="&#x151;" horiz-adv-x="544" 
d="M16 256q0 53 20 99.5t55 81.5t81.5 55t99.5 20t99.5 -20t81.5 -55t55 -81.5t20 -99.5t-20 -99.5t-55 -81.5t-81.5 -55t-99.5 -20t-99.5 20t-81.5 55t-55 81.5t-20 99.5zM144 256q0 -27 10 -50t27.5 -40.5t40.5 -27.5t50 -10t50 10t40.5 27.5t27.5 40.5t10 50t-10 50
t-27.5 40.5t-40.5 27.5t-50 10t-50 -10t-40.5 -27.5t-27.5 -40.5t-10 -50zM210 558q-14 -14 -34 -14t-34 14t-14 34t14 34l64 64q14 14 34 14t34 -14t14 -34t-14 -34zM402 558q-14 -14 -34 -14t-34 14t-14 34t14 34l64 64q14 14 34 14t34 -14t14 -34t-14 -34z" />
    <glyph glyph-name="OE" unicode="&#x152;" horiz-adv-x="864" 
d="M784 640q26 0 45 -19t19 -45t-19 -45t-45 -19h-256v-128h224q26 0 45 -19t19 -45t-19 -45t-45 -19h-224v-128h256q26 0 45 -19t19 -45t-19 -45t-45 -19h-448q-66 0 -124.5 25t-102 68.5t-68.5 102t-25 124.5t25 124.5t68.5 102t102 68.5t124.5 25h64h384zM400 128v384
h-64q-40 0 -75 -15t-61 -41t-41 -61t-15 -75t15 -75t41 -61t61 -41t75 -15h64z" />
    <glyph glyph-name="oe" unicode="&#x153;" horiz-adv-x="928" 
d="M656 0q-58 0 -107.5 23t-84.5 64q-35 -41 -85 -64t-107 -23q-53 0 -99.5 20t-81.5 55t-55 81.5t-20 99.5t20 99.5t55 81.5t81.5 55t99.5 20q57 0 107 -23.5t85 -63.5q35 40 84.5 63.5t107.5 23.5q53 0 99.5 -20t81.5 -55t55 -81.5t20 -99.5q0 -26 -19 -45t-45 -19h-303
q17 -29 46 -46.5t65 -17.5h32q26 0 45 -19t19 -45t-19 -45t-45 -19h-32zM144 256q0 -27 10 -50t27.5 -40.5t40.5 -27.5t50 -10t50 10t40.5 27.5t27.5 40.5t10 50t-10 50t-27.5 40.5t-40.5 27.5t-50 10t-50 -10t-40.5 -27.5t-27.5 -40.5t-10 -50zM656 384q-36 0 -65 -17.5
t-46 -46.5h222q-17 29 -46.5 46.5t-64.5 17.5z" />
    <glyph glyph-name="Racute" unicode="&#x154;" horiz-adv-x="632" 
d="M168 64q0 -26 -19 -45t-45 -19t-45 19t-19 45v512q0 26 19 45t45 19h320q40 0 75 -15t61 -41t41 -61t15 -75t-15 -75t-41 -61t-61 -41t-75 -15q0 -27 10 -50t27.5 -40.5t40.5 -27.5t50 -10q26 0 45 -19t19 -45t-19 -45t-45 -19q-53 0 -99.5 20t-81.5 55t-55 81.5
t-20 99.5h-128v-192zM168 512v-128h256q26 0 45 19t19 45t-19 45t-45 19h-256zM330 686q-14 -14 -34 -14t-34 14t-14 34t14 34l64 64q14 14 34 14t34 -14t14 -34t-14 -34z" />
    <glyph glyph-name="racute" unicode="&#x155;" horiz-adv-x="352" 
d="M280 512q26 0 45 -19t19 -45t-19 -45t-45 -19q-27 0 -50 -10t-40.5 -27.5t-27.5 -40.5t-10 -50v-192q0 -26 -19 -45t-45 -19t-45 19t-19 45v192q0 53 20 99.5t55 81.5t81.5 55t99.5 20zM202 558q-14 -14 -34 -14t-34 14t-14 34t14 34l64 64q14 14 34 14t34 -14t14 -34
t-14 -34z" />
    <glyph glyph-name="Rcommaaccent" unicode="&#x156;" horiz-adv-x="632" 
d="M168 64q0 -26 -19 -45t-45 -19t-45 19t-19 45v512q0 26 19 45t45 19h320q40 0 75 -15t61 -41t41 -61t15 -75t-15 -75t-41 -61t-61 -41t-75 -15q0 -27 10 -50t27.5 -40.5t40.5 -27.5t50 -10q26 0 45 -19t19 -45t-19 -45t-45 -19q-53 0 -99.5 20t-81.5 55t-55 81.5
t-20 99.5h-128v-192zM168 512v-128h256q26 0 45 19t19 45t-19 45t-45 19h-256zM248 -80q0 20 14 34t34 14t34 -14t14 -34v-64q0 -20 -14 -34t-34 -14t-34 14t-14 34v64z" />
    <glyph glyph-name="rcommaaccent" unicode="&#x157;" horiz-adv-x="352" 
d="M280 512q26 0 45 -19t19 -45t-19 -45t-45 -19q-27 0 -50 -10t-40.5 -27.5t-27.5 -40.5t-10 -50v-192q0 -26 -19 -45t-45 -19t-45 19t-19 45v192q0 53 20 99.5t55 81.5t81.5 55t99.5 20zM40 -80q0 20 14 34t34 14t34 -14t14 -34v-64q0 -20 -14 -34t-34 -14t-34 14t-14 34
v64z" />
    <glyph glyph-name="Rcaron" unicode="&#x158;" horiz-adv-x="632" 
d="M168 64q0 -26 -19 -45t-45 -19t-45 19t-19 45v512q0 26 19 45t45 19h320q40 0 75 -15t61 -41t41 -61t15 -75t-15 -75t-41 -61t-61 -41t-75 -15q0 -27 10 -50t27.5 -40.5t40.5 -27.5t50 -10q26 0 45 -19t19 -45t-19 -45t-45 -19q-53 0 -99.5 20t-81.5 55t-55 81.5
t-20 99.5h-128v-192zM168 512v-128h256q26 0 45 19t19 45t-19 45t-45 19h-256zM342 818q14 14 34 14t34 -14t14 -34t-14 -34l-64 -64q-14 -14 -34 -14t-34 14l-64 64q-14 14 -14 34t14 34t34 14t34 -14l30 -30z" />
    <glyph glyph-name="rcaron" unicode="&#x159;" horiz-adv-x="352" 
d="M280 512q26 0 45 -19t19 -45t-19 -45t-45 -19q-27 0 -50 -10t-40.5 -27.5t-27.5 -40.5t-10 -50v-192q0 -26 -19 -45t-45 -19t-45 19t-19 45v192q0 53 20 99.5t55 81.5t81.5 55t99.5 20zM214 690q14 14 34 14t34 -14t14 -34t-14 -34l-64 -64q-14 -14 -34 -14t-34 14
l-64 64q-14 14 -14 34t14 34t34 14t34 -14l30 -30z" />
    <glyph glyph-name="Sacute" unicode="&#x15a;" horiz-adv-x="608" 
d="M408 128q26 0 45 19t19 45t-19 45t-45 19h-192q-40 0 -75 15t-61 41t-41 61t-15 75t15 75t41 61t61 41t75 15h288q26 0 45 -19t19 -45t-19 -45t-45 -19h-288q-26 0 -45 -19t-19 -45t19 -45t45 -19h192q40 0 75 -15t61 -41t41 -61t15 -75t-15 -75t-41 -61t-61 -41t-75 -15
h-320q-26 0 -45 19t-19 45t19 45t45 19h320zM330 686q-14 -14 -34 -14t-34 14t-14 34t14 34l64 64q14 14 34 14t34 -14t14 -34t-14 -34z" />
    <glyph glyph-name="sacute" unicode="&#x15b;" horiz-adv-x="480" 
d="M312 128q14 0 23 9t9 23t-9 23t-23 9h-128q-33 0 -62 12.5t-51 34.5t-34.5 51t-12.5 62t12.5 62t34.5 51t51 34.5t62 12.5h192q26 0 45 -19t19 -45t-19 -45t-45 -19h-192q-14 0 -23 -9t-9 -23t9 -23t23 -9h128q33 0 62 -12.5t51 -34.5t34.5 -51t12.5 -62t-12.5 -62
t-34.5 -51t-51 -34.5t-62 -12.5h-224q-26 0 -45 19t-19 45t19 45t45 19h224zM266 558q-14 -14 -34 -14t-34 14t-14 34t14 34l64 64q14 14 34 14t34 -14t14 -34t-14 -34z" />
    <glyph glyph-name="Scircumflex" unicode="&#x15c;" horiz-adv-x="608" 
d="M408 128q26 0 45 19t19 45t-19 45t-45 19h-192q-40 0 -75 15t-61 41t-41 61t-15 75t15 75t41 61t61 41t75 15h288q26 0 45 -19t19 -45t-19 -45t-45 -19h-288q-26 0 -45 -19t-19 -45t19 -45t45 -19h192q40 0 75 -15t61 -41t41 -61t15 -75t-15 -75t-41 -61t-61 -41t-75 -15
h-320q-26 0 -45 19t-19 45t19 45t45 19h320zM282 686q-14 -14 -34 -14t-34 14t-14 34t14 34l64 64q14 14 34 14t34 -14l64 -64q14 -14 14 -34t-14 -34t-34 -14t-34 14l-30 30z" />
    <glyph glyph-name="scircumflex" unicode="&#x15d;" horiz-adv-x="480" 
d="M312 128q14 0 23 9t9 23t-9 23t-23 9h-128q-33 0 -62 12.5t-51 34.5t-34.5 51t-12.5 62t12.5 62t34.5 51t51 34.5t62 12.5h192q26 0 45 -19t19 -45t-19 -45t-45 -19h-192q-14 0 -23 -9t-9 -23t9 -23t23 -9h128q33 0 62 -12.5t51 -34.5t34.5 -51t12.5 -62t-12.5 -62
t-34.5 -51t-51 -34.5t-62 -12.5h-224q-26 0 -45 19t-19 45t19 45t45 19h224zM218 558q-14 -14 -34 -14t-34 14t-14 34t14 34l64 64q14 14 34 14t34 -14l64 -64q14 -14 14 -34t-14 -34t-34 -14t-34 14l-30 30z" />
    <glyph glyph-name="Scedilla" unicode="&#x15e;" horiz-adv-x="608" 
d="M88 0q-26 0 -45 19t-19 45t19 45t45 19h320q26 0 45 19t19 45t-19 45t-45 19h-192q-40 0 -75 15t-61 41t-41 61t-15 75t15 75t41 61t61 41t75 15h288q26 0 45 -19t19 -45t-19 -45t-45 -19h-288q-26 0 -45 -19t-19 -45t19 -45t45 -19h192q40 0 75 -15t61 -41t41 -61
t15 -75q0 -37 -13 -69.5t-36 -58t-53.5 -42.5t-66.5 -21q4 -11 6.5 -23t2.5 -26q0 -30 -11.5 -56t-31 -45.5t-45.5 -31t-56 -11.5t-56 11t-46 31q-14 14 -14 34t14 34t34 14t34 -14t34 -14t34 14t14 34t-14 34t-34 14h-208z" />
    <glyph glyph-name="scedilla" unicode="&#x15f;" horiz-adv-x="480" 
d="M88 0q-26 0 -45 19t-19 45t19 45t45 19h224q14 0 23 9t9 23t-9 23t-23 9h-128q-33 0 -62 12.5t-51 34.5t-34.5 51t-12.5 62t12.5 62t34.5 51t51 34.5t62 12.5h192q26 0 45 -19t19 -45t-19 -45t-45 -19h-192q-14 0 -23 -9t-9 -23t9 -23t23 -9h128q33 0 62 -12.5t51 -34.5
t34.5 -51t12.5 -62q0 -55 -32.5 -97t-82.5 -57q11 -25 11 -54q0 -30 -11.5 -56t-31 -45.5t-45.5 -31t-56 -11.5t-56 11t-46 31q-14 14 -14 34t14 34t34 14t34 -14t34 -14t34 14t14 34t-14 34t-34 14h-136z" />
    <glyph glyph-name="Scaron" unicode="&#x160;" horiz-adv-x="608" 
d="M408 128q26 0 45 19t19 45t-19 45t-45 19h-192q-40 0 -75 15t-61 41t-41 61t-15 75t15 75t41 61t61 41t75 15h288q26 0 45 -19t19 -45t-19 -45t-45 -19h-288q-26 0 -45 -19t-19 -45t19 -45t45 -19h192q40 0 75 -15t61 -41t41 -61t15 -75t-15 -75t-41 -61t-61 -41t-75 -15
h-320q-26 0 -45 19t-19 45t19 45t45 19h320zM342 818q14 14 34 14t34 -14t14 -34t-14 -34l-64 -64q-14 -14 -34 -14t-34 14l-64 64q-14 14 -14 34t14 34t34 14t34 -14l30 -30z" />
    <glyph glyph-name="scaron" unicode="&#x161;" horiz-adv-x="480" 
d="M312 128q14 0 23 9t9 23t-9 23t-23 9h-128q-33 0 -62 12.5t-51 34.5t-34.5 51t-12.5 62t12.5 62t34.5 51t51 34.5t62 12.5h192q26 0 45 -19t19 -45t-19 -45t-45 -19h-192q-14 0 -23 -9t-9 -23t9 -23t23 -9h128q33 0 62 -12.5t51 -34.5t34.5 -51t12.5 -62t-12.5 -62
t-34.5 -51t-51 -34.5t-62 -12.5h-224q-26 0 -45 19t-19 45t19 45t45 19h224zM278 690q14 14 34 14t34 -14t14 -34t-14 -34l-64 -64q-14 -14 -34 -14t-34 14l-64 64q-14 14 -14 34t14 34t34 14t34 -14l30 -30z" />
    <glyph glyph-name="uni0162" unicode="&#x162;" horiz-adv-x="592" 
d="M360 81q35 -18 57.5 -52.5t22.5 -76.5q0 -30 -11.5 -56t-31 -45.5t-45.5 -31t-56 -11.5t-56 11t-46 31q-14 14 -14 34t14 34t34 14t34 -14t34 -14t34 14t14 34t-14 34t-34 14q-26 0 -45 19t-19 45v448h-160q-26 0 -45 19t-19 45t19 45t45 19h448q26 0 45 -19t19 -45
t-19 -45t-45 -19h-160v-431z" />
    <glyph glyph-name="uni0163" unicode="&#x163;" horiz-adv-x="336" 
d="M260 -48q0 -30 -11.5 -56t-31 -45.5t-45.5 -31t-56 -11.5t-56 11t-46 31q-14 14 -14 34t14 34t34 14t34 -14t34 -14t34 14t14 34q0 9 -3 18t-10 16l-71 70q-29 28 -42.5 63.5t-13.5 72.5v384q0 26 19 45t45 19t45 -19t19 -45v-64h96q26 0 45 -19t19 -45t-19 -45t-45 -19
h-96v-192q0 -26 19 -45t45 -19h32q26 0 45 -19t19 -45t-17.5 -44t-43.5 -20q9 -23 9 -48z" />
    <glyph glyph-name="Tcaron" unicode="&#x164;" horiz-adv-x="592" 
d="M232 512h-160q-26 0 -45 19t-19 45t19 45t45 19h448q26 0 45 -19t19 -45t-19 -45t-45 -19h-160v-448q0 -26 -19 -45t-45 -19t-45 19t-19 45v448zM326 818q14 14 34 14t34 -14t14 -34t-14 -34l-64 -64q-14 -14 -34 -14t-34 14l-64 64q-14 14 -14 34t14 34t34 14t34 -14
l30 -30z" />
    <glyph glyph-name="tcaron" unicode="&#x165;" horiz-adv-x="336" 
d="M248 128q26 0 45 -19t19 -45t-19 -45t-45 -19h-32q-40 0 -75 15t-61 41t-41 61t-15 75v384q0 26 19 45t45 19t45 -19t19 -45v-64h96q26 0 45 -19t19 -45t-19 -45t-45 -19h-96v-192q0 -26 19 -45t45 -19h32zM184 656q0 20 14 34t34 14t34 -14t14 -34v-64q0 -20 -14 -34
t-34 -14t-34 14t-14 34v64z" />
    <glyph glyph-name="Tbar" unicode="&#x166;" horiz-adv-x="592" 
d="M232 256h-32q-26 0 -45 19t-19 45t19 45t45 19h32v128h-160q-26 0 -45 19t-19 45t19 45t45 19h448q26 0 45 -19t19 -45t-19 -45t-45 -19h-160v-128h32q26 0 45 -19t19 -45t-19 -45t-45 -19h-32v-192q0 -26 -19 -45t-45 -19t-45 19t-19 45v192z" />
    <glyph glyph-name="tbar" unicode="&#x167;" horiz-adv-x="336" 
d="M248 128q26 0 45 -19t19 -45t-19 -45t-45 -19h-32q-40 0 -75 15t-61 41t-41 61t-15 75v384q0 26 19 45t45 19t45 -19t19 -45v-64h96q26 0 45 -19t19 -45t-19 -45t-45 -19h-96v-48h96q26 0 45 -19t19 -45t-19 -45t-45 -19h-96v-16q0 -26 19 -45t45 -19h32z" />
    <glyph glyph-name="Utilde" unicode="&#x168;" horiz-adv-x="624" 
d="M600 288q0 -60 -22.5 -112.5t-61.5 -91.5t-91.5 -61.5t-112.5 -22.5t-112.5 22.5t-91.5 61.5t-61.5 91.5t-22.5 112.5v288q0 26 19 45t45 19t45 -19t19 -45v-288q0 -33 12.5 -62t34.5 -51t51 -34.5t62 -12.5t62 12.5t51 34.5t34.5 51t12.5 62v288q0 26 19 45t45 19
t45 -19t19 -45v-288zM270 704q-13 0 -20 -4.5t-16 -13.5q-14 -14 -34 -14t-34 14t-14 34t14 34q23 23 48 34.5t56 11.5q13 0 25 -5t22.5 -11t19.5 -11t17 -5q13 0 20 4.5t16 13.5q14 14 34 14t34 -14t14 -34t-14 -34q-23 -23 -48 -34.5t-56 -11.5q-13 0 -25 5t-22.5 11
t-19.5 11t-17 5z" />
    <glyph glyph-name="utilde" unicode="&#x169;" 
d="M536 256q0 -53 -20 -99.5t-55 -81.5t-81.5 -55t-99.5 -20t-99.5 20t-81.5 55t-55 81.5t-20 99.5v192q0 26 19 45t45 19t45 -19t19 -45v-192q0 -27 10 -50t27.5 -40.5t40.5 -27.5t50 -10t50 10t40.5 27.5t27.5 40.5t10 50v192q0 26 19 45t45 19t45 -19t19 -45v-192z
M238 576q-13 0 -20 -4.5t-16 -13.5q-14 -14 -34 -14t-34 14t-14 34t14 34q23 23 48 34.5t56 11.5q13 0 25 -5t22.5 -11t19.5 -11t17 -5q13 0 20 4.5t16 13.5q14 14 34 14t34 -14t14 -34t-14 -34q-23 -23 -48 -34.5t-56 -11.5q-13 0 -25 5t-22.5 11t-19.5 11t-17 5z" />
    <glyph glyph-name="Umacron" unicode="&#x16a;" horiz-adv-x="624" 
d="M600 288q0 -60 -22.5 -112.5t-61.5 -91.5t-91.5 -61.5t-112.5 -22.5t-112.5 22.5t-91.5 61.5t-61.5 91.5t-22.5 112.5v288q0 26 19 45t45 19t45 -19t19 -45v-288q0 -33 12.5 -62t34.5 -51t51 -34.5t62 -12.5t62 12.5t51 34.5t34.5 51t12.5 62v288q0 26 19 45t45 19
t45 -19t19 -45v-288zM424 784q20 0 34 -14t14 -34t-14 -34t-34 -14h-224q-20 0 -34 14t-14 34t14 34t34 14h224z" />
    <glyph glyph-name="umacron" unicode="&#x16b;" 
d="M536 256q0 -53 -20 -99.5t-55 -81.5t-81.5 -55t-99.5 -20t-99.5 20t-81.5 55t-55 81.5t-20 99.5v192q0 26 19 45t45 19t45 -19t19 -45v-192q0 -27 10 -50t27.5 -40.5t40.5 -27.5t50 -10t50 10t40.5 27.5t27.5 40.5t10 50v192q0 26 19 45t45 19t45 -19t19 -45v-192z
M392 656q20 0 34 -14t14 -34t-14 -34t-34 -14h-224q-20 0 -34 14t-14 34t14 34t34 14h224z" />
    <glyph glyph-name="Ubreve" unicode="&#x16c;" horiz-adv-x="624" 
d="M600 288q0 -60 -22.5 -112.5t-61.5 -91.5t-91.5 -61.5t-112.5 -22.5t-112.5 22.5t-91.5 61.5t-61.5 91.5t-22.5 112.5v288q0 26 19 45t45 19t45 -19t19 -45v-288q0 -33 12.5 -62t34.5 -51t51 -34.5t62 -12.5t62 12.5t51 34.5t34.5 51t12.5 62v288q0 26 19 45t45 19
t45 -19t19 -45v-288zM328 768q16 0 16 16q0 20 14 34t34 14t34 -14t14 -34q0 -23 -9 -43.5t-24 -35.5t-35.5 -24t-43.5 -9h-32q-23 0 -43.5 9t-35.5 24t-24 35.5t-9 43.5q0 20 14 34t34 14t34 -14t14 -34q0 -16 16 -16h32z" />
    <glyph glyph-name="ubreve" unicode="&#x16d;" 
d="M536 256q0 -53 -20 -99.5t-55 -81.5t-81.5 -55t-99.5 -20t-99.5 20t-81.5 55t-55 81.5t-20 99.5v192q0 26 19 45t45 19t45 -19t19 -45v-192q0 -27 10 -50t27.5 -40.5t40.5 -27.5t50 -10t50 10t40.5 27.5t27.5 40.5t10 50v192q0 26 19 45t45 19t45 -19t19 -45v-192z
M296 640q16 0 16 16q0 20 14 34t34 14t34 -14t14 -34q0 -23 -9 -43.5t-24 -35.5t-35.5 -24t-43.5 -9h-32q-23 0 -43.5 9t-35.5 24t-24 35.5t-9 43.5q0 20 14 34t34 14t34 -14t14 -34q0 -16 16 -16h32z" />
    <glyph glyph-name="Uring" unicode="&#x16e;" horiz-adv-x="624" 
d="M600 288q0 -60 -22.5 -112.5t-61.5 -91.5t-91.5 -61.5t-112.5 -22.5t-112.5 22.5t-91.5 61.5t-61.5 91.5t-22.5 112.5v288q0 26 19 45t45 19t45 -19t19 -45v-288q0 -33 12.5 -62t34.5 -51t51 -34.5t62 -12.5t62 12.5t51 34.5t34.5 51t12.5 62v288q0 26 19 45t45 19
t45 -19t19 -45v-288zM260 692q0 -22 15 -37t37 -15t37 15t15 37t-15 37t-37 15t-37 -15t-15 -37zM172 692q0 29 11 54.5t30 44.5t44.5 30t54.5 11t54.5 -11t44.5 -30t30 -44.5t11 -54.5t-11 -54.5t-30 -44.5t-44.5 -30t-54.5 -11t-54.5 11t-44.5 30t-30 44.5t-11 54.5z" />
    <glyph glyph-name="uring" unicode="&#x16f;" 
d="M536 256q0 -53 -20 -99.5t-55 -81.5t-81.5 -55t-99.5 -20t-99.5 20t-81.5 55t-55 81.5t-20 99.5v192q0 26 19 45t45 19t45 -19t19 -45v-192q0 -27 10 -50t27.5 -40.5t40.5 -27.5t50 -10t50 10t40.5 27.5t27.5 40.5t10 50v192q0 26 19 45t45 19t45 -19t19 -45v-192z
M228 564q0 -22 15 -37t37 -15t37 15t15 37t-15 37t-37 15t-37 -15t-15 -37zM140 564q0 29 11 54.5t30 44.5t44.5 30t54.5 11t54.5 -11t44.5 -30t30 -44.5t11 -54.5t-11 -54.5t-30 -44.5t-44.5 -30t-54.5 -11t-54.5 11t-44.5 30t-30 44.5t-11 54.5z" />
    <glyph glyph-name="Uhungarumlaut" unicode="&#x170;" horiz-adv-x="624" 
d="M600 288q0 -60 -22.5 -112.5t-61.5 -91.5t-91.5 -61.5t-112.5 -22.5t-112.5 22.5t-91.5 61.5t-61.5 91.5t-22.5 112.5v288q0 26 19 45t45 19t45 -19t19 -45v-288q0 -33 12.5 -62t34.5 -51t51 -34.5t62 -12.5t62 12.5t51 34.5t34.5 51t12.5 62v288q0 26 19 45t45 19
t45 -19t19 -45v-288zM250 686q-14 -14 -34 -14t-34 14t-14 34t14 34l64 64q14 14 34 14t34 -14t14 -34t-14 -34zM442 686q-14 -14 -34 -14t-34 14t-14 34t14 34l64 64q14 14 34 14t34 -14t14 -34t-14 -34z" />
    <glyph glyph-name="uhungarumlaut" unicode="&#x171;" 
d="M536 256q0 -53 -20 -99.5t-55 -81.5t-81.5 -55t-99.5 -20t-99.5 20t-81.5 55t-55 81.5t-20 99.5v192q0 26 19 45t45 19t45 -19t19 -45v-192q0 -27 10 -50t27.5 -40.5t40.5 -27.5t50 -10t50 10t40.5 27.5t27.5 40.5t10 50v192q0 26 19 45t45 19t45 -19t19 -45v-192z
M218 558q-14 -14 -34 -14t-34 14t-14 34t14 34l64 64q14 14 34 14t34 -14t14 -34t-14 -34zM410 558q-14 -14 -34 -14t-34 14t-14 34t14 34l64 64q14 14 34 14t34 -14t14 -34t-14 -34z" />
    <glyph glyph-name="Uogonek" unicode="&#x172;" horiz-adv-x="624" 
d="M312 0q-60 0 -112.5 22.5t-91.5 61.5t-61.5 91.5t-22.5 112.5v288q0 26 19 45t45 19t45 -19t19 -45v-288q0 -33 12.5 -62t34.5 -51t51 -34.5t62 -12.5t62 12.5t51 34.5t34.5 51t12.5 62v288q0 26 19 45t45 19t45 -19t19 -45v-288q0 -60 -22.5 -111.5t-61.5 -91.5
l-100 -100q-14 -14 -14 -33q0 -20 14 -34t34 -14t34 14t34 14t34 -14t14 -34t-14 -34q-20 -20 -46 -31t-56 -11t-56 11.5t-45.5 31t-31 45.5t-11.5 56q0 24 8 48h-2z" />
    <glyph glyph-name="uogonek" unicode="&#x173;" 
d="M24 256v192q0 26 19 45t45 19t45 -19t19 -45v-192q0 -27 10 -50t27.5 -40.5t40.5 -27.5t50 -10t50 10t40.5 27.5t27.5 40.5t10 50v192q0 26 19 45t45 19t45 -19t19 -45v-192q0 -50 -18.5 -96.5t-56.5 -84.5l-89 -89q-14 -14 -14 -34t14 -34t34 -14t34 14t34 14t34 -14
t14 -34t-14 -34q-20 -20 -46 -31t-56 -11t-56 11.5t-45.5 31t-31 45.5t-11.5 56q0 24 8 48q-51 2 -96 23t-78.5 55.5t-52.5 80t-19 97.5z" />
    <glyph glyph-name="Wcircumflex" unicode="&#x174;" horiz-adv-x="944" 
d="M920 256q0 -53 -20 -99.5t-55 -81.5t-81.5 -55t-99.5 -20q-58 0 -108 23.5t-85 64.5q-35 -41 -84.5 -64.5t-106.5 -23.5q-53 0 -99.5 20t-81.5 55t-55 81.5t-20 99.5v320q0 26 19 45t45 19t45 -19t19 -45v-320q0 -27 10 -50t27.5 -40.5t40.5 -27.5t50 -10t50 10
t40.5 27.5t27.5 40.5t10 50v320q0 26 19 45t45 19t45 -19t19 -45v-320q0 -27 10 -50t27.5 -40.5t40.5 -27.5t50 -10t50 10t40.5 27.5t27.5 40.5t10 50v320q0 26 19 45t45 19t45 -19t19 -45v-320zM442 686q-14 -14 -34 -14t-34 14t-14 34t14 34l64 64q14 14 34 14t34 -14
l64 -64q14 -14 14 -34t-14 -34t-34 -14t-34 14l-30 30z" />
    <glyph glyph-name="wcircumflex" unicode="&#x175;" horiz-adv-x="816" 
d="M248 128q40 0 68 28t28 68v160q0 26 19 45t45 19t45 -19t19 -45v-160q0 -40 28 -68t68 -28t68 28t28 68v224q0 26 19 45t45 19t45 -19t19 -45v-224q0 -47 -17.5 -87.5t-48 -71t-71.5 -48t-87 -17.5q-48 0 -89 17.5t-71 49.5q-31 -32 -71.5 -49.5t-88.5 -17.5
q-47 0 -87.5 17.5t-71 48t-48 71t-17.5 87.5v224q0 26 19 45t45 19t45 -19t19 -45v-224q0 -40 28 -68t68 -28zM378 558q-14 -14 -34 -14t-34 14t-14 34t14 34l64 64q14 14 34 14t34 -14l64 -64q14 -14 14 -34t-14 -34t-34 -14t-34 14l-30 30z" />
    <glyph glyph-name="Ycircumflex" unicode="&#x176;" horiz-adv-x="624" 
d="M600 464q0 -51 -17 -97.5t-47 -83.5t-71 -63t-89 -37v-119q0 -26 -19 -45t-45 -19t-45 19t-19 45v119q-48 11 -89 37t-71 63t-47 83.5t-17 97.5v112q0 26 19 45t45 19t45 -19t19 -45v-112q0 -33 12.5 -62t34.5 -51t51 -34.5t62 -12.5t62 12.5t51 34.5t34.5 51t12.5 62
v112q0 26 19 45t45 19t45 -19t19 -45v-112zM282 686q-14 -14 -34 -14t-34 14t-14 34t14 34l64 64q14 14 34 14t34 -14l64 -64q14 -14 14 -34t-14 -34t-34 -14t-34 14l-30 30z" />
    <glyph glyph-name="ycircumflex" unicode="&#x177;" horiz-adv-x="576" 
d="M280 -64q45 0 79 27t45 69q-28 -15 -59 -23.5t-65 -8.5q-53 0 -99.5 20t-81.5 55t-55 81.5t-20 99.5v192q0 26 19 45t45 19t45 -19t19 -45v-192q0 -27 10 -50t27.5 -40.5t40.5 -27.5t50 -10t50 10t40.5 27.5t27.5 40.5t10 50v192q0 26 19 45t45 19t45 -19t19 -45v-384
q0 -53 -20 -99.5t-55 -81.5t-81.5 -55t-99.5 -20q-49 0 -96 18.5t-85 56.5q-19 19 -19 45t19 45t45 19t45 -19q20 -19 43 -28t48 -9zM250 558q-14 -14 -34 -14t-34 14t-14 34t14 34l64 64q14 14 34 14t34 -14l64 -64q14 -14 14 -34t-14 -34t-34 -14t-34 14l-30 30z" />
    <glyph glyph-name="Ydieresis" unicode="&#x178;" horiz-adv-x="624" 
d="M600 464q0 -51 -17 -97.5t-47 -83.5t-71 -63t-89 -37v-119q0 -26 -19 -45t-45 -19t-45 19t-19 45v119q-48 11 -89 37t-71 63t-47 83.5t-17 97.5v112q0 26 19 45t45 19t45 -19t19 -45v-112q0 -33 12.5 -62t34.5 -51t51 -34.5t62 -12.5t62 12.5t51 34.5t34.5 51t12.5 62
v112q0 26 19 45t45 19t45 -19t19 -45v-112zM168 736q0 26 19 45t45 19t45 -19t19 -45t-19 -45t-45 -19t-45 19t-19 45zM328 736q0 26 19 45t45 19t45 -19t19 -45t-19 -45t-45 -19t-45 19t-19 45z" />
    <glyph glyph-name="Zacute" unicode="&#x179;" horiz-adv-x="608" 
d="M336 384q27 0 50 10t40.5 27.5t27.5 40.5t10 50h-352q-26 0 -45 19t-19 45t19 45t45 19h416q26 0 45 -19t19 -45v-64q0 -53 -20 -99.5t-55 -81.5t-81.5 -55t-99.5 -20h-64q-27 0 -50 -10t-40.5 -27.5t-27.5 -40.5t-10 -50h384q26 0 45 -19t19 -45t-19 -45t-45 -19h-448
q-26 0 -45 19t-19 45v64q0 53 20 99.5t55 81.5t81.5 55t99.5 20h64zM338 686q-14 -14 -34 -14t-34 14t-14 34t14 34l64 64q14 14 34 14t34 -14t14 -34t-14 -34z" />
    <glyph glyph-name="zacute" unicode="&#x17a;" 
d="M280 320q35 0 64.5 17.5t46.5 46.5h-303q-26 0 -45 19t-19 45t19 45t45 19h384q26 0 45 -19t19 -45q0 -53 -20 -99.5t-55 -81.5t-81.5 -55t-99.5 -20q-36 0 -65 -17.5t-46 -46.5h303q26 0 45 -19t19 -45t-19 -45t-45 -19h-384q-26 0 -45 19t-19 45q0 53 20 99.5t55 81.5
t81.5 55t99.5 20zM298 558q-14 -14 -34 -14t-34 14t-14 34t14 34l64 64q14 14 34 14t34 -14t14 -34t-14 -34z" />
    <glyph glyph-name="Zdotaccent" unicode="&#x17b;" horiz-adv-x="608" 
d="M336 384q27 0 50 10t40.5 27.5t27.5 40.5t10 50h-352q-26 0 -45 19t-19 45t19 45t45 19h416q26 0 45 -19t19 -45v-64q0 -53 -20 -99.5t-55 -81.5t-81.5 -55t-99.5 -20h-64q-27 0 -50 -10t-40.5 -27.5t-27.5 -40.5t-10 -50h384q26 0 45 -19t19 -45t-19 -45t-45 -19h-448
q-26 0 -45 19t-19 45v64q0 53 20 99.5t55 81.5t81.5 55t99.5 20h64zM272 736q0 26 19 45t45 19t45 -19t19 -45t-19 -45t-45 -19t-45 19t-19 45z" />
    <glyph glyph-name="zdotaccent" unicode="&#x17c;" 
d="M280 320q35 0 64.5 17.5t46.5 46.5h-303q-26 0 -45 19t-19 45t19 45t45 19h384q26 0 45 -19t19 -45q0 -53 -20 -99.5t-55 -81.5t-81.5 -55t-99.5 -20q-36 0 -65 -17.5t-46 -46.5h303q26 0 45 -19t19 -45t-19 -45t-45 -19h-384q-26 0 -45 19t-19 45q0 53 20 99.5t55 81.5
t81.5 55t99.5 20zM216 608q0 26 19 45t45 19t45 -19t19 -45t-19 -45t-45 -19t-45 19t-19 45z" />
    <glyph glyph-name="Zcaron" unicode="&#x17d;" horiz-adv-x="608" 
d="M336 384q27 0 50 10t40.5 27.5t27.5 40.5t10 50h-352q-26 0 -45 19t-19 45t19 45t45 19h416q26 0 45 -19t19 -45v-64q0 -53 -20 -99.5t-55 -81.5t-81.5 -55t-99.5 -20h-64q-27 0 -50 -10t-40.5 -27.5t-27.5 -40.5t-10 -50h384q26 0 45 -19t19 -45t-19 -45t-45 -19h-448
q-26 0 -45 19t-19 45v64q0 53 20 99.5t55 81.5t81.5 55t99.5 20h64zM350 818q14 14 34 14t34 -14t14 -34t-14 -34l-64 -64q-14 -14 -34 -14t-34 14l-64 64q-14 14 -14 34t14 34t34 14t34 -14l30 -30z" />
    <glyph glyph-name="zcaron" unicode="&#x17e;" 
d="M280 320q35 0 64.5 17.5t46.5 46.5h-303q-26 0 -45 19t-19 45t19 45t45 19h384q26 0 45 -19t19 -45q0 -53 -20 -99.5t-55 -81.5t-81.5 -55t-99.5 -20q-36 0 -65 -17.5t-46 -46.5h303q26 0 45 -19t19 -45t-19 -45t-45 -19h-384q-26 0 -45 19t-19 45q0 53 20 99.5t55 81.5
t81.5 55t99.5 20zM310 690q14 14 34 14t34 -14t14 -34t-14 -34l-64 -64q-14 -14 -34 -14t-34 14l-64 64q-14 14 -14 34t14 34t34 14t34 -14l30 -30z" />
    <glyph glyph-name="florin" unicode="&#x192;" 
d="M344 256v-256q0 -40 -15 -75t-41 -61t-61 -41t-75 -15h-64q-26 0 -45 19t-19 45t19 45t45 19h64q26 0 45 19t19 45v256h-64q-26 0 -45 19t-19 45t19 45t45 19h64v128q0 40 15 75t41 61t61 41t75 15h64q26 0 45 -19t19 -45t-19 -45t-45 -19h-64q-26 0 -45 -19t-19 -45
v-128h64q26 0 45 -19t19 -45t-19 -45t-45 -19h-64z" />
    <glyph glyph-name="uni0218" unicode="&#x218;" horiz-adv-x="608" 
d="M408 128q26 0 45 19t19 45t-19 45t-45 19h-192q-40 0 -75 15t-61 41t-41 61t-15 75t15 75t41 61t61 41t75 15h288q26 0 45 -19t19 -45t-19 -45t-45 -19h-288q-26 0 -45 -19t-19 -45t19 -45t45 -19h192q40 0 75 -15t61 -41t41 -61t15 -75t-15 -75t-41 -61t-61 -41t-75 -15
h-320q-26 0 -45 19t-19 45t19 45t45 19h320zM264 -80q0 20 14 34t34 14t34 -14t14 -34v-64q0 -20 -14 -34t-34 -14t-34 14t-14 34v64z" />
    <glyph glyph-name="uni0219" unicode="&#x219;" horiz-adv-x="480" 
d="M312 128q14 0 23 9t9 23t-9 23t-23 9h-128q-33 0 -62 12.5t-51 34.5t-34.5 51t-12.5 62t12.5 62t34.5 51t51 34.5t62 12.5h192q26 0 45 -19t19 -45t-19 -45t-45 -19h-192q-14 0 -23 -9t-9 -23t9 -23t23 -9h128q33 0 62 -12.5t51 -34.5t34.5 -51t12.5 -62t-12.5 -62
t-34.5 -51t-51 -34.5t-62 -12.5h-224q-26 0 -45 19t-19 45t19 45t45 19h224zM200 -80q0 20 14 34t34 14t34 -14t14 -34v-64q0 -20 -14 -34t-34 -14t-34 14t-14 34v64z" />
    <glyph glyph-name="uni021A" unicode="&#x21a;" horiz-adv-x="592" 
d="M232 512h-160q-26 0 -45 19t-19 45t19 45t45 19h448q26 0 45 -19t19 -45t-19 -45t-45 -19h-160v-448q0 -26 -19 -45t-45 -19t-45 19t-19 45v448zM248 -80q0 20 14 34t34 14t34 -14t14 -34v-64q0 -20 -14 -34t-34 -14t-34 14t-14 34v64z" />
    <glyph glyph-name="uni021B" unicode="&#x21b;" horiz-adv-x="336" 
d="M248 128q26 0 45 -19t19 -45t-19 -45t-45 -19h-32q-40 0 -75 15t-61 41t-41 61t-15 75v384q0 26 19 45t45 19t45 -19t19 -45v-64h96q26 0 45 -19t19 -45t-19 -45t-45 -19h-96v-192q0 -26 19 -45t45 -19h32zM120 -80q0 20 14 34t34 14t34 -14t14 -34v-64q0 -20 -14 -34
t-34 -14t-34 14t-14 34v64z" />
    <glyph glyph-name="Adotaccent" unicode="&#x226;" horiz-adv-x="656" 
d="M616 64q0 -26 -19 -45t-45 -19t-45 19t-19 45v128h-320v-128q0 -26 -19 -45t-45 -19t-45 19t-19 45v288q0 60 22.5 112.5t61.5 91.5t91.5 61.5t112.5 22.5t112.5 -22.5t91.5 -61.5t61.5 -91.5t22.5 -112.5v-288zM168 320h320v32q0 33 -12.5 62t-34.5 51t-51 34.5
t-62 12.5t-62 -12.5t-51 -34.5t-34.5 -51t-12.5 -62v-32zM264 736q0 26 19 45t45 19t45 -19t19 -45t-19 -45t-45 -19t-45 19t-19 45z" />
    <glyph glyph-name="adotaccent" unicode="&#x227;" horiz-adv-x="552" 
d="M16 256q0 53 20 99.5t55 81.5t81.5 55t99.5 20t99.5 -20t81.5 -55t55 -81.5t20 -99.5v-192q0 -26 -19 -45t-45 -19q-20 0 -35.5 10.5t-23.5 27.5q-29 -18 -62.5 -28t-70.5 -10q-53 0 -99.5 20t-81.5 55t-55 81.5t-20 99.5zM144 256q0 -27 10 -50t27.5 -40.5t40.5 -27.5
t50 -10t50 10t40.5 27.5t27.5 40.5t10 50t-10 50t-27.5 40.5t-40.5 27.5t-50 10t-50 -10t-40.5 -27.5t-27.5 -40.5t-10 -50zM208 608q0 26 19 45t45 19t45 -19t19 -45t-19 -45t-45 -19t-45 19t-19 45z" />
    <glyph glyph-name="Odotaccent" unicode="&#x22e;" horiz-adv-x="672" 
d="M16 320q0 66 25 124.5t68.5 102t102 68.5t124.5 25t124.5 -25t102 -68.5t68.5 -102t25 -124.5t-25 -124.5t-68.5 -102t-102 -68.5t-124.5 -25t-124.5 25t-102 68.5t-68.5 102t-25 124.5zM144 320q0 -40 15 -75t41 -61t61 -41t75 -15t75 15t61 41t41 61t15 75t-15 75
t-41 61t-61 41t-75 15t-75 -15t-61 -41t-41 -61t-15 -75zM272 736q0 26 19 45t45 19t45 -19t19 -45t-19 -45t-45 -19t-45 19t-19 45z" />
    <glyph glyph-name="odotaccent" unicode="&#x22f;" horiz-adv-x="544" 
d="M16 256q0 53 20 99.5t55 81.5t81.5 55t99.5 20t99.5 -20t81.5 -55t55 -81.5t20 -99.5t-20 -99.5t-55 -81.5t-81.5 -55t-99.5 -20t-99.5 20t-81.5 55t-55 81.5t-20 99.5zM144 256q0 -27 10 -50t27.5 -40.5t40.5 -27.5t50 -10t50 10t40.5 27.5t27.5 40.5t10 50t-10 50
t-27.5 40.5t-40.5 27.5t-50 10t-50 -10t-40.5 -27.5t-27.5 -40.5t-10 -50zM208 608q0 26 19 45t45 19t45 -19t19 -45t-19 -45t-45 -19t-45 19t-19 45z" />
    <glyph glyph-name="Ymacron" unicode="&#x232;" horiz-adv-x="624" 
d="M600 464q0 -51 -17 -97.5t-47 -83.5t-71 -63t-89 -37v-119q0 -26 -19 -45t-45 -19t-45 19t-19 45v119q-48 11 -89 37t-71 63t-47 83.5t-17 97.5v112q0 26 19 45t45 19t45 -19t19 -45v-112q0 -33 12.5 -62t34.5 -51t51 -34.5t62 -12.5t62 12.5t51 34.5t34.5 51t12.5 62
v112q0 26 19 45t45 19t45 -19t19 -45v-112zM424 784q20 0 34 -14t14 -34t-14 -34t-34 -14h-224q-20 0 -34 14t-14 34t14 34t34 14h224z" />
    <glyph glyph-name="ymacron" unicode="&#x233;" horiz-adv-x="576" 
d="M280 -64q45 0 79 27t45 69q-28 -15 -59 -23.5t-65 -8.5q-53 0 -99.5 20t-81.5 55t-55 81.5t-20 99.5v192q0 26 19 45t45 19t45 -19t19 -45v-192q0 -27 10 -50t27.5 -40.5t40.5 -27.5t50 -10t50 10t40.5 27.5t27.5 40.5t10 50v192q0 26 19 45t45 19t45 -19t19 -45v-384
q0 -53 -20 -99.5t-55 -81.5t-81.5 -55t-99.5 -20q-49 0 -96 18.5t-85 56.5q-19 19 -19 45t19 45t45 19t45 -19q20 -19 43 -28t48 -9zM392 656q20 0 34 -14t14 -34t-14 -34t-34 -14h-224q-20 0 -34 14t-14 34t14 34t34 14h224z" />
    <glyph glyph-name="circumflex" unicode="&#x2c6;" horiz-adv-x="272" 
d="M106 558q-14 -14 -34 -14t-34 14t-14 34t14 34l64 64q14 14 34 14t34 -14l64 -64q14 -14 14 -34t-14 -34t-34 -14t-34 14l-30 30z" />
    <glyph glyph-name="caron" unicode="&#x2c7;" horiz-adv-x="272" 
d="M166 690q14 14 34 14t34 -14t14 -34t-14 -34l-64 -64q-14 -14 -34 -14t-34 14l-64 64q-14 14 -14 34t14 34t34 14t34 -14l30 -30z" />
    <glyph glyph-name="breve" unicode="&#x2d8;" horiz-adv-x="304" 
d="M168 640q16 0 16 16q0 20 14 34t34 14t34 -14t14 -34q0 -23 -9 -43.5t-24 -35.5t-35.5 -24t-43.5 -9h-32q-23 0 -43.5 9t-35.5 24t-24 35.5t-9 43.5q0 20 14 34t34 14t34 -14t14 -34q0 -16 16 -16h32z" />
    <glyph glyph-name="dotaccent" unicode="&#x2d9;" horiz-adv-x="176" 
d="M24 608q0 26 19 45t45 19t45 -19t19 -45t-19 -45t-45 -19t-45 19t-19 45z" />
    <glyph glyph-name="ring" unicode="&#x2da;" horiz-adv-x="336" 
d="M116 564q0 -22 15 -37t37 -15t37 15t15 37t-15 37t-37 15t-37 -15t-15 -37zM28 564q0 29 11 54.5t30 44.5t44.5 30t54.5 11t54.5 -11t44.5 -30t30 -44.5t11 -54.5t-11 -54.5t-30 -44.5t-44.5 -30t-54.5 -11t-54.5 11t-44.5 30t-30 44.5t-11 54.5z" />
    <glyph glyph-name="ogonek" unicode="&#x2db;" horiz-adv-x="336" 
d="M202 -82q14 14 34 14t34 -14t14 -34t-14 -34q-20 -20 -46 -31t-56 -11t-56 11.5t-45.5 31t-31 45.5t-11.5 56t11.5 56t31 45.5t45.5 31t56 11.5q20 0 34 -14t14 -34t-14 -34t-34 -14t-34 -14t-14 -34t14 -34t34 -14t34 14z" />
    <glyph glyph-name="tilde" unicode="&#x2dc;" horiz-adv-x="368" 
d="M142 576q-13 0 -20 -4.5t-16 -13.5q-14 -14 -34 -14t-34 14t-14 34t14 34q23 23 48 34.5t56 11.5q13 0 25 -5t22.5 -11t19.5 -11t17 -5q13 0 20 4.5t16 13.5q14 14 34 14t34 -14t14 -34t-14 -34q-23 -23 -48 -34.5t-56 -11.5q-13 0 -25 5t-22.5 11t-19.5 11t-17 5z" />
    <glyph glyph-name="hungarumlaut" unicode="&#x2dd;" horiz-adv-x="400" 
d="M106 558q-14 -14 -34 -14t-34 14t-14 34t14 34l64 64q14 14 34 14t34 -14t14 -34t-14 -34zM298 558q-14 -14 -34 -14t-34 14t-14 34t14 34l64 64q14 14 34 14t34 -14t14 -34t-14 -34z" />
    <glyph glyph-name="Wgrave" unicode="&#x1e80;" horiz-adv-x="944" 
d="M920 256q0 -53 -20 -99.5t-55 -81.5t-81.5 -55t-99.5 -20q-58 0 -108 23.5t-85 64.5q-35 -41 -84.5 -64.5t-106.5 -23.5q-53 0 -99.5 20t-81.5 55t-55 81.5t-20 99.5v320q0 26 19 45t45 19t45 -19t19 -45v-320q0 -27 10 -50t27.5 -40.5t40.5 -27.5t50 -10t50 10
t40.5 27.5t27.5 40.5t10 50v320q0 26 19 45t45 19t45 -19t19 -45v-320q0 -27 10 -50t27.5 -40.5t40.5 -27.5t50 -10t50 10t40.5 27.5t27.5 40.5t10 50v320q0 26 19 45t45 19t45 -19t19 -45v-320zM390 750q-14 14 -14 34t14 34t34 14t34 -14l64 -64q14 -14 14 -34t-14 -34
t-34 -14t-34 14z" />
    <glyph glyph-name="wgrave" unicode="&#x1e81;" horiz-adv-x="816" 
d="M248 128q40 0 68 28t28 68v160q0 26 19 45t45 19t45 -19t19 -45v-160q0 -40 28 -68t68 -28t68 28t28 68v224q0 26 19 45t45 19t45 -19t19 -45v-224q0 -47 -17.5 -87.5t-48 -71t-71.5 -48t-87 -17.5q-48 0 -89 17.5t-71 49.5q-31 -32 -71.5 -49.5t-88.5 -17.5
q-47 0 -87.5 17.5t-71 48t-48 71t-17.5 87.5v224q0 26 19 45t45 19t45 -19t19 -45v-224q0 -40 28 -68t68 -28zM326 622q-14 14 -14 34t14 34t34 14t34 -14l64 -64q14 -14 14 -34t-14 -34t-34 -14t-34 14z" />
    <glyph glyph-name="Wacute" unicode="&#x1e82;" horiz-adv-x="944" 
d="M920 256q0 -53 -20 -99.5t-55 -81.5t-81.5 -55t-99.5 -20q-58 0 -108 23.5t-85 64.5q-35 -41 -84.5 -64.5t-106.5 -23.5q-53 0 -99.5 20t-81.5 55t-55 81.5t-20 99.5v320q0 26 19 45t45 19t45 -19t19 -45v-320q0 -27 10 -50t27.5 -40.5t40.5 -27.5t50 -10t50 10
t40.5 27.5t27.5 40.5t10 50v320q0 26 19 45t45 19t45 -19t19 -45v-320q0 -27 10 -50t27.5 -40.5t40.5 -27.5t50 -10t50 10t40.5 27.5t27.5 40.5t10 50v320q0 26 19 45t45 19t45 -19t19 -45v-320zM490 686q-14 -14 -34 -14t-34 14t-14 34t14 34l64 64q14 14 34 14t34 -14
t14 -34t-14 -34z" />
    <glyph glyph-name="wacute" unicode="&#x1e83;" horiz-adv-x="816" 
d="M248 128q40 0 68 28t28 68v160q0 26 19 45t45 19t45 -19t19 -45v-160q0 -40 28 -68t68 -28t68 28t28 68v224q0 26 19 45t45 19t45 -19t19 -45v-224q0 -47 -17.5 -87.5t-48 -71t-71.5 -48t-87 -17.5q-48 0 -89 17.5t-71 49.5q-31 -32 -71.5 -49.5t-88.5 -17.5
q-47 0 -87.5 17.5t-71 48t-48 71t-17.5 87.5v224q0 26 19 45t45 19t45 -19t19 -45v-224q0 -40 28 -68t68 -28zM426 558q-14 -14 -34 -14t-34 14t-14 34t14 34l64 64q14 14 34 14t34 -14t14 -34t-14 -34z" />
    <glyph glyph-name="Wdieresis" unicode="&#x1e84;" horiz-adv-x="944" 
d="M920 256q0 -53 -20 -99.5t-55 -81.5t-81.5 -55t-99.5 -20q-58 0 -108 23.5t-85 64.5q-35 -41 -84.5 -64.5t-106.5 -23.5q-53 0 -99.5 20t-81.5 55t-55 81.5t-20 99.5v320q0 26 19 45t45 19t45 -19t19 -45v-320q0 -27 10 -50t27.5 -40.5t40.5 -27.5t50 -10t50 10
t40.5 27.5t27.5 40.5t10 50v320q0 26 19 45t45 19t45 -19t19 -45v-320q0 -27 10 -50t27.5 -40.5t40.5 -27.5t50 -10t50 10t40.5 27.5t27.5 40.5t10 50v320q0 26 19 45t45 19t45 -19t19 -45v-320zM328 736q0 26 19 45t45 19t45 -19t19 -45t-19 -45t-45 -19t-45 19t-19 45z
M488 736q0 26 19 45t45 19t45 -19t19 -45t-19 -45t-45 -19t-45 19t-19 45z" />
    <glyph glyph-name="wdieresis" unicode="&#x1e85;" horiz-adv-x="816" 
d="M248 128q40 0 68 28t28 68v160q0 26 19 45t45 19t45 -19t19 -45v-160q0 -40 28 -68t68 -28t68 28t28 68v224q0 26 19 45t45 19t45 -19t19 -45v-224q0 -47 -17.5 -87.5t-48 -71t-71.5 -48t-87 -17.5q-48 0 -89 17.5t-71 49.5q-31 -32 -71.5 -49.5t-88.5 -17.5
q-47 0 -87.5 17.5t-71 48t-48 71t-17.5 87.5v224q0 26 19 45t45 19t45 -19t19 -45v-224q0 -40 28 -68t68 -28zM264 608q0 26 19 45t45 19t45 -19t19 -45t-19 -45t-45 -19t-45 19t-19 45zM424 608q0 26 19 45t45 19t45 -19t19 -45t-19 -45t-45 -19t-45 19t-19 45z" />
    <glyph glyph-name="Etilde" unicode="&#x1ebc;" horiz-adv-x="568" 
d="M168 128h320q26 0 45 -19t19 -45t-19 -45t-45 -19h-384q-26 0 -45 19t-19 45v512q0 26 19 45t45 19h384q26 0 45 -19t19 -45t-19 -45t-45 -19h-320v-128h288q26 0 45 -19t19 -45t-19 -45t-45 -19h-288v-128zM254 704q-13 0 -20 -4.5t-16 -13.5q-14 -14 -34 -14t-34 14
t-14 34t14 34q23 23 48 34.5t56 11.5q13 0 25 -5t22.5 -11t19.5 -11t17 -5q13 0 20 4.5t16 13.5q14 14 34 14t34 -14t14 -34t-14 -34q-23 -23 -48 -34.5t-56 -11.5q-13 0 -25 5t-22.5 11t-19.5 11t-17 5z" />
    <glyph glyph-name="etilde" unicode="&#x1ebd;" horiz-adv-x="544" 
d="M272 0q-53 0 -99.5 20t-81.5 55t-55 81.5t-20 99.5t20 99.5t55 81.5t81.5 55t99.5 20t99.5 -20t81.5 -55t55 -81.5t20 -99.5q0 -26 -19 -45t-45 -19h-303q17 -29 46 -46.5t65 -17.5h32q26 0 45 -19t19 -45t-19 -45t-45 -19h-32zM272 384q-36 0 -65 -17.5t-46 -46.5h222
q-17 29 -46.5 46.5t-64.5 17.5zM230 576q-13 0 -20 -4.5t-16 -13.5q-14 -14 -34 -14t-34 14t-14 34t14 34q23 23 48 34.5t56 11.5q13 0 25 -5t22.5 -11t19.5 -11t17 -5q13 0 20 4.5t16 13.5q14 14 34 14t34 -14t14 -34t-14 -34q-23 -23 -48 -34.5t-56 -11.5q-13 0 -25 5
t-22.5 11t-19.5 11t-17 5z" />
    <glyph glyph-name="Ygrave" unicode="&#x1ef2;" horiz-adv-x="624" 
d="M600 464q0 -51 -17 -97.5t-47 -83.5t-71 -63t-89 -37v-119q0 -26 -19 -45t-45 -19t-45 19t-19 45v119q-48 11 -89 37t-71 63t-47 83.5t-17 97.5v112q0 26 19 45t45 19t45 -19t19 -45v-112q0 -33 12.5 -62t34.5 -51t51 -34.5t62 -12.5t62 12.5t51 34.5t34.5 51t12.5 62
v112q0 26 19 45t45 19t45 -19t19 -45v-112zM230 750q-14 14 -14 34t14 34t34 14t34 -14l64 -64q14 -14 14 -34t-14 -34t-34 -14t-34 14z" />
    <glyph glyph-name="ygrave" unicode="&#x1ef3;" horiz-adv-x="576" 
d="M280 -64q45 0 79 27t45 69q-28 -15 -59 -23.5t-65 -8.5q-53 0 -99.5 20t-81.5 55t-55 81.5t-20 99.5v192q0 26 19 45t45 19t45 -19t19 -45v-192q0 -27 10 -50t27.5 -40.5t40.5 -27.5t50 -10t50 10t40.5 27.5t27.5 40.5t10 50v192q0 26 19 45t45 19t45 -19t19 -45v-384
q0 -53 -20 -99.5t-55 -81.5t-81.5 -55t-99.5 -20q-49 0 -96 18.5t-85 56.5q-19 19 -19 45t19 45t45 19t45 -19q20 -19 43 -28t48 -9zM198 622q-14 14 -14 34t14 34t34 14t34 -14l64 -64q14 -14 14 -34t-14 -34t-34 -14t-34 14z" />
    <glyph glyph-name="Ytilde" unicode="&#x1ef8;" horiz-adv-x="624" 
d="M600 464q0 -51 -17 -97.5t-47 -83.5t-71 -63t-89 -37v-119q0 -26 -19 -45t-45 -19t-45 19t-19 45v119q-48 11 -89 37t-71 63t-47 83.5t-17 97.5v112q0 26 19 45t45 19t45 -19t19 -45v-112q0 -33 12.5 -62t34.5 -51t51 -34.5t62 -12.5t62 12.5t51 34.5t34.5 51t12.5 62
v112q0 26 19 45t45 19t45 -19t19 -45v-112zM270 704q-13 0 -20 -4.5t-16 -13.5q-14 -14 -34 -14t-34 14t-14 34t14 34q23 23 48 34.5t56 11.5q13 0 25 -5t22.5 -11t19.5 -11t17 -5q13 0 20 4.5t16 13.5q14 14 34 14t34 -14t14 -34t-14 -34q-23 -23 -48 -34.5t-56 -11.5
q-13 0 -25 5t-22.5 11t-19.5 11t-17 5z" />
    <glyph glyph-name="ytilde" unicode="&#x1ef9;" horiz-adv-x="576" 
d="M280 -64q45 0 79 27t45 69q-28 -15 -59 -23.5t-65 -8.5q-53 0 -99.5 20t-81.5 55t-55 81.5t-20 99.5v192q0 26 19 45t45 19t45 -19t19 -45v-192q0 -27 10 -50t27.5 -40.5t40.5 -27.5t50 -10t50 10t40.5 27.5t27.5 40.5t10 50v192q0 26 19 45t45 19t45 -19t19 -45v-384
q0 -53 -20 -99.5t-55 -81.5t-81.5 -55t-99.5 -20q-49 0 -96 18.5t-85 56.5q-19 19 -19 45t19 45t45 19t45 -19q20 -19 43 -28t48 -9zM238 576q-13 0 -20 -4.5t-16 -13.5q-14 -14 -34 -14t-34 14t-14 34t14 34q23 23 48 34.5t56 11.5q13 0 25 -5t22.5 -11t19.5 -11t17 -5
q13 0 20 4.5t16 13.5q14 14 34 14t34 -14t14 -34t-14 -34q-23 -23 -48 -34.5t-56 -11.5q-13 0 -25 5t-22.5 11t-19.5 11t-17 5z" />
    <glyph glyph-name="endash" unicode="&#x2013;" 
d="M88 256q-26 0 -45 19t-19 45t19 45t45 19h384q26 0 45 -19t19 -45t-19 -45t-45 -19h-384z" />
    <glyph glyph-name="emdash" unicode="&#x2014;" horiz-adv-x="784" 
d="M88 256q-26 0 -45 19t-19 45t19 45t45 19h608q26 0 45 -19t19 -45t-19 -45t-45 -19h-608z" />
    <glyph glyph-name="quoteleft" unicode="&#x2018;" horiz-adv-x="176" 
d="M24 640q0 26 19 45t45 19t45 -19t19 -45v-128q0 -26 -19 -45t-45 -19t-45 19t-19 45v128z" />
    <glyph glyph-name="quoteright" unicode="&#x2019;" horiz-adv-x="176" 
d="M24 640q0 26 19 45t45 19t45 -19t19 -45v-128q0 -26 -19 -45t-45 -19t-45 19t-19 45v128z" />
    <glyph glyph-name="quotesinglbase" unicode="&#x201a;" horiz-adv-x="176" 
d="M24 64q0 26 19 45t45 19t45 -19t19 -45v-128q0 -26 -19 -45t-45 -19t-45 19t-19 45v128z" />
    <glyph glyph-name="quotedblleft" unicode="&#x201c;" horiz-adv-x="336" 
d="M24 640q0 26 19 45t45 19t45 -19t19 -45v-128q0 -26 -19 -45t-45 -19t-45 19t-19 45v128zM184 640q0 26 19 45t45 19t45 -19t19 -45v-128q0 -26 -19 -45t-45 -19t-45 19t-19 45v128z" />
    <glyph glyph-name="quotedblright" unicode="&#x201d;" horiz-adv-x="336" 
d="M24 640q0 26 19 45t45 19t45 -19t19 -45v-128q0 -26 -19 -45t-45 -19t-45 19t-19 45v128zM184 640q0 26 19 45t45 19t45 -19t19 -45v-128q0 -26 -19 -45t-45 -19t-45 19t-19 45v128z" />
    <glyph glyph-name="quotedblbase" unicode="&#x201e;" horiz-adv-x="336" 
d="M24 64q0 26 19 45t45 19t45 -19t19 -45v-128q0 -26 -19 -45t-45 -19t-45 19t-19 45v128zM184 64q0 26 19 45t45 19t45 -19t19 -45v-128q0 -26 -19 -45t-45 -19t-45 19t-19 45v128z" />
    <glyph glyph-name="dagger" unicode="&#x2020;" horiz-adv-x="400" 
d="M72 384q-26 0 -45 19t-19 45t19 45t45 19h64v64q0 26 19 45t45 19t45 -19t19 -45v-64h64q26 0 45 -19t19 -45t-19 -45t-45 -19h-64v-320q0 -26 -19 -45t-45 -19t-45 19t-19 45v320h-64z" />
    <glyph glyph-name="daggerdbl" unicode="&#x2021;" horiz-adv-x="400" 
d="M136 128h-64q-26 0 -45 19t-19 45t19 45t45 19h64v128h-64q-26 0 -45 19t-19 45t19 45t45 19h64v64q0 26 19 45t45 19t45 -19t19 -45v-64h64q26 0 45 -19t19 -45t-19 -45t-45 -19h-64v-128h64q26 0 45 -19t19 -45t-19 -45t-45 -19h-64v-64q0 -26 -19 -45t-45 -19t-45 19
t-19 45v64z" />
    <glyph glyph-name="bullet" unicode="&#x2022;" horiz-adv-x="368" 
d="M24 320q0 33 12.5 62t34.5 51t51 34.5t62 12.5t62 -12.5t51 -34.5t34.5 -51t12.5 -62t-12.5 -62t-34.5 -51t-51 -34.5t-62 -12.5t-62 12.5t-51 34.5t-34.5 51t-12.5 62z" />
    <glyph glyph-name="ellipsis" unicode="&#x2026;" 
d="M16 72q0 30 21 51t51 21t51 -21t21 -51t-21 -51t-51 -21t-51 21t-21 51zM208 72q0 30 21 51t51 21t51 -21t21 -51t-21 -51t-51 -21t-51 21t-21 51zM400 72q0 30 21 51t51 21t51 -21t21 -51t-21 -51t-51 -21t-51 21t-21 51z" />
    <glyph glyph-name="perthousand" unicode="&#x2030;" horiz-adv-x="1008" 
d="M106 14q-14 -14 -34 -14t-34 14t-14 34t14 34l544 544q14 14 34 14t34 -14t14 -34t-14 -34zM24 496q0 30 11.5 56t31 45.5t45.5 31t56 11.5t56 -11.5t45.5 -31t31 -45.5t11.5 -56t-11.5 -56t-31 -45.5t-45.5 -31t-56 -11.5t-56 11.5t-45.5 31t-31 45.5t-11.5 56zM696 144
q0 30 11.5 56t31 45.5t45.5 31t56 11.5t56 -11.5t45.5 -31t31 -45.5t11.5 -56t-11.5 -56t-31 -45.5t-45.5 -31t-56 -11.5t-56 11.5t-45.5 31t-31 45.5t-11.5 56zM376 144q0 30 11.5 56t31 45.5t45.5 31t56 11.5t56 -11.5t45.5 -31t31 -45.5t11.5 -56t-11.5 -56t-31 -45.5
t-45.5 -31t-56 -11.5t-56 11.5t-45.5 31t-31 45.5t-11.5 56zM472 144q0 -20 14 -34t34 -14t34 14t14 34t-14 34t-34 14t-34 -14t-14 -34zM120 496q0 -20 14 -34t34 -14t34 14t14 34t-14 34t-34 14t-34 -14t-14 -34zM792 144q0 -20 14 -34t34 -14t34 14t14 34t-14 34t-34 14
t-34 -14t-14 -34z" />
    <glyph glyph-name="guilsinglleft" unicode="&#x2039;" horiz-adv-x="336" 
d="M203 461q19 19 45 19t45 -19t19 -45q0 -12 -5 -24.5t-13 -20.5l-115 -115l115 -115q8 -9 12.5 -21t5.5 -24q0 -26 -19 -45t-45 -19t-45 19l-161 160q-9 8 -13.5 20t-4.5 25q0 12 5 24.5t13 20.5z" />
    <glyph glyph-name="guilsinglright" unicode="&#x203a;" horiz-adv-x="336" 
d="M294 301q9 -8 13 -20.5t5 -24.5q0 -12 -5 -24.5t-13 -20.5l-161 -160q-19 -19 -45 -19t-45 19t-19 45q0 12 5 24.5t13 20.5l115 115l-115 115q-9 8 -13.5 20t-4.5 25q0 26 19 45t45 19t45 -19z" />
    <glyph glyph-name="fraction" unicode="&#x2044;" horiz-adv-x="624" 
d="M74 14q-14 -14 -34 -14t-34 14t-14 34t14 34l544 544q14 14 34 14t34 -14t14 -34t-14 -34z" />
    <glyph glyph-name="Euro" unicode="&#x20ac;" 
d="M225 208q14 -35 46 -57.5t73 -22.5q25 0 48 9t43 28q19 19 45 19t45 -19t19 -45t-19 -45q-38 -38 -85 -56.5t-96 -18.5q-47 0 -89 16t-75.5 44t-56 66t-31.5 82h-20q-20 0 -34 14t-14 34t14 34t34 14h16v32h-16q-20 0 -34 14t-14 34t14 34t34 14h20q9 44 31.5 82t56 66
t75.5 44t89 16q49 0 96 -18.5t85 -56.5q19 -19 19 -45t-19 -45t-45 -19q-27 0 -45 19q-19 20 -42.5 28.5t-48.5 8.5q-41 0 -73 -22.5t-46 -57.5h199q20 0 34 -14t14 -34t-14 -34t-34 -14h-208v-32h176q20 0 34 -14t14 -34t-14 -34t-34 -14h-167z" />
    <glyph glyph-name="trademark" unicode="&#x2122;" horiz-adv-x="944" 
d="M248 544v-240q0 -20 -14 -34t-34 -14t-34 14t-14 34v240h-96q-20 0 -34 14t-14 34t14 34t34 14h288q20 0 34 -14t14 -34t-14 -34t-34 -14h-96zM560 544q-23 0 -39.5 -16.5t-16.5 -39.5v-184q0 -20 -14 -34t-34 -14t-34 14t-14 34v184q0 31 12 59t32.5 48.5t48 32.5
t59.5 12q30 0 57 -11t47 -30q20 19 47 30t57 11q31 0 59 -12t48.5 -32.5t32.5 -48.5t12 -59v-184q0 -20 -14 -34t-34 -14t-34 14t-14 34v184q0 23 -16.5 39.5t-39.5 16.5t-39.5 -16.5t-16.5 -39.5v-184q0 -20 -14 -34t-34 -14t-34 14t-14 34v184q0 23 -16.5 39.5t-39.5 16.5
z" />
    <glyph glyph-name="minus" unicode="&#x2212;" 
d="M88 256q-26 0 -45 19t-19 45t19 45t45 19h384q26 0 45 -19t19 -45t-19 -45t-45 -19h-384z" />
    <glyph glyph-name="commaaccent" horiz-adv-x="144" 
d="M24 -80q0 20 14 34t34 14t34 -14t14 -34v-64q0 -20 -14 -34t-34 -14t-34 14t-14 34v64z" />
    <glyph glyph-name="Gtilde" horiz-adv-x="632" 
d="M464 256h-64q-26 0 -45 19t-19 45t19 45t45 19h128q26 0 45 -19t19 -45v-256q0 -26 -19 -45t-45 -19h-192q-66 0 -124.5 25t-102 68.5t-68.5 102t-25 124.5t25 124.5t68.5 102t102 68.5t124.5 25q62 0 120 -23.5t106 -70.5q19 -19 19 -45t-19 -45t-45 -19t-45 19
q-28 28 -64 42t-72 14q-40 0 -75 -15t-61 -41t-41 -61t-15 -75t15 -75t41 -61t61 -41t75 -15h128v128zM294 704q-13 0 -20 -4.5t-16 -13.5q-14 -14 -34 -14t-34 14t-14 34t14 34q23 23 48 34.5t56 11.5q13 0 25 -5t22.5 -11t19.5 -11t17 -5q13 0 20 4.5t16 13.5q14 14 34 14
t34 -14t14 -34t-14 -34q-23 -23 -48 -34.5t-56 -11.5q-13 0 -25 5t-22.5 11t-19.5 11t-17 5z" />
    <glyph glyph-name="gtilde" horiz-adv-x="552" 
d="M272 -64q45 0 79 27t45 69q-28 -15 -59 -23.5t-65 -8.5q-53 0 -99.5 20t-81.5 55t-55 81.5t-20 99.5t20 99.5t55 81.5t81.5 55t99.5 20t99.5 -20t81.5 -55t55 -81.5t20 -99.5v-192q0 -53 -20 -99.5t-55 -81.5t-81.5 -55t-99.5 -20q-49 0 -96 18.5t-85 56.5q-19 19 -19 45
t19 45t45 19t45 -19q20 -19 43 -28t48 -9zM144 256q0 -27 10 -50t27.5 -40.5t40.5 -27.5t50 -10t50 10t40.5 27.5t27.5 40.5t10 50t-10 50t-27.5 40.5t-40.5 27.5t-50 10t-50 -10t-40.5 -27.5t-27.5 -40.5t-10 -50zM230 576q-13 0 -20 -4.5t-16 -13.5q-14 -14 -34 -14
t-34 14t-14 34t14 34q23 23 48 34.5t56 11.5q13 0 25 -5t22.5 -11t19.5 -11t17 -5q13 0 20 4.5t16 13.5q14 14 34 14t34 -14t14 -34t-14 -34q-23 -23 -48 -34.5t-56 -11.5q-13 0 -25 5t-22.5 11t-19.5 11t-17 5z" />
    <glyph glyph-name="Mcircumflex" horiz-adv-x="976" 
d="M936 64q0 -26 -19 -45t-45 -19t-45 19t-19 45v320q0 27 -10 50t-27.5 40.5t-40.5 27.5t-50 10t-50 -10t-40.5 -27.5t-27.5 -40.5t-10 -50v-320q0 -26 -19 -45t-45 -19t-45 19t-19 45v320q0 27 -10 50t-27.5 40.5t-40.5 27.5t-50 10t-50 -10t-40.5 -27.5t-27.5 -40.5
t-10 -50v-320q0 -26 -19 -45t-45 -19t-45 19t-19 45v320q0 53 20 99.5t55 81.5t81.5 55t99.5 20q57 0 106.5 -23.5t84.5 -64.5q35 41 85 64.5t108 23.5q53 0 99.5 -20t81.5 -55t55 -81.5t20 -99.5v-320zM458 686q-14 -14 -34 -14t-34 14t-14 34t14 34l64 64q14 14 34 14
t34 -14l64 -64q14 -14 14 -34t-14 -34t-34 -14t-34 14l-30 30z" />
    <glyph glyph-name="mcircumflex" horiz-adv-x="816" 
d="M344 288q0 40 -28 68t-68 28t-68 -28t-28 -68v-224q0 -26 -19 -45t-45 -19t-45 19t-19 45v224q0 46 17.5 87t48 71.5t71 48t87.5 17.5q48 0 88.5 -18t71.5 -49q30 31 71 49t89 18q46 0 87 -17.5t71.5 -48t48 -71.5t17.5 -87v-224q0 -26 -19 -45t-45 -19t-45 19t-19 45
v224q0 40 -28 68t-68 28t-68 -28t-28 -68v-224q0 -26 -19 -45t-45 -19t-45 19t-19 45v224zM378 558q-14 -14 -34 -14t-34 14t-14 34t14 34l64 64q14 14 34 14t34 -14l64 -64q14 -14 14 -34t-14 -34t-34 -14t-34 14l-30 30z" />
    <glyph glyph-name="Ncircumflex" horiz-adv-x="656" 
d="M616 64q0 -26 -19 -45t-45 -19t-45 19t-19 45v288q0 33 -12.5 62t-34.5 51t-51 34.5t-62 12.5t-62 -12.5t-51 -34.5t-34.5 -51t-12.5 -62v-288q0 -26 -19 -45t-45 -19t-45 19t-19 45v288q0 60 22.5 112.5t61.5 91.5t91.5 61.5t112.5 22.5t112.5 -22.5t91.5 -61.5
t61.5 -91.5t22.5 -112.5v-288zM298 686q-14 -14 -34 -14t-34 14t-14 34t14 34l64 64q14 14 34 14t34 -14l64 -64q14 -14 14 -34t-14 -34t-34 -14t-34 14l-30 30z" />
    <glyph glyph-name="ncircumflex" 
d="M536 64q0 -26 -19 -45t-45 -19t-45 19t-19 45v192q0 27 -10 50t-27.5 40.5t-40.5 27.5t-50 10t-50 -10t-40.5 -27.5t-27.5 -40.5t-10 -50v-192q0 -26 -19 -45t-45 -19t-45 19t-19 45v192q0 53 20 99.5t55 81.5t81.5 55t99.5 20t99.5 -20t81.5 -55t55 -81.5t20 -99.5v-192
zM250 558q-14 -14 -34 -14t-34 14t-14 34t14 34l64 64q14 14 34 14t34 -14l64 -64q14 -14 14 -34t-14 -34t-34 -14t-34 14l-30 30z" />
    <glyph glyph-name="Ndieresis" horiz-adv-x="656" 
d="M616 64q0 -26 -19 -45t-45 -19t-45 19t-19 45v288q0 33 -12.5 62t-34.5 51t-51 34.5t-62 12.5t-62 -12.5t-51 -34.5t-34.5 -51t-12.5 -62v-288q0 -26 -19 -45t-45 -19t-45 19t-19 45v288q0 60 22.5 112.5t61.5 91.5t91.5 61.5t112.5 22.5t112.5 -22.5t91.5 -61.5
t61.5 -91.5t22.5 -112.5v-288zM184 736q0 26 19 45t45 19t45 -19t19 -45t-19 -45t-45 -19t-45 19t-19 45zM344 736q0 26 19 45t45 19t45 -19t19 -45t-19 -45t-45 -19t-45 19t-19 45z" />
    <glyph glyph-name="ndieresis" 
d="M536 64q0 -26 -19 -45t-45 -19t-45 19t-19 45v192q0 27 -10 50t-27.5 40.5t-40.5 27.5t-50 10t-50 -10t-40.5 -27.5t-27.5 -40.5t-10 -50v-192q0 -26 -19 -45t-45 -19t-45 19t-19 45v192q0 53 20 99.5t55 81.5t81.5 55t99.5 20t99.5 -20t81.5 -55t55 -81.5t20 -99.5v-192
zM136 608q0 26 19 45t45 19t45 -19t19 -45t-19 -45t-45 -19t-45 19t-19 45zM296 608q0 26 19 45t45 19t45 -19t19 -45t-19 -45t-45 -19t-45 19t-19 45z" />
    </font>
</defs>
</svg>
