<svg xmlns="http://www.w3.org/2000/svg" width="324" height="95" viewBox="0 0 324 95"><path d="M133.718 8.32c10.036-1.032 6.08 12.796 6.828 18.508-.038.866.049 1.889.002 2.738-.532 9.612 1.946 21.44-3.606 29.886a23.12 23.12 0 0 1-14.64 9.9c-6.165 1.263-11.705-.667-16.797-4.024-3.819-3.08-6.408-6.253-7.969-10.982a22.16 22.16 0 0 1 1.343-17.142c5.964-11.786 19.118-14.983 30.591-9.178-.021-4.676-.336-10.27.184-14.934.267-2.395 1.958-3.784 4.064-4.773M120.622 58.16c6.006-1.18 9.898-7.03 8.666-13.025-1.233-5.995-7.116-9.836-13.1-8.551-5.911 1.268-9.695 7.064-8.478 12.986 1.217 5.921 6.98 9.755 12.912 8.59"/><path d="M276.21 25.08q.252.02.503.055c5.807.8 5.196 5.483 5.318 9.714.258 8.997-2.795 21.455 9.495 23.454 6.746.516 10.629-2.888 12.231-9.08 1.412-5.455-1.689-19.813 2.483-22.968a5.33 5.33 0 0 1 3.964-1.042c4.308.634 4.946 4.01 4.857 7.599-.098 3.96-.02 8.03-.017 12.002l.023 13.566c.008 11.19-.517 17.474-10.412 24.636l-.094.07c-8.412 6.092-22.484 3.582-28.53-4.846-.628-4.739.612-6.677 5.321-7.795 3.611.931 5.098 3.199 8.306 4.306 6.536 2.256 11.712-1.88 13.891-7.668-2.006.651-4.065 1.667-6.169 2.139-10.996 2.468-22.966-5.176-25.696-16.02-1.057-4.201-.518-9.264-.63-13.608-.08-3.113-.119-6.407.078-9.518.266-3.342 2.28-4.397 5.078-4.997"/><path d="M69.958 25.266c12.167-.744 22.647 8.487 23.445 20.65.799 12.164-8.385 22.686-20.546 23.538-12.237.858-22.84-8.397-23.642-20.638-.804-12.24 8.498-22.802 20.743-23.55M73.62 58.11c5.928-1.27 9.713-7.095 8.463-13.027s-7.063-9.736-13-8.505c-5.963 1.236-9.788 7.082-8.532 13.042s7.114 9.765 13.07 8.49"/><path d="M150.209 25.083c12.122 1.193.542 22.05 9.185 30.349a10.83 10.83 0 0 0 7.769 2.98 11.24 11.24 0 0 0 6.211-1.997c9.383-6.632 1.285-24.523 6.378-29.735.967-.99 2.394-1.502 3.763-1.507 1.433-.005 2.959.61 3.966 1.64 2.555 2.613 1.626 10.913 1.593 14.562.012 6.602.462 11.472-3.182 17.412a23.3 23.3 0 0 1-14.46 10.437c-10.907 2.579-23.124-5.18-25.705-16.104-.817-3.456-.721-7.298-.686-10.85.133-4.012-.212-8.114.086-12.11.242-3.256 2.247-4.46 5.082-5.077"/><path d="M29.769 25.09c4.676-.3 8.43 1.125 12.975 3.484 5.439 2.822 8.327 9.041 1.169 12.199-3.463 1.11-5.469-2.09-7.732-3.22-5.35-2.67-11.82-.697-14.716 4.066a11.01 11.01 0 0 0-1.287 8.28c.727 2.977 2.469 5.402 5.083 6.988a10.48 10.48 0 0 0 10.908.056c3.476-2.072 5.618-4.596 9.72-2.075 7.94 7.06-6.61 14.06-12.47 14.722C22.32 71.01 10.63 62.33 9.245 51.057 7.483 36.693 15.781 26.923 29.77 25.089"/><path d="M246.439 14.313q.388-.01.775-.002c6.459.138 5.897 6.093 5.742 10.592 4.438.027 14.839-1.048 13.693 6.354a5.93 5.93 0 0 1-2.357 3.867c-2.257 1.639-8.608 1.482-11.253 1.053.05 5.353-.388 13.104.207 18.235.685 5.901 8.981 2.169 12.623 6.658.945 1.834 1.218 3.177.348 5.184a5.76 5.76 0 0 1-3.206 3.083c-2.9 1.132-8.319.074-11.122-1.146a16.03 16.03 0 0 1-8.578-8.807c-2.255-5.758-.977-16.478-1.255-22.919-.22-5.098.027-10.693-.018-15.826-.03-3.52 1.172-5.123 4.401-6.326"/><path d="M214.399 25.081c4.125.113 5.587 1.345 6.697 5.294-1.479 7.267-6.012 5.068-11.032 7.346-7.561 3.433-5.228 14.708-5.542 21.37-.226 4.778.675 8.083-4.522 10.607a6.09 6.09 0 0 1-4.394-1.212c-3.475-2.628-1.937-8.747-2.205-12.552-1.111-15.802 3.203-28.436 20.998-30.853"/><path d="M230.339 25.041c4.123.48 5.863 2.612 5.875 6.657.029 10.678.107 21.37-.057 32.046-.051 3.297-2.111 5.123-5.07 6.074-2.198-.162-5.689-1.962-5.669-4.156.07-7.501-2.001-33.724 1.261-39.075 1.271-.815 2.209-1.199 3.66-1.546"/><path d="M229.268 10.152a6.21 6.21 0 1 1 2.705 12.123 6.21 6.21 0 0 1-2.705-12.123"/></svg>
