<svg xmlns="http://www.w3.org/2000/svg" width="636" height="532" viewBox="0 0 636 532"><clipPath id="a"><path d="M0 0h636v532H0z"/></clipPath><g clip-path="url(#a)"><path d="M571.341 8.286a51.32 51.32 0 0 1 31.962 6.991 52.5 52.5 0 0 1 23.611 31.994c2.671 10.964 1.742 38.2 1.74 50.819l-.004 79.752.021 114.777c.135 57.518 4.582 100.2-27.379 151.859a162.6 162.6 0 0 1-102.14 73.255c-36.944 8.559-83.188 3.319-114.741-18.112-43.088-29.265-16.416-99.19 36.216-89.835 5.944 1.056 12.579 4.465 18.166 6.76a67.73 67.73 0 0 0 39.408 3.397c18.961-3.947 35.821-16.197 46.352-32.331a75.39 75.39 0 0 0 10.644-56.706 76.48 76.48 0 0 0-32.887-47.585 70.27 70.27 0 0 0-53.372-9.53c-49.959 11.063-55.199 58.05-70.334 98.713a299.7 299.7 0 0 1-27.867 55.679c-59.317 91.887-174.376 122.52-268.002 61.891C21.576 448.687-3.971 373.36 12.963 302.42a177.83 177.83 0 0 1 81.146-109.864c45.03-27.445 100.319-30.428 150.49-17.861 16.71 4.186 30.76 10.618 39.939 25.926a52.37 52.37 0 0 1 5.574 40.015c-2.552 9.993-8.625 20.477-16.857 26.656-41.574 31.208-79.31-14.595-127.975 15.058a75.94 75.94 0 0 0-34.424 46.965c-9.486 39.45 15.458 80.796 55.244 90.218 43.345 10.266 89.341-18.371 108.236-56.655 9.159-18.557 14.431-39.43 20.355-59.243 13.718-44.407 38.252-84.499 78.586-109.532 47.716-29.615 97.085-31.916 150.118-20.126l-.132-73.579c-.046-11.912-.798-39.025 1.197-49.494a54.6 54.6 0 0 1 9.595-21.884c9.568-13.16 21.695-18.29 37.286-20.734"/></g></svg>